BesixdouzeCode-BoldItalic.sfdir
StartChar: quotedbl
Encoding: 396 34 396
GlifName: quotedbl
Width: 1300
VWidth: 0
Flags: W
LayerCount: 2
Fore
SplineSet
893 1500 m 257,0,-1
NamedP: "sv01"
 870 1367 l 257,1,2
 867 1349 867 1349 862.5 1324.5 c 128,-1,3
 858 1300 858 1300 852 1273 c 128,-1,4
 846 1246 846 1246 839 1218.5 c 128,-1,5
 832 1191 832 1191 825 1168 c 257,6,-1
 775 1013 l 257,7,-1
NamedP: "sv02"
 595 1013 l 257,8,-1
 599 1168 l 257,9,10
 600 1191 600 1191 602.5 1218.5 c 128,-1,11
 605 1246 605 1246 609 1273 c 128,-1,12
 613 1300 613 1300 617 1324.5 c 128,-1,13
 621 1349 621 1349 624 1367 c 257,14,-1
 647 1500 l 257,15,-1
 893 1500 l 257,0,-1
NamedP: "sv01"
593 1500 m 257,16,-1
 570 1367 l 257,17,18
 567 1349 567 1349 562.5 1324.5 c 128,-1,19
 558 1300 558 1300 552 1273 c 128,-1,20
 546 1246 546 1246 539 1218.5 c 128,-1,21
 532 1191 532 1191 525 1168 c 257,22,-1
 475 1013 l 257,23,-1
 295 1013 l 257,24,-1
NamedP: "av01"
 299 1168 l 257,25,26
 300 1191 300 1191 302.5 1218.5 c 128,-1,27
 305 1246 305 1246 309 1273 c 128,-1,28
 313 1300 313 1300 317 1324.5 c 128,-1,29
 321 1349 321 1349 324 1367 c 257,30,-1
 347 1500 l 257,31,-1
NamedP: "at01"
 593 1500 l 257,16,-1
EndSplineSet
PickledDataWithLists: "(dp0
Vcom.adobe.type.autohint
p1
(c_codecs
encode
p2
(Vdata
p3
Vlatin1
p4
tp5
Rp6
g2
(V<data>\\u000a        <hintSetList>\\u000a          <hintset pointTag=\"sv01\">\\u000a            <hstem pos=\"1067\" width=\"433\"/>\\u000a            <vstem pos=\"150\" width=\"175\"/>\\u000a            <vstem pos=\"451\" width=\"175\"/>\\u000a          </hintset>\\u000a        </hintSetList>\\u000a      </data>
p7
g4
tp8
Rp9
Ntp10
sVcom.fontlab.ttprogram
p11
(g2
(Vdata
p12
g4
tp13
Rp14
g2
(V<data>\\u000a        <ttProgram>\\u000a          <ttc align=\"round\" code=\"alignv\" point=\"av01\"/>\\u000a          <ttc code=\"alignt\" point=\"at01\" zone=\"t: 1\"/>\\u000a          <ttc code=\"singlev\" point1=\"at01\" point2=\"sv01\"/>\\u000a          <ttc code=\"singlev\" point1=\"av01\" point2=\"sv02\"/>\\u000a        </ttProgram>\\u000a      </data>
p15
g4
tp16
Rp17
Ntp18
s."
EndChar
StartChar: dollar
Encoding: 213 36 213
GlifName: dollar
Width: 1300
VWidth: 0
Flags: W
LayerCount: 2
Fore
SplineSet
412 -14 m 257,0,1
NamedP: "hr00"
 308 -6 308 -6 222 28 c 128,-1,2
 136 62 136 62 53 121 c 257,3,-1
 231 348 l 257,4,5
 250 333 250 333 275.5 316 c 128,-1,6
 301 299 301 299 330.5 283 c 128,-1,7
 360 267 360 267 392 253.5 c 128,-1,8
 424 240 424 240 456 233 c 257,9,-1
 540 712 l 257,10,11
 477 745 477 745 417 781 c 128,-1,12
 357 817 357 817 312.5 862 c 128,-1,13
 268 907 268 907 246.5 964.5 c 128,-1,14
 225 1022 225 1022 238 1097 c 257,15,16
 253 1179 253 1179 294 1245.5 c 128,-1,17
 335 1312 335 1312 394.5 1363 c 128,-1,18
 454 1414 454 1414 527.5 1448.5 c 128,-1,19
 601 1483 601 1483 679 1500 c 257,20,-1
 711 1681 l 257,21,-1
 1018 1719 l 257,22,-1
NamedP: "av02"
 979 1499 l 257,23,24
 1119 1466 1119 1466 1246 1369 c 257,25,-1
 1062 1178 l 257,26,27
 987 1226 987 1226 935 1252 c 257,28,-1
 867 866 l 257,29,30
 927 835 927 835 982 797 c 128,-1,31
 1037 759 1037 759 1077 709.5 c 128,-1,32
 1117 660 1117 660 1135.5 596 c 128,-1,33
 1154 532 1154 532 1139 448 c 257,34,35
 1124 363 1124 363 1084 293.5 c 128,-1,36
 1044 224 1044 224 986.5 170 c 128,-1,37
 929 116 929 116 857.5 77.5 c 128,-1,38
 786 39 786 39 708 16 c 257,39,-1
 671 -190 l 257,40,-1
NamedP: "sv01"
 381 -190 l 257,41,-1
NamedP: "av01"
 412 -14 l 257,0,1
NamedP: "hr00"
850 430 m 257,42,43
NamedP: "mh01"
 859 484 859 484 833 524 c 128,-1,44
 807 564 807 564 762 596 c 257,45,-1
 701 249 l 257,46,47
 727 258 727 258 751 272.5 c 128,-1,48
 775 287 775 287 794.5 308.5 c 128,-1,49
 814 330 814 330 828.5 360 c 128,-1,50
 843 390 843 390 850 430 c 257,42,43
NamedP: "mh01"
549 1125 m 257,51,52
NamedP: "mh02"
 544 1096 544 1096 549 1073 c 128,-1,53
 554 1050 554 1050 567.5 1031.5 c 128,-1,54
 581 1013 581 1013 600.5 998.5 c 128,-1,55
 620 984 620 984 644 972 c 257,56,-1
 696 1268 l 257,57,58
 670 1260 670 1260 646 1248.5 c 128,-1,59
 622 1237 622 1237 602 1219.5 c 128,-1,60
 582 1202 582 1202 568 1178.5 c 128,-1,61
 554 1155 554 1155 549 1125 c 257,51,52
NamedP: "mh02"
EndSplineSet
PickledDataWithLists: "(dp0
Vcom.adobe.type.autohint
p1
(c_codecs
encode
p2
(Vdata
p3
Vlatin1
p4
tp5
Rp6
g2
(V<data>\\u000a        <hintSetList>\\u000a          <hintset pointTag=\"hr00\">\\u000a            <hstem pos=\"-17\" width=\"165\"/>\\u000a            <hstem pos=\"1352\" width=\"165\"/>\\u000a            <hstem pos=\"1719\" width=\"-20\"/>\\u000a            <vstem pos=\"111\" width=\"204\"/>\\u000a            <vstem pos=\"805\" width=\"204\"/>\\u000a          </hintset>\\u000a        </hintSetList>\\u000a      </data>
p7
g4
tp8
Rp9
Ntp10
sVcom.fontlab.ttprogram
p11
(g2
(Vdata
p12
g4
tp13
Rp14
g2
(V<data>\\u000a        <ttProgram>\\u000a          <ttc code=\"mdeltah\" delta=\"2\" point=\"mh01\" ppm1=\"13\" ppm2=\"13\"/>\\u000a          <ttc code=\"mdeltah\" delta=\"-1\" point=\"mh02\" ppm1=\"13\" ppm2=\"13\"/>\\u000a          <ttc align=\"round\" code=\"alignv\" point=\"av01\"/>\\u000a          <ttc align=\"round\" code=\"alignv\" point=\"av02\"/>\\u000a          <ttc code=\"singlev\" point1=\"av01\" point2=\"sv01\"/>\\u000a        </ttProgram>\\u000a      </data>
p15
g4
tp16
Rp17
Ntp18
s."
EndChar
StartChar: quotesingle
Encoding: 403 39 403
GlifName: quotesingle
Width: 1300
VWidth: 0
Flags: W
LayerCount: 2
Fore
SplineSet
300 1500 m 257,0,-1
NamedP: "at01"
 570 1500 l 257,1,-1
NamedP: "sv01"
 546 1367 l 257,2,3
 540 1331 540 1331 527 1298.5 c 128,-1,4
 514 1266 514 1266 491.5 1231.5 c 128,-1,5
 469 1197 469 1197 435 1157.5 c 128,-1,6
 401 1118 401 1118 352 1068 c 257,7,-1
NamedP: "sv02"
 213 1068 l 257,8,9
NamedP: "av01"
 230 1148 230 1148 247.5 1224.5 c 128,-1,10
 265 1301 265 1301 276 1367 c 257,11,-1
 300 1500 l 257,0,-1
NamedP: "at01"
EndSplineSet
PickledDataWithLists: "(dp0
Vcom.adobe.type.autohint
p1
(c_codecs
encode
p2
(Vdata
p3
Vlatin1
p4
tp5
Rp6
g2
(V<data>\\u000a        <hintSetList>\\u000a          <hintset pointTag=\"at01\">\\u000a            <hstem pos=\"1088\" width=\"-21\"/>\\u000a            <hstem pos=\"1500\" width=\"-20\"/>\\u000a            <vstem pos=\"150\" width=\"175\"/>\\u000a          </hintset>\\u000a        </hintSetList>\\u000a      </data>
p7
g4
tp8
Rp9
Ntp10
sVcom.fontlab.ttprogram
p11
(g2
(Vdata
p12
g4
tp13
Rp14
g2
(V<data>\\u000a        <ttProgram>\\u000a          <ttc align=\"round\" code=\"alignv\" point=\"av01\"/>\\u000a          <ttc code=\"alignt\" point=\"at01\" zone=\"t: 1\"/>\\u000a          <ttc code=\"singlev\" point1=\"at01\" point2=\"sv01\"/>\\u000a          <ttc code=\"singlev\" point1=\"av01\" point2=\"sv02\"/>\\u000a        </ttProgram>\\u000a      </data>
p15
g4
tp16
Rp17
Ntp18
s."
EndChar
StartChar: parenright
Encoding: 366 41 366
GlifName: parenright
Width: 1300
VWidth: 0
Flags: W
LayerCount: 2
Fore
SplineSet
824 38 m 257,0,1
NamedP: "hr00"
 807 -55 807 -55 782.5 -138 c 128,-1,2
 758 -221 758 -221 711.5 -284 c 128,-1,3
 665 -347 665 -347 591 -383.5 c 128,-1,4
 517 -420 517 -420 403 -420 c 257,5,6
NamedP: "av02"
 378 -420 378 -420 350.5 -416.5 c 128,-1,7
 323 -413 323 -413 296 -406 c 128,-1,8
 269 -399 269 -399 244 -388.5 c 128,-1,9
 219 -378 219 -378 201 -365 c 257,10,-1
 320 -245 l 257,11,12
 335 -245 335 -245 358 -241.5 c 128,-1,13
 381 -238 381 -238 406 -219 c 128,-1,14
 431 -200 431 -200 453 -159.5 c 128,-1,15
 475 -119 475 -119 488 -46 c 257,16,-1
NamedP: "ah01"
 713 1227 l 257,17,18
 725 1298 725 1298 717 1339 c 128,-1,19
 709 1380 709 1380 691 1400.5 c 128,-1,20
 673 1421 673 1421 649.5 1426 c 128,-1,21
 626 1431 626 1431 608 1431 c 257,22,-1
 538 1545 l 257,23,24
 561 1558 561 1558 589 1568.5 c 128,-1,25
 617 1579 617 1579 647 1586 c 128,-1,26
 677 1593 677 1593 706 1596.5 c 128,-1,27
 735 1600 735 1600 760 1600 c 257,28,29
NamedP: "av01"
 874 1600 874 1600 935.5 1566 c 128,-1,30
 997 1532 997 1532 1021.5 1472 c 128,-1,31
 1046 1412 1046 1412 1042 1331.5 c 128,-1,32
 1038 1251 1038 1251 1022 1158 c 257,33,-1
 824 38 l 257,0,1
NamedP: "hr00"
EndSplineSet
PickledDataWithLists: "(dp0
Vcom.adobe.type.autohint
p1
(c_codecs
encode
p2
(Vdata
p3
Vlatin1
p4
tp5
Rp6
g2
(V<data>\\u000a        <hintSetList>\\u000a          <hintset pointTag=\"hr00\">\\u000a            <hstem pos=\"-420\" width=\"146\"/>\\u000a            <hstem pos=\"1374\" width=\"146\"/>\\u000a            <vstem pos=\"499\" width=\"200\"/>\\u000a          </hintset>\\u000a        </hintSetList>\\u000a      </data>
p7
g4
tp8
Rp9
Ntp10
sVcom.fontlab.ttprogram
p11
(g2
(Vdata
p12
g4
tp13
Rp14
g2
(V<data>\\u000a        <ttProgram>\\u000a          <ttc align=\"round\" code=\"alignh\" point=\"ah01\"/>\\u000a          <ttc align=\"round\" code=\"alignv\" point=\"av01\"/>\\u000a          <ttc align=\"round\" code=\"alignv\" point=\"av02\"/>\\u000a        </ttProgram>\\u000a      </data>
p15
g4
tp16
Rp17
Ntp18
s."
EndChar
StartChar: asterisk
Encoding: 125 42 125
GlifName: asterisk
Width: 1300
VWidth: 0
Flags: W
LayerCount: 2
Fore
SplineSet
884 926 m 257,0,-1
 954 805 l 257,1,-1
 760 654 l 257,2,-1
 673 800 l 257,3,-1
 652 990 l 257,4,-1
 568 800 l 257,5,-1
 442 656 l 257,6,-1
 265 781 l 257,7,-1
 417 950 l 257,8,-1
 594 1041 l 257,9,-1
 384 1041 l 257,10,-1
 241 1090 l 257,11,-1
 324 1309 l 257,12,-1
 500 1259 l 257,13,-1
 635 1120 l 257,14,-1
 602 1315 l 257,15,-1
NamedP: "mh01"
 625 1446 l 257,16,-1
 858 1470 l 257,17,-1
 830 1309 l 257,18,-1
 719 1117 l 257,19,-1
 889 1247 l 257,20,-1
 1041 1294 l 257,21,-1
 1098 1083 l 257,22,-1
 952 1037 l 257,23,-1
 729 1037 l 257,24,-1
 884 926 l 257,0,-1
EndSplineSet
PickledDataWithLists: "(dp0
Vcom.fontlab.ttprogram
p1
(c_codecs
encode
p2
(Vdata
p3
Vlatin1
p4
tp5
Rp6
g2
(V<data>\\u000a        <ttProgram>\\u000a          <ttc code=\"mdeltah\" delta=\"2\" point=\"mh01\" ppm1=\"14\" ppm2=\"14\"/>\\u000a        </ttProgram>\\u000a      </data>
p7
g4
tp8
Rp9
Ntp10
s."
EndChar
StartChar: zero
Encoding: 585 48 585
GlifName: zero
Width: 1300
VWidth: 0
Flags: W
LayerCount: 2
Fore
SplineSet
512 -16 m 261,0,1
NamedP: "ab01"
 419 -16 419 -16 347 16.5 c 132,-1,2
 275 49 275 49 222.5 105 c 132,-1,3
 170 161 170 161 137 236 c 132,-1,4
 104 311 104 311 87.5 396 c 132,-1,5
 71 481 71 481 71.5 572 c 132,-1,6
 72 663 72 663 88 750 c 261,7,8
NamedP: "ah01"
 104 840 104 840 133 931.5 c 132,-1,9
 162 1023 162 1023 205.5 1108.5 c 132,-1,10
 249 1194 249 1194 306.5 1268 c 132,-1,11
 364 1342 364 1342 436 1397.5 c 132,-1,12
 508 1453 508 1453 594.5 1484.5 c 132,-1,13
 681 1516 681 1516 783 1516 c 261,14,15
NamedP: "at01"
 876 1516 876 1516 948 1483.5 c 132,-1,16
 1020 1451 1020 1451 1072.5 1395 c 132,-1,17
 1125 1339 1125 1339 1158.5 1264 c 132,-1,18
 1192 1189 1192 1189 1208 1104 c 132,-1,19
 1224 1019 1224 1019 1223.5 928 c 132,-1,20
 1223 837 1223 837 1208 750 c 261,21,22
NamedP: "ah04"
 1192 660 1192 660 1162.5 568.5 c 132,-1,23
 1133 477 1133 477 1089.5 391.5 c 132,-1,24
 1046 306 1046 306 988.5 232 c 132,-1,25
 931 158 931 158 859 102.5 c 132,-1,26
 787 47 787 47 700 15.5 c 132,-1,27
 613 -16 613 -16 512 -16 c 261,0,1
NamedP: "ab01"
422 791 m 261,28,29
NamedP: "ah02"
 413 740 413 740 406.5 678 c 132,-1,30
 400 616 400 616 399.5 553.5 c 132,-1,31
 399 491 399 491 406.5 432 c 132,-1,32
 414 373 414 373 432.5 327 c 132,-1,33
 451 281 451 281 482 253.5 c 132,-1,34
 513 226 513 226 561 226 c 261,35,36
 603 226 603 226 640 246.5 c 132,-1,37
 677 267 677 267 708 302.5 c 132,-1,38
 739 338 739 338 765 385.5 c 132,-1,39
 791 433 791 433 811.5 487 c 132,-1,40
 832 541 832 541 846.5 597.5 c 132,-1,41
 861 654 861 654 871 709 c 261,42,43
NamedP: "ah03"
 880 760 880 760 886.5 822 c 132,-1,44
 893 884 893 884 893.5 946.5 c 132,-1,45
 894 1009 894 1009 886.5 1068 c 132,-1,46
 879 1127 879 1127 860.5 1172.5 c 132,-1,47
 842 1218 842 1218 810.5 1245.5 c 132,-1,48
 779 1273 779 1273 731 1273 c 261,49,50
 689 1273 689 1273 652 1252.5 c 132,-1,51
 615 1232 615 1232 584 1196.5 c 132,-1,52
 553 1161 553 1161 527.5 1113.5 c 132,-1,53
 502 1066 502 1066 481.5 1012.5 c 132,-1,54
 461 959 461 959 446 902 c 132,-1,55
 431 845 431 845 422 791 c 261,28,29
NamedP: "ah02"
EndSplineSet
PickledDataWithLists: "(dp0
Vcom.adobe.type.autohint
p1
(c_codecs
encode
p2
(Vdata
p3
Vlatin1
p4
tp5
Rp6
g2
(V<data>\\u000a        <hintSetList>\\u000a          <hintset pointTag=\"ab01\">\\u000a            <hstem pos=\"1341\" width=\"176\"/>\\u000a            <vstem pos=\"100\" width=\"207\"/>\\u000a            <vstem pos=\"913\" width=\"207\"/>\\u000a          </hintset>\\u000a        </hintSetList>\\u000a      </data>
p7
g4
tp8
Rp9
Ntp10
sVcom.fontlab.ttprogram
p11
(g2
(Vdata
p12
g4
tp13
Rp14
g2
(V<data>\\u000a        <ttProgram>\\u000a          <ttc align=\"round\" code=\"alignh\" point=\"ah01\"/>\\u000a          <ttc align=\"round\" code=\"alignh\" point=\"ah02\"/>\\u000a          <ttc align=\"round\" code=\"alignh\" point=\"ah03\"/>\\u000a          <ttc align=\"round\" code=\"alignh\" point=\"ah04\"/>\\u000a          <ttc code=\"alignt\" point=\"at01\" zone=\"t: 1\"/>\\u000a          <ttc code=\"alignb\" point=\"ab01\" zone=\"b: 0\"/>\\u000a        </ttProgram>\\u000a      </data>
p15
g4
tp16
Rp17
Ntp18
s."
EndChar
StartChar: one
Encoding: 348 49 348
GlifName: one
Width: 1300
VWidth: 0
Flags: W
LayerCount: 2
Fore
SplineSet
616 880 m 257,0,-1
NamedP: "hr00"
 754 1243 l 257,1,-1
 479 972 l 257,2,-1
 382 898 l 257,3,-1
 259 1083 l 257,4,-1
 817 1520 l 257,5,-1
 1056 1500 l 257,6,-1
 827 200 l 257,7,-1
 1070 200 l 257,8,-1
 1034 0 l 257,9,-1
 217 0 l 257,10,-1
 253 200 l 257,11,-1
 496 200 l 257,12,-1
 616 880 l 257,0,-1
NamedP: "hr00"
EndSplineSet
PickledDataWithLists: "(dp0
Vcom.adobe.type.autohint
p1
(c_codecs
encode
p2
(Vdata
p3
Vlatin1
p4
tp5
Rp6
g2
(V<data>\\u000a        <hintSetList>\\u000a          <hintset pointTag=\"hr00\">\\u000a            <hstem pos=\"0\" width=\"160\"/>\\u000a            <hstem pos=\"1520\" width=\"-20\"/>\\u000a            <vstem pos=\"683\" width=\"210\"/>\\u000a          </hintset>\\u000a        </hintSetList>\\u000a      </data>
p7
g4
tp8
Rp9
Ntp10
s."
EndChar
StartChar: three
Encoding: 522 51 522
GlifName: three
Width: 1300
VWidth: 0
Flags: W
LayerCount: 2
Fore
SplineSet
361 938 m 257,0,1
NamedP: "hr00"
 394 959 394 959 440 989 c 128,-1,2
 486 1019 486 1019 539 1055 c 128,-1,3
 592 1091 592 1091 647.5 1130.5 c 128,-1,4
 703 1170 703 1170 754.5 1211.5 c 128,-1,5
 806 1253 806 1253 850.5 1294.5 c 128,-1,6
 895 1336 895 1336 926 1374 c 257,7,-1
 652 1300 l 257,8,-1
 321 1300 l 257,9,-1
 378 1500 l 257,10,-1
 1220 1500 l 257,11,-1
 1189 1327 l 257,12,13
 1144 1248 1144 1248 1074.5 1182 c 128,-1,14
 1005 1116 1005 1116 923 1052 c 257,15,-1
 752 969 l 257,16,17
 857 969 857 969 938.5 941.5 c 128,-1,18
 1020 914 1020 914 1072 863 c 128,-1,19
 1124 812 1124 812 1144.5 738.5 c 128,-1,20
 1165 665 1165 665 1149 573 c 257,21,22
 1131 474 1131 474 1076 393 c 128,-1,23
 1021 312 1021 312 939.5 248.5 c 128,-1,24
 858 185 858 185 755.5 138 c 128,-1,25
 653 91 653 91 540 60.5 c 128,-1,26
 427 30 427 30 310 15 c 128,-1,27
 193 0 193 0 82 0 c 257,28,-1
 118 200 l 257,29,30
 236 204 236 204 353 231 c 128,-1,31
 470 258 470 258 566 304.5 c 128,-1,32
 662 351 662 351 727 416.5 c 128,-1,33
 792 482 792 482 807 563 c 257,34,35
 817 621 817 621 799.5 660.5 c 128,-1,36
 782 700 782 700 744 724.5 c 128,-1,37
 706 749 706 749 652.5 759.5 c 128,-1,38
 599 770 599 770 537 770 c 257,39,40
 522 770 522 770 493 768.5 c 128,-1,41
 464 767 464 767 432.5 765.5 c 128,-1,42
 401 764 401 764 372.5 762.5 c 128,-1,43
 344 761 344 761 329 760 c 257,44,-1
 361 938 l 257,0,1
NamedP: "hr00"
EndSplineSet
PickledDataWithLists: "(dp0
Vcom.adobe.type.autohint
p1
(c_codecs
encode
p2
(Vdata
p3
Vlatin1
p4
tp5
Rp6
g2
(V<data>\\u000a        <hintSetList>\\u000a          <hintset pointTag=\"hr00\">\\u000a            <hstem pos=\"0\" width=\"160\"/>\\u000a            <hstem pos=\"790\" width=\"158\"/>\\u000a            <hstem pos=\"1340\" width=\"160\"/>\\u000a            <vstem pos=\"849\" width=\"210\"/>\\u000a          </hintset>\\u000a        </hintSetList>\\u000a      </data>
p7
g4
tp8
Rp9
Ntp10
s."
EndChar
StartChar: four
Encoding: 260 52 260
GlifName: four
Width: 1300
VWidth: 0
Flags: W
LayerCount: 2
Fore
SplineSet
1155 300 m 257,0,-1
NamedP: "hr00"
 977 300 l 257,1,-1
 924 0 l 257,2,-1
 603 0 l 257,3,-1
 656 300 l 257,4,-1
 96 300 l 257,5,-1
 132 500 l 257,6,-1
 805 1520 l 257,7,-1
 1082 1500 l 257,8,-1
 621 763 l 257,9,-1
 401 500 l 257,10,-1
 692 500 l 257,11,-1
 741 780 l 257,12,-1
 1066 800 l 257,13,-1
 1013 500 l 257,14,-1
 1212 500 l 257,15,-1
 1155 300 l 257,0,-1
NamedP: "hr00"
EndSplineSet
PickledDataWithLists: "(dp0
Vcom.adobe.type.autohint
p1
(c_codecs
encode
p2
(Vdata
p3
Vlatin1
p4
tp5
Rp6
g2
(V<data>\\u000a        <hintSetList>\\u000a          <hintset pointTag=\"hr00\">\\u000a            <hstem pos=\"21\" width=\"-21\"/>\\u000a            <hstem pos=\"300\" width=\"160\"/>\\u000a            <hstem pos=\"1520\" width=\"-20\"/>\\u000a            <vstem pos=\"696\" width=\"210\"/>\\u000a          </hintset>\\u000a        </hintSetList>\\u000a      </data>
p7
g4
tp8
Rp9
Ntp10
s."
EndChar
StartChar: six
Encoding: 447 54 447
GlifName: six
Width: 1300
VWidth: 0
Flags: W
LayerCount: 2
Fore
SplineSet
1132 1280 m 257,0,1
NamedP: "hr00"
 1109 1294 1109 1294 1078.5 1297 c 128,-1,2
 1048 1300 1048 1300 1024 1300 c 257,3,4
 955 1300 955 1300 875.5 1266.5 c 128,-1,5
 796 1233 796 1233 720 1169 c 128,-1,6
 644 1105 644 1105 579 1012 c 128,-1,7
 514 919 514 919 475 800 c 257,8,-1
 666 945 l 257,9,10
 724 956 724 956 769 956 c 257,11,12
 866 956 866 956 952 931.5 c 128,-1,13
 1038 907 1038 907 1099 854.5 c 128,-1,14
 1160 802 1160 802 1187.5 720.5 c 128,-1,15
 1215 639 1215 639 1195 525 c 257,16,17
 1175 414 1175 414 1118 315.5 c 128,-1,18
 1061 217 1061 217 975 143 c 128,-1,19
 889 69 889 69 779.5 26 c 128,-1,20
 670 -17 670 -17 547 -17 c 257,21,22
NamedP: "ab01"
 439 -17 439 -17 362 15 c 128,-1,23
 285 47 285 47 233 99.5 c 128,-1,24
 181 152 181 152 151 219.5 c 128,-1,25
 121 287 121 287 108 358.5 c 128,-1,26
 95 430 95 430 96.5 500 c 128,-1,27
 98 570 98 570 108 627 c 257,28,29
 129 745 129 745 174 857 c 128,-1,30
 219 969 219 969 285 1067.5 c 128,-1,31
 351 1166 351 1166 436 1249 c 128,-1,32
 521 1332 521 1332 621.5 1391.5 c 128,-1,33
 722 1451 722 1451 835.5 1484 c 128,-1,34
 949 1517 949 1517 1072 1517 c 257,35,36
NamedP: "at01"
 1090 1517 1090 1517 1123 1514.5 c 128,-1,37
 1156 1512 1156 1512 1204 1498 c 257,38,-1
 1132 1280 l 257,0,1
NamedP: "hr00"
720 756 m 257,39,40
NamedP: "av01"
 684 756 684 756 644.5 741 c 128,-1,41
 605 726 605 726 567.5 703 c 128,-1,42
 530 680 530 680 497 652.5 c 128,-1,43
 464 625 464 625 440 601 c 257,44,45
 435 575 435 575 432 553.5 c 128,-1,46
 429 532 429 532 427.5 512.5 c 128,-1,47
 426 493 426 493 426 474 c 128,-1,48
 426 455 426 455 428 434 c 257,49,50
 432 387 432 387 443.5 344.5 c 128,-1,51
 455 302 455 302 475.5 270 c 128,-1,52
 496 238 496 238 524 219 c 128,-1,53
 552 200 552 200 589 200 c 257,54,55
 643 200 643 200 688 228.5 c 128,-1,56
 733 257 733 257 767 302.5 c 128,-1,57
 801 348 801 348 823.5 404.5 c 128,-1,58
 846 461 846 461 856 516 c 257,59,60
 865 566 865 566 859 610 c 128,-1,61
 853 654 853 654 835 686.5 c 128,-1,62
 817 719 817 719 787.5 737.5 c 128,-1,63
 758 756 758 756 720 756 c 257,39,40
NamedP: "av01"
EndSplineSet
PickledDataWithLists: "(dp0
Vcom.adobe.type.autohint
p1
(c_codecs
encode
p2
(Vdata
p3
Vlatin1
p4
tp5
Rp6
g2
(V<data>\\u000a        <hintSetList>\\u000a          <hintset pointTag=\"hr00\">\\u000a            <hstem pos=\"-17\" width=\"170\"/>\\u000a            <hstem pos=\"757\" width=\"170\"/>\\u000a            <hstem pos=\"1347\" width=\"170\"/>\\u000a            <vstem pos=\"123\" width=\"206\"/>\\u000a            <vstem pos=\"922\" width=\"205\"/>\\u000a          </hintset>\\u000a        </hintSetList>\\u000a      </data>
p7
g4
tp8
Rp9
Ntp10
sVcom.fontlab.ttprogram
p11
(g2
(Vdata
p12
g4
tp13
Rp14
g2
(V<data>\\u000a        <ttProgram>\\u000a          <ttc align=\"round\" code=\"alignv\" point=\"av01\"/>\\u000a          <ttc code=\"alignt\" point=\"at01\" zone=\"t: 1\"/>\\u000a          <ttc code=\"alignb\" point=\"ab01\" zone=\"b: 0\"/>\\u000a        </ttProgram>\\u000a      </data>
p15
g4
tp16
Rp17
Ntp18
s."
EndChar
StartChar: eight
Encoding: 225 56 225
GlifName: eight
Width: 1300
VWidth: 0
Flags: W
LayerCount: 2
Fore
SplineSet
810 1517 m 257,0,1
NamedP: "at01"
 913 1517 913 1517 996 1490.5 c 128,-1,2
 1079 1464 1079 1464 1134 1414.5 c 128,-1,3
 1189 1365 1189 1365 1212.5 1294 c 128,-1,4
 1236 1223 1236 1223 1220 1134 c 257,5,6
 1211 1083 1211 1083 1183.5 1040 c 128,-1,7
 1156 997 1156 997 1118 961 c 128,-1,8
 1080 925 1080 925 1035 896 c 128,-1,9
 990 867 990 867 945 844 c 257,10,11
 1006 812 1006 812 1056 769.5 c 128,-1,12
 1106 727 1106 727 1140 674.5 c 128,-1,13
 1174 622 1174 622 1187.5 560 c 128,-1,14
 1201 498 1201 498 1189 427 c 257,15,16
 1168 312 1168 312 1105 228 c 128,-1,17
 1042 144 1042 144 953 89.5 c 128,-1,18
 864 35 864 35 757.5 9 c 128,-1,19
 651 -17 651 -17 545 -17 c 257,20,21
NamedP: "ab01"
 441 -17 441 -17 349 12.5 c 128,-1,22
 257 42 257 42 192 100 c 128,-1,23
 127 158 127 158 96.5 243.5 c 128,-1,24
 66 329 66 329 86 441 c 257,25,26
 98 512 98 512 130.5 573.5 c 128,-1,27
 163 635 163 635 210.5 686 c 128,-1,28
 258 737 258 737 318 777.5 c 128,-1,29
 378 818 378 818 446 848 c 257,30,31
 405 875 405 875 371 905.5 c 128,-1,32
 337 936 337 936 314 970 c 128,-1,33
 291 1004 291 1004 281 1042 c 128,-1,34
 271 1080 271 1080 279 1124 c 257,35,36
 291 1192 291 1192 321.5 1248 c 128,-1,37
 352 1304 352 1304 394 1347.5 c 128,-1,38
 436 1391 436 1391 487.5 1423 c 128,-1,39
 539 1455 539 1455 594 1476 c 128,-1,40
 649 1497 649 1497 704.5 1507 c 128,-1,41
 760 1517 760 1517 810 1517 c 257,0,1
NamedP: "at01"
863 422 m 257,42,43
 872 476 872 476 857 520 c 128,-1,44
 842 564 842 564 811.5 599.5 c 128,-1,45
 781 635 781 635 740.5 662.5 c 128,-1,46
 700 690 700 690 659 711 c 257,47,48
 612 690 612 690 570.5 662.5 c 128,-1,49
 529 635 529 635 495.5 599 c 128,-1,50
 462 563 462 563 439 519 c 128,-1,51
 416 475 416 475 406 421 c 257,52,53
 398 373 398 373 410 332 c 128,-1,54
 422 291 422 291 448 262 c 128,-1,55
 474 233 474 233 510 216.5 c 128,-1,56
 546 200 546 200 585 200 c 257,57,58
 630 200 630 200 676 215 c 128,-1,59
 722 230 722 230 760 258.5 c 128,-1,60
 798 287 798 287 826 328 c 128,-1,61
 854 369 854 369 863 422 c 257,42,43
605 1156 m 257,62,63
 599 1122 599 1122 608 1093.5 c 128,-1,64
 617 1065 617 1065 636.5 1041 c 128,-1,65
 656 1017 656 1017 682.5 998 c 128,-1,66
 709 979 709 979 739 964 c 257,67,68
 799 993 799 993 845.5 1041 c 128,-1,69
 892 1089 892 1089 903 1152 c 257,70,71
 910 1190 910 1190 900.5 1218 c 128,-1,72
 891 1246 891 1246 873 1264 c 128,-1,73
 855 1282 855 1282 832 1291 c 128,-1,74
 809 1300 809 1300 789 1300 c 257,75,76
 761 1300 761 1300 730.5 1289 c 128,-1,77
 700 1278 700 1278 674 1258.5 c 128,-1,78
 648 1239 648 1239 629 1212.5 c 128,-1,79
 610 1186 610 1186 605 1156 c 257,62,63
EndSplineSet
PickledDataWithLists: "(dp0
Vcom.adobe.type.autohint
p1
(c_codecs
encode
p2
(Vdata
p3
Vlatin1
p4
tp5
Rp6
g2
(V<data>\\u000a        <hintSetList/>\\u000a      </data>
p7
g4
tp8
Rp9
Ntp10
sVcom.fontlab.ttprogram
p11
(g2
(Vdata
p12
g4
tp13
Rp14
g2
(V<data>\\u000a        <ttProgram>\\u000a          <ttc code=\"alignt\" point=\"at01\" zone=\"t: 1\"/>\\u000a          <ttc code=\"alignb\" point=\"ab01\" zone=\"b: 0\"/>\\u000a        </ttProgram>\\u000a      </data>
p15
g4
tp16
Rp17
Ntp18
s."
EndChar
StartChar: nine
Encoding: 330 57 330
GlifName: nine
Width: 1300
VWidth: 0
Flags: W
LayerCount: 2
Fore
SplineSet
190 200 m 257,0,1
NamedP: "hr00"
 259 202 259 202 329.5 223 c 128,-1,2
 400 244 400 244 466 279 c 128,-1,3
 532 314 532 314 590.5 361.5 c 128,-1,4
 649 409 649 409 696 463.5 c 128,-1,5
 743 518 743 518 775 578 c 128,-1,6
 807 638 807 638 819 700 c 257,7,-1
 614 548 l 257,8,9
 598 546 598 546 581 545 c 128,-1,10
 564 544 564 544 547 544 c 257,11,12
 438 544 438 544 349 577.5 c 128,-1,13
 260 611 260 611 201 673 c 128,-1,14
 142 735 142 735 117.5 822.5 c 128,-1,15
 93 910 93 910 112 1017 c 257,16,17
 131 1128 131 1128 185.5 1220 c 128,-1,18
 240 1312 240 1312 322 1378 c 128,-1,19
 404 1444 404 1444 510.5 1480.5 c 128,-1,20
 617 1517 617 1517 741 1517 c 257,21,22
NamedP: "at01"
 851 1517 851 1517 929.5 1486 c 128,-1,23
 1008 1455 1008 1455 1060.5 1403.5 c 128,-1,24
 1113 1352 1113 1352 1142 1285 c 128,-1,25
 1171 1218 1171 1218 1183.5 1146.5 c 128,-1,26
 1196 1075 1196 1075 1194 1004 c 128,-1,27
 1192 933 1192 933 1181 873 c 257,28,29
 1150 696 1150 696 1066.5 540.5 c 128,-1,30
 983 385 983 385 855 266.5 c 128,-1,31
 727 148 727 148 559 73.5 c 128,-1,32
 391 -1 391 -1 190 -17 c 257,33,-1
NamedP: "ab01"
 190 200 l 257,0,1
NamedP: "hr00"
594 761 m 257,34,35
NamedP: "av01"
 628 761 628 761 666.5 777 c 128,-1,36
 705 793 705 793 742 819 c 128,-1,37
 779 845 779 845 811.5 878 c 128,-1,38
 844 911 844 911 866 945 c 257,39,40
 875 1008 875 1008 869.5 1071.5 c 128,-1,41
 864 1135 864 1135 844.5 1186 c 128,-1,42
 825 1237 825 1237 791 1268.5 c 128,-1,43
 757 1300 757 1300 709 1300 c 257,44,45
 662 1300 662 1300 618.5 1278.5 c 128,-1,46
 575 1257 575 1257 539.5 1221 c 128,-1,47
 504 1185 504 1185 479 1136.5 c 128,-1,48
 454 1088 454 1088 445 1034 c 257,49,50
 435 980 435 980 439.5 931 c 128,-1,51
 444 882 444 882 463 844 c 128,-1,52
 482 806 482 806 514.5 783.5 c 128,-1,53
 547 761 547 761 594 761 c 257,34,35
NamedP: "av01"
EndSplineSet
PickledDataWithLists: "(dp0
Vcom.adobe.type.autohint
p1
(c_codecs
encode
p2
(Vdata
p3
Vlatin1
p4
tp5
Rp6
g2
(V<data>\\u000a        <hintSetList>\\u000a          <hintset pointTag=\"hr00\">\\u000a            <hstem pos=\"-17\" width=\"167\"/>\\u000a            <hstem pos=\"573\" width=\"170\"/>\\u000a            <hstem pos=\"1347\" width=\"170\"/>\\u000a            <vstem pos=\"130\" width=\"204\"/>\\u000a            <vstem pos=\"917\" width=\"206\"/>\\u000a          </hintset>\\u000a        </hintSetList>\\u000a      </data>
p7
g4
tp8
Rp9
Ntp10
sVcom.fontlab.ttprogram
p11
(g2
(Vdata
p12
g4
tp13
Rp14
g2
(V<data>\\u000a        <ttProgram>\\u000a          <ttc align=\"round\" code=\"alignv\" point=\"av01\"/>\\u000a          <ttc code=\"alignt\" point=\"at01\" zone=\"t: 1\"/>\\u000a          <ttc code=\"alignb\" point=\"ab01\" zone=\"b: 0\"/>\\u000a        </ttProgram>\\u000a      </data>
p15
g4
tp16
Rp17
Ntp18
s."
EndChar
StartChar: colon
Encoding: 190 58 190
GlifName: colon
Width: 1300
VWidth: 0
Flags: W
LayerCount: 2
Fore
SplineSet
137 183 m 257,0,1
NamedP: "hr00"
 144 224 144 224 166 260 c 128,-1,2
 188 296 188 296 220 323 c 128,-1,3
 252 350 252 350 290 365.5 c 128,-1,4
 328 381 328 381 369 381 c 257,5,6
NamedP: "av03"
 410 381 410 381 443.5 365.5 c 128,-1,7
 477 350 477 350 499 323 c 128,-1,8
 521 296 521 296 530 260 c 128,-1,9
 539 224 539 224 532 183 c 257,10,11
 525 142 525 142 503 105.5 c 128,-1,12
 481 69 481 69 449.5 42 c 128,-1,13
 418 15 418 15 380 -1 c 128,-1,14
 342 -17 342 -17 301 -17 c 257,15,16
NamedP: "ab01"
 260 -17 260 -17 226 -1 c 128,-1,17
 192 15 192 15 170 42 c 128,-1,18
 148 69 148 69 139 105.5 c 128,-1,19
 130 142 130 142 137 183 c 257,0,1
NamedP: "hr00"
228 700 m 257,20,21
 235 741 235 741 257 777 c 128,-1,22
 279 813 279 813 311 840 c 128,-1,23
 343 867 343 867 381 882.5 c 128,-1,24
 419 898 419 898 460 898 c 257,25,26
NamedP: "av01"
 501 898 501 898 534.5 882.5 c 128,-1,27
 568 867 568 867 590 840 c 128,-1,28
 612 813 612 813 621 777 c 128,-1,29
 630 741 630 741 623 700 c 257,30,31
 616 659 616 659 594 622.5 c 128,-1,32
 572 586 572 586 541 559 c 128,-1,33
 510 532 510 532 471.5 516 c 128,-1,34
 433 500 433 500 392 500 c 257,35,36
NamedP: "av02"
 351 500 351 500 317.5 516 c 128,-1,37
 284 532 284 532 261.5 559 c 128,-1,38
 239 586 239 586 230 622.5 c 128,-1,39
 221 659 221 659 228 700 c 257,20,21
EndSplineSet
PickledDataWithLists: "(dp0
Vcom.adobe.type.autohint
p1
(c_codecs
encode
p2
(Vdata
p3
Vlatin1
p4
tp5
Rp6
g2
(V<data>\\u000a        <hintSetList>\\u000a          <hintset pointTag=\"hr00\">\\u000a            <hstem pos=\"-17\" width=\"218\"/>\\u000a            <hstem pos=\"480\" width=\"218\"/>\\u000a            <vstem pos=\"191\" width=\"216\"/>\\u000a          </hintset>\\u000a        </hintSetList>\\u000a      </data>
p7
g4
tp8
Rp9
Ntp10
sVcom.fontlab.ttprogram
p11
(g2
(Vdata
p12
g4
tp13
Rp14
g2
(V<data>\\u000a        <ttProgram>\\u000a          <ttc align=\"round\" code=\"alignv\" point=\"av01\"/>\\u000a          <ttc align=\"round\" code=\"alignv\" point=\"av02\"/>\\u000a          <ttc align=\"round\" code=\"alignv\" point=\"av03\"/>\\u000a          <ttc code=\"alignb\" point=\"ab01\" zone=\"b: 0\"/>\\u000a        </ttProgram>\\u000a      </data>
p15
g4
tp16
Rp17
Ntp18
s."
EndChar
StartChar: greater
Encoding: 269 62 269
GlifName: greater
Width: 1300
VWidth: 0
Flags: W
LayerCount: 2
Fore
SplineSet
1217 770 m 257,0,-1
 1177 545 l 257,1,-1
 80 34 l 257,2,-1
NamedP: "av02"
 127 302 l 257,3,-1
NamedP: "sv01"
 856 654 l 257,4,-1
NamedP: "iv01"
 252 1009 l 257,5,-1
NamedP: "sv02"
 299 1278 l 257,6,-1
NamedP: "av01"
 1217 770 l 257,0,-1
EndSplineSet
PickledDataWithLists: "(dp0
Vcom.fontlab.ttprogram
p1
(c_codecs
encode
p2
(Vdata
p3
Vlatin1
p4
tp5
Rp6
g2
(V<data>\\u000a        <ttProgram>\\u000a          <ttc align=\"round\" code=\"alignv\" point=\"av01\"/>\\u000a          <ttc align=\"round\" code=\"alignv\" point=\"av02\"/>\\u000a          <ttc code=\"singlev\" point1=\"av02\" point2=\"sv01\" stem=\"Y: 171\"/>\\u000a          <ttc code=\"interpolatev\" point=\"iv01\" point1=\"av01\" point2=\"av02\"/>\\u000a          <ttc code=\"singlev\" point1=\"av01\" point2=\"sv02\" stem=\"Y: 171\"/>\\u000a        </ttProgram>\\u000a      </data>
p7
g4
tp8
Rp9
Ntp10
s."
EndChar
StartChar: question
Encoding: 393 63 393
GlifName: question
Width: 1300
VWidth: 0
Flags: W
LayerCount: 2
Fore
SplineSet
1146 1124 m 257,0,1
 1135 1064 1135 1064 1107 1014.5 c 128,-1,2
 1079 965 1079 965 1039 922 c 128,-1,3
 999 879 999 879 950.5 841 c 128,-1,4
 902 803 902 803 852 765 c 257,5,6
 818 740 818 740 783.5 708.5 c 128,-1,7
 749 677 749 677 718.5 637 c 128,-1,8
 688 597 688 597 664.5 547 c 128,-1,9
 641 497 641 497 630 434 c 257,10,-1
NamedP: "av01"
 313 399 l 257,11,12
NamedP: "mh01"
 329 486 329 486 355 562 c 128,-1,13
 381 638 381 638 421.5 705 c 128,-1,14
 462 772 462 772 519.5 830.5 c 128,-1,15
 577 889 577 889 657 942 c 257,16,17
 683 961 683 961 707.5 981 c 128,-1,18
 732 1001 732 1001 752 1023.5 c 128,-1,19
 772 1046 772 1046 786.5 1072.5 c 128,-1,20
 801 1099 801 1099 807 1132 c 257,21,22
 814 1172 814 1172 804.5 1200.5 c 128,-1,23
 795 1229 795 1229 773.5 1247.5 c 128,-1,24
 752 1266 752 1266 721.5 1274.5 c 128,-1,25
 691 1283 691 1283 657 1283 c 257,26,27
 631 1283 631 1283 592 1274.5 c 128,-1,28
 553 1266 553 1266 507.5 1246.5 c 128,-1,29
 462 1227 462 1227 414 1195 c 128,-1,30
 366 1163 366 1163 323 1117 c 257,31,-1
 168 1268 l 257,32,33
 238 1344 238 1344 311.5 1392.5 c 128,-1,34
 385 1441 385 1441 457 1468.5 c 128,-1,35
 529 1496 529 1496 596.5 1506.5 c 128,-1,36
 664 1517 664 1517 723 1517 c 257,37,38
NamedP: "at01"
 818 1517 818 1517 902.5 1493.5 c 128,-1,39
 987 1470 987 1470 1047 1421.5 c 128,-1,40
 1107 1373 1107 1373 1135.5 1299 c 128,-1,41
 1164 1225 1164 1225 1146 1124 c 257,0,1
273 149 m 257,42,43
 279 183 279 183 296.5 212.5 c 128,-1,44
 314 242 314 242 340.5 264.5 c 128,-1,45
 367 287 367 287 398.5 300 c 128,-1,46
 430 313 430 313 464 313 c 257,47,48
NamedP: "av02"
 498 313 498 313 525.5 300 c 128,-1,49
 553 287 553 287 571.5 264.5 c 128,-1,50
 590 242 590 242 597.5 212.5 c 128,-1,51
 605 183 605 183 599 149 c 257,52,53
 593 116 593 116 575 85.5 c 128,-1,54
 557 55 557 55 531 32.5 c 128,-1,55
 505 10 505 10 473 -3.5 c 128,-1,56
 441 -17 441 -17 407 -17 c 257,57,58
NamedP: "ab01"
 374 -17 374 -17 346 -3.5 c 128,-1,59
 318 10 318 10 299.5 32.5 c 128,-1,60
 281 55 281 55 274 85.5 c 128,-1,61
 267 116 267 116 273 149 c 257,42,43
EndSplineSet
PickledDataWithLists: "(dp0
Vcom.fontlab.ttprogram
p1
(c_codecs
encode
p2
(Vdata
p3
Vlatin1
p4
tp5
Rp6
g2
(V<data>\\u000a        <ttProgram>\\u000a          <ttc code=\"mdeltah\" delta=\"5\" point=\"mh01\" ppm1=\"16\" ppm2=\"16\"/>\\u000a          <ttc align=\"round\" code=\"alignv\" point=\"av01\"/>\\u000a          <ttc align=\"round\" code=\"alignv\" point=\"av02\"/>\\u000a          <ttc code=\"alignt\" point=\"at01\" zone=\"t: 1\"/>\\u000a          <ttc code=\"alignb\" point=\"ab01\" zone=\"b: 0\"/>\\u000a          <ttc code=\"mdeltav\" delta=\"5\" point=\"av01\" ppm1=\"16\" ppm2=\"16\"/>\\u000a          <ttc code=\"mdeltav\" delta=\"7\" point=\"mh01\" ppm1=\"16\" ppm2=\"16\"/>\\u000a        </ttProgram>\\u000a      </data>
p7
g4
tp8
Rp9
Ntp10
s."
EndChar
StartChar: at
Encoding: 128 64 128
GlifName: at
Width: 1300
VWidth: 0
Flags: W
LayerCount: 2
Fore
SplineSet
728 636 m 257,0,-1
 783 774 l 257,1,2
 759 768 759 768 726 750 c 128,-1,3
 693 732 693 732 659 695.5 c 128,-1,4
 625 659 625 659 593 601 c 128,-1,5
 561 543 561 543 538 457 c 257,6,7
 518 381 518 381 511.5 329 c 128,-1,8
 505 277 505 277 508.5 244 c 128,-1,9
 512 211 512 211 524 194 c 128,-1,10
 536 177 536 177 551.5 171.5 c 128,-1,11
 567 166 567 166 585 169.5 c 128,-1,12
 603 173 603 173 619 181 c 257,13,-1
 728 636 l 257,0,-1
1052 570 m 257,14,15
 1068 652 1068 652 1077 734 c 128,-1,16
 1086 816 1086 816 1085.5 891.5 c 128,-1,17
 1085 967 1085 967 1073 1031.5 c 128,-1,18
 1061 1096 1061 1096 1035.5 1144 c 128,-1,19
 1010 1192 1010 1192 968.5 1219.5 c 128,-1,20
 927 1247 927 1247 868 1247 c 257,21,22
 808 1247 808 1247 746.5 1223.5 c 128,-1,23
 685 1200 685 1200 626 1159.5 c 128,-1,24
 567 1119 567 1119 513 1063.5 c 128,-1,25
 459 1008 459 1008 414 944.5 c 128,-1,26
 369 881 369 881 334.5 811.5 c 128,-1,27
 300 742 300 742 281 673 c 257,28,29
 256 584 256 584 240 487 c 128,-1,30
 224 390 224 390 221 297 c 128,-1,31
 218 204 218 204 230.5 120.5 c 128,-1,32
 243 37 243 37 275.5 -25.5 c 128,-1,33
 308 -88 308 -88 363 -125 c 128,-1,34
 418 -162 418 -162 499 -162 c 257,35,36
 514 -162 514 -162 540.5 -156.5 c 128,-1,37
 567 -151 567 -151 597.5 -139.5 c 128,-1,38
 628 -128 628 -128 660.5 -110 c 128,-1,39
 693 -92 693 -92 722 -66 c 257,40,-1
 656 -313 l 257,41,42
 640 -330 640 -330 612.5 -343 c 128,-1,43
 585 -356 585 -356 555 -364.5 c 128,-1,44
 525 -373 525 -373 496.5 -377.5 c 128,-1,45
 468 -382 468 -382 450 -382 c 257,46,47
NamedP: "av03"
 342 -382 342 -382 263 -340.5 c 128,-1,48
 184 -299 184 -299 130 -228.5 c 128,-1,49
 76 -158 76 -158 45.5 -64.5 c 128,-1,50
 15 29 15 29 3 132 c 128,-1,51
 -9 235 -9 235 -4.5 342 c 128,-1,52
 0 449 0 449 17 547 c 257,53,54
 39 673 39 673 82.5 790 c 128,-1,55
 126 907 126 907 187.5 1008.5 c 128,-1,56
 249 1110 249 1110 326.5 1193 c 128,-1,57
 404 1276 404 1276 494 1335.5 c 128,-1,58
 584 1395 584 1395 685 1427.5 c 128,-1,59
 786 1460 786 1460 894 1460 c 257,60,61
NamedP: "av01"
 995 1460 995 1460 1068.5 1424 c 128,-1,62
 1142 1388 1142 1388 1191.5 1323.5 c 128,-1,63
 1241 1259 1241 1259 1268.5 1170.5 c 128,-1,64
 1296 1082 1296 1082 1303.5 977.5 c 128,-1,65
NamedP: "ah02"
 1311 873 1311 873 1301 756 c 128,-1,66
 1291 639 1291 639 1266 519 c 257,67,68
 1236 375 1236 375 1188.5 271 c 128,-1,69
 1141 167 1141 167 1076.5 99.5 c 128,-1,70
 1012 32 1012 32 931 0 c 128,-1,71
 850 -32 850 -32 753 -32 c 257,72,73
NamedP: "ab02"
 728 -32 728 -32 707 -24.5 c 128,-1,74
 686 -17 686 -17 669 -4.5 c 128,-1,75
 652 8 652 8 639.5 24 c 128,-1,76
 627 40 627 40 621 57 c 257,77,-1
 555 -17 l 257,78,79
NamedP: "ab01"
 504 -17 504 -17 456.5 -3 c 128,-1,80
 409 11 409 11 374 50 c 128,-1,81
 339 89 339 89 321.5 159 c 128,-1,82
 304 229 304 229 314 340 c 257,83,84
NamedP: "ah01"
 324 447 324 447 353.5 536.5 c 128,-1,85
 383 626 383 626 426 697.5 c 128,-1,86
 469 769 469 769 521 822 c 128,-1,87
 573 875 573 875 628 910.5 c 128,-1,88
 683 946 683 946 736.5 963.5 c 128,-1,89
 790 981 790 981 836 981 c 257,90,91
NamedP: "av02"
 896 981 896 981 936.5 973 c 128,-1,92
 977 965 977 965 1001 952 c 257,93,-1
 835 249 l 257,94,95
 827 210 827 210 827.5 189.5 c 128,-1,96
 828 169 828 169 851 169 c 257,97,98
 868 169 868 169 894.5 196 c 128,-1,99
 921 223 921 223 950 274.5 c 128,-1,100
 979 326 979 326 1006.5 400.5 c 128,-1,101
 1034 475 1034 475 1052 570 c 257,14,15
EndSplineSet
PickledDataWithLists: "(dp0
Vcom.fontlab.ttprogram
p1
(c_codecs
encode
p2
(Vdata
p3
Vlatin1
p4
tp5
Rp6
g2
(V<data>\\u000a        <ttProgram>\\u000a          <ttc align=\"round\" code=\"alignh\" point=\"ah01\"/>\\u000a          <ttc align=\"round\" code=\"alignh\" point=\"ah02\"/>\\u000a          <ttc align=\"round\" code=\"alignv\" point=\"av01\"/>\\u000a          <ttc align=\"round\" code=\"alignv\" point=\"av02\"/>\\u000a          <ttc align=\"round\" code=\"alignv\" point=\"av03\"/>\\u000a          <ttc code=\"alignb\" point=\"ab01\" zone=\"b: 0\"/>\\u000a          <ttc code=\"alignb\" point=\"ab02\" zone=\"b: 0\"/>\\u000a        </ttProgram>\\u000a      </data>
p7
g4
tp8
Rp9
Ntp10
s."
EndChar
StartChar: C
Encoding: 12 67 12
GlifName: C_
Width: 1300
VWidth: 0
Flags: W
LayerCount: 2
Fore
SplineSet
1058 133 m 257,0,1
NamedP: "hr00"
 943 52 943 52 824 17.5 c 128,-1,2
 705 -17 705 -17 575 -17 c 257,3,4
NamedP: "ab01"
 472 -17 472 -17 387.5 11.5 c 128,-1,5
 303 40 303 40 238.5 91.5 c 128,-1,6
 174 143 174 143 129 215 c 128,-1,7
 84 287 84 287 60.5 374 c 128,-1,8
 37 461 37 461 34 561.5 c 128,-1,9
 31 662 31 662 50 769 c 257,10,11
 68 870 68 870 96 964.5 c 128,-1,12
 124 1059 124 1059 167 1142 c 128,-1,13
 210 1225 210 1225 270.5 1294 c 128,-1,14
 331 1363 331 1363 414 1412.5 c 128,-1,15
 497 1462 497 1462 605 1489.5 c 128,-1,16
 713 1517 713 1517 850 1517 c 257,17,18
NamedP: "at01"
 914 1517 914 1517 974.5 1505.5 c 128,-1,19
 1035 1494 1035 1494 1089 1472 c 128,-1,20
 1143 1450 1143 1450 1189 1418 c 128,-1,21
 1235 1386 1235 1386 1271 1344 c 257,22,-1
 1091 1160 l 257,23,24
 1062 1182 1062 1182 1029 1202 c 128,-1,25
 996 1222 996 1222 961.5 1237 c 128,-1,26
 927 1252 927 1252 891.5 1261 c 128,-1,27
 856 1270 856 1270 822 1270 c 257,28,29
 727 1270 727 1270 656 1231 c 128,-1,30
 585 1192 585 1192 534.5 1124.5 c 128,-1,31
 484 1057 484 1057 451 966 c 128,-1,32
 418 875 418 875 400 772 c 257,33,34
 389 711 389 711 386.5 647.5 c 128,-1,35
 384 584 384 584 391 524 c 128,-1,36
 398 464 398 464 416 411 c 128,-1,37
 434 358 434 358 464.5 318.5 c 128,-1,38
 495 279 495 279 539.5 256 c 128,-1,39
 584 233 584 233 643 233 c 257,40,41
 677 233 677 233 711 238.5 c 128,-1,42
 745 244 745 244 784 256.5 c 128,-1,43
 823 269 823 269 869.5 289.5 c 128,-1,44
 916 310 916 310 975 340 c 257,45,-1
 1058 133 l 257,0,1
NamedP: "hr00"
EndSplineSet
PickledDataWithLists: "(dp0
Vcom.adobe.type.autohint
p1
(c_codecs
encode
p2
(Vdata
p3
Vlatin1
p4
tp5
Rp6
g2
(V<data>\\u000a        <hintSetList>\\u000a          <hintset pointTag=\"hr00\">\\u000a            <hstem pos=\"-15\" width=\"298\"/>\\u000a            <hstem pos=\"1218\" width=\"297\"/>\\u000a            <vstem pos=\"84\" width=\"261\"/>\\u000a          </hintset>\\u000a        </hintSetList>\\u000a      </data>
p7
g4
tp8
Rp9
Ntp10
sVcom.fontlab.ttprogram
p11
(g2
(Vdata
p12
g4
tp13
Rp14
g2
(V<data>\\u000a        <ttProgram>\\u000a          <ttc code=\"alignt\" point=\"at01\" zone=\"t: 1\"/>\\u000a          <ttc code=\"alignb\" point=\"ab01\" zone=\"b: 0\"/>\\u000a        </ttProgram>\\u000a      </data>
p15
g4
tp16
Rp17
Ntp18
sVcom.typemytype.robofont.guides
p19
(lp20
(dp21
Vangle
p22
I0
sVisGlobal
p23
I00
sVmagnetic
p24
I5
sVx
p25
I0
sVy
p26
I233
sas."
EndChar
StartChar: F
Encoding: 26 70 26
GlifName: F_
Width: 1300
VWidth: 0
Flags: W
LayerCount: 2
Fore
SplineSet
383 0 m 257,0,-1
NamedP: "sv01"
 32 0 l 257,1,-1
NamedP: "ab01"
 255 1263 l 257,2,-1
 255 1500 l 257,3,-1
NamedP: "at01"
 1264 1500 l 257,4,-1
NamedP: "sv02"
 1197 1272 l 257,5,-1
NamedP: "mv01"
 593 1272 l 257,6,-1
 583 1134 l 257,7,-1
 545 916 l 257,8,-1
NamedP: "av01"
 1058 916 l 257,9,-1
NamedP: "sv03"
 1020 703 l 257,10,-1
 507 703 l 257,11,-1
 383 0 l 257,0,-1
NamedP: "sv01"
EndSplineSet
PickledDataWithLists: "(dp0
Vcom.adobe.type.autohint
p1
(c_codecs
encode
p2
(Vdata
p3
Vlatin1
p4
tp5
Rp6
g2
(V<data>\\u000a        <hintSetList>\\u000a          <hintset pointTag=\"sv01\">\\u000a            <hstem pos=\"19\" width=\"-21\"/>\\u000a            <hstem pos=\"669\" width=\"275\"/>\\u000a            <hstem pos=\"1211\" width=\"289\"/>\\u000a            <vstem pos=\"76\" width=\"262\"/>\\u000a          </hintset>\\u000a        </hintSetList>\\u000a      </data>
p7
g4
tp8
Rp9
Ntp10
sVcom.fontlab.ttprogram
p11
(g2
(Vdata
p12
g4
tp13
Rp14
g2
(V<data>\\u000a        <ttProgram>\\u000a          <ttc align=\"round\" code=\"alignv\" point=\"av01\"/>\\u000a          <ttc code=\"alignt\" point=\"at01\" zone=\"t: 1\"/>\\u000a          <ttc code=\"alignb\" point=\"ab01\" zone=\"b: 0\"/>\\u000a          <ttc code=\"singlev\" point1=\"ab01\" point2=\"sv01\"/>\\u000a          <ttc code=\"singlev\" point1=\"at01\" point2=\"sv02\"/>\\u000a          <ttc code=\"mdeltav\" delta=\"2\" point=\"mv01\" ppm1=\"12\" ppm2=\"12\"/>\\u000a          <ttc code=\"mdeltav\" delta=\"-2\" point=\"mv01\" ppm1=\"15\" ppm2=\"15\"/>\\u000a          <ttc code=\"singlev\" point1=\"av01\" point2=\"sv03\"/>\\u000a          <ttc code=\"mdeltav\" delta=\"-2\" point=\"sv03\" ppm1=\"12\" ppm2=\"12\"/>\\u000a          <ttc code=\"mdeltav\" delta=\"-2\" point=\"sv03\" ppm1=\"16\" ppm2=\"16\"/>\\u000a        </ttProgram>\\u000a      </data>
p15
g4
tp16
Rp17
Ntp18
s."
EndChar
StartChar: G
Encoding: 27 71 27
GlifName: G_
Width: 1300
VWidth: 0
Flags: W
LayerCount: 2
Fore
SplineSet
1157 221 m 257,0,1
NamedP: "hr00"
 1103 171 1103 171 1039.5 127.5 c 128,-1,2
 976 84 976 84 902.5 52 c 128,-1,3
 829 20 829 20 746.5 1.5 c 128,-1,4
 664 -17 664 -17 572 -17 c 257,5,6
NamedP: "ab01"
 417 -17 417 -17 305 45.5 c 128,-1,7
 193 108 193 108 126.5 215 c 128,-1,8
 60 322 60 322 39.5 465 c 128,-1,9
 19 608 19 608 47 769 c 257,10,11
 74 920 74 920 139 1056 c 128,-1,12
 204 1192 204 1192 306.5 1294.5 c 128,-1,13
 409 1397 409 1397 549 1457 c 128,-1,14
 689 1517 689 1517 865 1517 c 257,15,16
NamedP: "at01"
 994 1517 994 1517 1103.5 1472.5 c 128,-1,17
 1213 1428 1213 1428 1286 1344 c 257,18,-1
 1108 1170 l 257,19,20
 1079 1192 1079 1192 1046 1212 c 128,-1,21
 1013 1232 1013 1232 978.5 1247 c 128,-1,22
 944 1262 944 1262 908.5 1271 c 128,-1,23
 873 1280 873 1280 838 1280 c 257,24,25
 743 1280 743 1280 669.5 1239.5 c 128,-1,26
 596 1199 596 1199 542 1129.5 c 128,-1,27
 488 1060 488 1060 452 967.5 c 128,-1,28
 416 875 416 875 398 772 c 257,29,30
 387 711 387 711 384.5 646.5 c 128,-1,31
 382 582 382 582 388.5 520.5 c 128,-1,32
 395 459 395 459 413 405 c 128,-1,33
 431 351 431 351 461.5 310 c 128,-1,34
 492 269 492 269 535.5 245 c 128,-1,35
 579 221 579 221 639 221 c 257,36,37
 664 221 664 221 691.5 227 c 128,-1,38
 719 233 719 233 745 242.5 c 128,-1,39
 771 252 771 252 795 264 c 128,-1,40
 819 276 819 276 837 289 c 257,41,-1
 895 616 l 257,42,-1
 604 635 l 257,43,-1
 640 840 l 257,44,-1
NamedP: "av01"
 1266 840 l 257,45,-1
NamedP: "sv01"
 1157 221 l 257,0,1
NamedP: "hr00"
EndSplineSet
PickledDataWithLists: "(dp0
Vcom.adobe.type.autohint
p1
(c_codecs
encode
p2
(Vdata
p3
Vlatin1
p4
tp5
Rp6
g2
(V<data>\\u000a        <hintSetList>\\u000a          <hintset pointTag=\"hr00\">\\u000a            <hstem pos=\"-15\" width=\"298\"/>\\u000a            <hstem pos=\"583\" width=\"289\"/>\\u000a            <hstem pos=\"1218\" width=\"297\"/>\\u000a            <vstem pos=\"84\" width=\"262\"/>\\u000a            <vstem pos=\"917\" width=\"244\"/>\\u000a          </hintset>\\u000a        </hintSetList>\\u000a      </data>
p7
g4
tp8
Rp9
Ntp10
sVcom.fontlab.ttprogram
p11
(g2
(Vdata
p12
g4
tp13
Rp14
g2
(V<data>\\u000a        <ttProgram>\\u000a          <ttc align=\"round\" code=\"alignv\" point=\"av01\"/>\\u000a          <ttc code=\"alignt\" point=\"at01\" zone=\"t: 1\"/>\\u000a          <ttc code=\"alignb\" point=\"ab01\" zone=\"b: 0\"/>\\u000a          <ttc code=\"singlev\" point1=\"av01\" point2=\"sv01\"/>\\u000a        </ttProgram>\\u000a      </data>
p15
g4
tp16
Rp17
Ntp18
s."
EndChar
StartChar: I
Encoding: 30 73 30
GlifName: I_
Width: 1300
VWidth: 0
Flags: W
LayerCount: 2
Fore
SplineSet
347 1500 m 257,0,-1
NamedP: "at01"
 1225 1500 l 257,1,-1
NamedP: "sv01"
 1185 1272 l 257,2,-1
 912 1272 l 257,3,-1
 727 228 l 257,4,-1
 1028 228 l 257,5,-1
 953 0 l 257,6,-1
NamedP: "sv02"
 75 0 l 257,7,-1
NamedP: "ab01"
 115 228 l 257,8,-1
 393 228 l 257,9,-1
 578 1272 l 257,10,-1
 272 1272 l 257,11,-1
 347 1500 l 257,0,-1
NamedP: "at01"
EndSplineSet
PickledDataWithLists: "(dp0
Vcom.adobe.type.autohint
p1
(c_codecs
encode
p2
(Vdata
p3
Vlatin1
p4
tp5
Rp6
g2
(V<data>\\u000a        <hintSetList>\\u000a          <hintset pointTag=\"at01\">\\u000a            <hstem pos=\"19\" width=\"-21\"/>\\u000a            <hstem pos=\"1518\" width=\"-20\"/>\\u000a            <vstem pos=\"161\" width=\"262\"/>\\u000a          </hintset>\\u000a        </hintSetList>\\u000a      </data>
p7
g4
tp8
Rp9
Ntp10
sVcom.fontlab.ttprogram
p11
(g2
(Vdata
p12
g4
tp13
Rp14
g2
(V<data>\\u000a        <ttProgram>\\u000a          <ttc code=\"alignt\" point=\"at01\" zone=\"t: 1\"/>\\u000a          <ttc code=\"alignb\" point=\"ab01\" zone=\"b: 0\"/>\\u000a          <ttc code=\"singlev\" point1=\"at01\" point2=\"sv01\"/>\\u000a          <ttc code=\"singlev\" point1=\"ab01\" point2=\"sv02\"/>\\u000a        </ttProgram>\\u000a      </data>
p15
g4
tp16
Rp17
Ntp18
s."
EndChar
StartChar: K
Encoding: 38 75 38
GlifName: K_
Width: 1300
VWidth: 0
Flags: W
LayerCount: 2
Fore
SplineSet
8 0 m 257,0,-1
NamedP: "ab01"
 230 1263 l 257,1,-1
 230 1500 l 257,2,-1
NamedP: "at01"
 627 1520 l 257,3,-1
NamedP: "at02"
 541 1035 l 257,4,-1
 924 1500 l 257,5,-1
NamedP: "sv01"
 1292 1500 l 257,6,-1
 777 900 l 257,7,-1
 527 800 l 257,8,-1
 735 716 l 257,9,-1
 1138 0 l 257,10,-1
NamedP: "sv02"
 758 0 l 257,11,-1
 454 540 l 257,12,-1
 358 0 l 257,13,-1
 8 0 l 257,0,-1
NamedP: "ab01"
EndSplineSet
PickledDataWithLists: "(dp0
Vcom.adobe.type.autohint
p1
(c_codecs
encode
p2
(Vdata
p3
Vlatin1
p4
tp5
Rp6
g2
(V<data>\\u000a        <hintSetList>\\u000a          <hintset pointTag=\"ab01\">\\u000a            <hstem pos=\"1518\" width=\"-20\"/>\\u000a            <vstem pos=\"81\" width=\"262\"/>\\u000a          </hintset>\\u000a        </hintSetList>\\u000a      </data>
p7
g4
tp8
Rp9
Ntp10
sVcom.fontlab.ttprogram
p11
(g2
(Vdata
p12
g4
tp13
Rp14
g2
(V<data>\\u000a        <ttProgram>\\u000a          <ttc code=\"alignt\" point=\"at01\" zone=\"t: 1\"/>\\u000a          <ttc code=\"alignt\" point=\"at02\" zone=\"t: 1\"/>\\u000a          <ttc code=\"alignb\" point=\"ab01\" zone=\"b: 0\"/>\\u000a          <ttc code=\"singlev\" point1=\"at01\" point2=\"sv01\"/>\\u000a          <ttc code=\"singlev\" point1=\"ab01\" point2=\"sv02\"/>\\u000a        </ttProgram>\\u000a      </data>
p15
g4
tp16
Rp17
Ntp18
s."
EndChar
StartChar: L
Encoding: 40 76 40
GlifName: L_
Width: 1300
VWidth: 0
Flags: W
LayerCount: 2
Fore
SplineSet
507 228 m 257,0,-1
NamedP: "hr00"
 1197 228 l 257,1,-1
 1129 0 l 257,2,-1
NamedP: "ab01"
 104 0 l 257,3,-1
NamedP: "sv01"
 167 232 l 257,4,-1
 349 1263 l 257,5,-1
 349 1500 l 257,6,-1
 743 1520 l 257,7,-1
NamedP: "at01"
 538 360 l 257,8,-1
 507 228 l 257,0,-1
NamedP: "hr00"
EndSplineSet
PickledDataWithLists: "(dp0
Vcom.adobe.type.autohint
p1
(c_codecs
encode
p2
(Vdata
p3
Vlatin1
p4
tp5
Rp6
g2
(V<data>\\u000a        <hintSetList>\\u000a          <hintset pointTag=\"hr00\">\\u000a            <hstem pos=\"0\" width=\"228\"/>\\u000a            <hstem pos=\"1519\" width=\"-20\"/>\\u000a            <vstem pos=\"26\" width=\"351\"/>\\u000a          </hintset>\\u000a        </hintSetList>\\u000a      </data>
p7
g4
tp8
Rp9
Ntp10
sVcom.fontlab.ttprogram
p11
(g2
(Vdata
p12
g4
tp13
Rp14
g2
(V<data>\\u000a        <ttProgram>\\u000a          <ttc code=\"alignt\" point=\"at01\" zone=\"t: 1\"/>\\u000a          <ttc code=\"alignb\" point=\"ab01\" zone=\"b: 0\"/>\\u000a          <ttc code=\"singlev\" point1=\"ab01\" point2=\"sv01\"/>\\u000a        </ttProgram>\\u000a      </data>
p15
g4
tp16
Rp17
Ntp18
s."
EndChar
StartChar: O
Encoding: 48 79 48
GlifName: O_
Width: 1300
VWidth: 0
Flags: W
LayerCount: 2
Fore
SplineSet
514 -17 m 261,0,1
NamedP: "ab01"
 416 -17 416 -17 338.5 10.5 c 132,-1,2
 261 38 261 38 203.5 88.5 c 132,-1,3
 146 139 146 139 108 209 c 132,-1,4
 70 279 70 279 51 364.5 c 132,-1,5
 32 450 32 450 32 547.5 c 132,-1,6
 32 645 32 645 51 750 c 261,7,8
 69 855 69 855 103 952.5 c 132,-1,9
 137 1050 137 1050 185 1135.5 c 132,-1,10
 233 1221 233 1221 295 1291 c 132,-1,11
 357 1361 357 1361 432 1411.5 c 132,-1,12
 507 1462 507 1462 595.5 1489.5 c 132,-1,13
 684 1517 684 1517 785 1517 c 261,14,15
NamedP: "at01"
 932 1517 932 1517 1033 1456 c 132,-1,16
 1134 1395 1134 1395 1191 1291 c 132,-1,17
 1248 1187 1248 1187 1262 1047 c 132,-1,18
 1276 907 1276 907 1248 750 c 261,19,20
 1229 645 1229 645 1195.5 547.5 c 132,-1,21
 1162 450 1162 450 1114 364.5 c 132,-1,22
 1066 279 1066 279 1004 209 c 132,-1,23
 942 139 942 139 866.5 88.5 c 132,-1,24
 791 38 791 38 702.5 10.5 c 132,-1,25
 614 -17 614 -17 514 -17 c 261,0,1
NamedP: "ab01"
892 721 m 261,26,27
 903 783 903 783 911 848 c 132,-1,28
 919 913 919 913 920.5 974.5 c 132,-1,29
 922 1036 922 1036 914 1090.5 c 132,-1,30
 906 1145 906 1145 885 1185.5 c 132,-1,31
 864 1226 864 1226 828 1250 c 132,-1,32
 792 1274 792 1274 736 1274 c 261,33,34
 684 1274 684 1274 642 1252.5 c 132,-1,35
 600 1231 600 1231 566.5 1194.5 c 132,-1,36
 533 1158 533 1158 507.5 1109.5 c 132,-1,37
 482 1061 482 1061 462.5 1006.5 c 132,-1,38
 443 952 443 952 429 894.5 c 132,-1,39
 415 837 415 837 406 783 c 261,40,41
 395 720 395 720 387 654.5 c 132,-1,42
 379 589 379 589 378 527 c 132,-1,43
 377 465 377 465 385 410.5 c 132,-1,44
 393 356 393 356 414 315 c 132,-1,45
 435 274 435 274 471 250 c 132,-1,46
 507 226 507 226 562 226 c 261,47,48
 639 226 639 226 695 273 c 132,-1,49
 751 320 751 320 790 393 c 132,-1,50
 829 466 829 466 853.5 553 c 132,-1,51
 878 640 878 640 892 721 c 261,26,27
EndSplineSet
PickledDataWithLists: "(dp0
Vcom.adobe.type.autohint
p1
(c_codecs
encode
p2
(Vdata
p3
Vlatin1
p4
tp5
Rp6
g2
(V<data>\\u000a        <hintSetList>\\u000a          <hintset pointTag=\"ab01\">\\u000a            <hstem pos=\"-16\" width=\"237\"/>\\u000a            <hstem pos=\"1279\" width=\"237\"/>\\u000a            <vstem pos=\"83\" width=\"349\"/>\\u000a            <vstem pos=\"1169\" width=\"349\"/>\\u000a          </hintset>\\u000a        </hintSetList>\\u000a      </data>
p7
g4
tp8
Rp9
Ntp10
sVcom.fontlab.ttprogram
p11
(g2
(Vdata
p12
g4
tp13
Rp14
g2
(V<data>\\u000a        <ttProgram>\\u000a          <ttc code=\"alignt\" point=\"at01\" zone=\"t: 1\"/>\\u000a          <ttc code=\"alignb\" point=\"ab01\" zone=\"b: 0\"/>\\u000a        </ttProgram>\\u000a      </data>
p15
g4
tp16
Rp17
Ntp18
s."
EndChar
StartChar: Q
Encoding: 62 81 62
GlifName: Q_
Width: 1300
VWidth: 0
Flags: W
LayerCount: 2
Fore
SplineSet
398 783 m 257,0,1
NamedP: "hr00"
 389 723 389 723 380 659.5 c 128,-1,2
 371 596 371 596 367.5 535.5 c 128,-1,3
 364 475 364 475 369 421 c 128,-1,4
 374 367 374 367 393 326.5 c 128,-1,5
 412 286 412 286 447.5 262.5 c 128,-1,6
 483 239 483 239 541 239 c 257,7,8
 533 262 533 262 521 298.5 c 128,-1,9
 509 335 509 335 496.5 374 c 128,-1,10
 484 413 484 413 472.5 447.5 c 128,-1,11
 461 482 461 482 455 500 c 257,12,-1
 700 601 l 257,13,-1
 797 300 l 257,14,-1
 832 500 l 257,15,16
 850 548 850 548 870.5 609.5 c 128,-1,17
 891 671 891 671 905 751 c 257,18,19
 916 813 916 813 922.5 876 c 128,-1,20
 929 939 929 939 927.5 997.5 c 128,-1,21
 926 1056 926 1056 915.5 1107.5 c 128,-1,22
 905 1159 905 1159 882.5 1197 c 128,-1,23
 860 1235 860 1235 824 1257 c 128,-1,24
 788 1279 788 1279 736 1279 c 257,25,26
 687 1279 687 1279 645.5 1257.5 c 128,-1,27
 604 1236 604 1236 569.5 1199 c 128,-1,28
 535 1162 535 1162 507.5 1112.5 c 128,-1,29
 480 1063 480 1063 459 1008 c 128,-1,30
 438 953 438 953 422.5 895 c 128,-1,31
 407 837 407 837 398 783 c 257,0,1
NamedP: "hr00"
1035 -180 m 257,32,33
 939 -180 939 -180 869.5 -169.5 c 128,-1,34
 800 -159 800 -159 748 -129 c 128,-1,35
 696 -99 696 -99 657 -44 c 128,-1,36
 618 11 618 11 584 100 c 257,37,-1
 565 -11 l 257,38,39
 539 -14 539 -14 515 -15.5 c 128,-1,40
 491 -17 491 -17 466 -17 c 257,41,42
NamedP: "ab01"
 375 -17 375 -17 304 12 c 128,-1,43
 233 41 233 41 181 93 c 128,-1,44
 129 145 129 145 95.5 216.5 c 128,-1,45
 62 288 62 288 46 373.5 c 128,-1,46
 30 459 30 459 31.5 554.5 c 128,-1,47
 33 650 33 650 50 750 c 257,48,49
 68 855 68 855 102 952.5 c 128,-1,50
 136 1050 136 1050 184 1135.5 c 128,-1,51
 232 1221 232 1221 294 1291 c 128,-1,52
 356 1361 356 1361 431 1411.5 c 128,-1,53
 506 1462 506 1462 594.5 1489.5 c 128,-1,54
 683 1517 683 1517 784 1517 c 257,55,56
NamedP: "at01"
 931 1517 931 1517 1032.5 1461 c 128,-1,57
 1134 1405 1134 1405 1192 1306.5 c 128,-1,58
 1250 1208 1250 1208 1265 1073 c 128,-1,59
 1280 938 1280 938 1252 780 c 257,60,61
 1236 688 1236 688 1203 592.5 c 128,-1,62
 1170 497 1170 497 1122.5 410 c 128,-1,63
 1075 323 1075 323 1013.5 249.5 c 128,-1,64
 952 176 952 176 879 127 c 257,65,66
 892 97 892 97 914 81 c 128,-1,67
 936 65 936 65 962.5 58.5 c 128,-1,68
 989 52 989 52 1018.5 51 c 128,-1,69
 1048 50 1048 50 1075 50 c 257,70,-1
 1035 -180 l 257,32,33
EndSplineSet
PickledDataWithLists: "(dp0
Vcom.adobe.type.autohint
p1
(c_codecs
encode
p2
(Vdata
p3
Vlatin1
p4
tp5
Rp6
g2
(V<data>\\u000a        <hintSetList>\\u000a          <hintset pointTag=\"hr00\">\\u000a            <hstem pos=\"-16\" width=\"237\"/>\\u000a            <hstem pos=\"286\" width=\"212\"/>\\u000a            <hstem pos=\"1279\" width=\"237\"/>\\u000a            <vstem pos=\"83\" width=\"349\"/>\\u000a            <vstem pos=\"1169\" width=\"349\"/>\\u000a          </hintset>\\u000a        </hintSetList>\\u000a      </data>
p7
g4
tp8
Rp9
Ntp10
sVcom.fontlab.ttprogram
p11
(g2
(Vdata
p12
g4
tp13
Rp14
g2
(V<data>\\u000a        <ttProgram>\\u000a          <ttc code=\"alignt\" point=\"at01\" zone=\"t: 1\"/>\\u000a          <ttc code=\"alignb\" point=\"ab01\" zone=\"b: 0\"/>\\u000a        </ttProgram>\\u000a      </data>
p15
g4
tp16
Rp17
Ntp18
s."
EndChar
StartChar: Y
Encoding: 84 89 84
GlifName: Y_
Width: 1300
VWidth: 0
Flags: W
LayerCount: 2
Fore
SplineSet
518 1143 m 257,0,-1
NamedP: "hr00"
 560 773 l 257,1,-1
 683 1143 l 257,2,-1
 928 1500 l 257,3,-1
 1263 1500 l 257,4,-1
NamedP: "sv01"
 680 650 l 257,5,-1
 565 0 l 257,6,-1
NamedP: "sv02"
 214 0 l 257,7,-1
NamedP: "ab01"
 329 650 l 257,8,-1
 50 1500 l 257,9,-1
NamedP: "at01"
 393 1520 l 257,10,-1
NamedP: "at02"
 518 1143 l 257,0,-1
NamedP: "hr00"
EndSplineSet
PickledDataWithLists: "(dp0
Vcom.adobe.type.autohint
p1
(c_codecs
encode
p2
(Vdata
p3
Vlatin1
p4
tp5
Rp6
g2
(V<data>\\u000a        <hintSetList>\\u000a          <hintset pointTag=\"hr00\">\\u000a            <hstem pos=\"20\" width=\"-21\"/>\\u000a            <hstem pos=\"1519\" width=\"-20\"/>\\u000a            <vstem pos=\"439\" width=\"352\"/>\\u000a          </hintset>\\u000a        </hintSetList>\\u000a      </data>
p7
g4
tp8
Rp9
Ntp10
sVcom.fontlab.ttprogram
p11
(g2
(Vdata
p12
g4
tp13
Rp14
g2
(V<data>\\u000a        <ttProgram>\\u000a          <ttc code=\"alignt\" point=\"at01\" zone=\"t: 1\"/>\\u000a          <ttc code=\"alignt\" point=\"at02\" zone=\"t: 1\"/>\\u000a          <ttc code=\"alignb\" point=\"ab01\" zone=\"b: 0\"/>\\u000a          <ttc code=\"singlev\" point1=\"at01\" point2=\"sv01\"/>\\u000a          <ttc code=\"singlev\" point1=\"ab01\" point2=\"sv02\"/>\\u000a        </ttProgram>\\u000a      </data>
p15
g4
tp16
Rp17
Ntp18
s."
EndChar
StartChar: asciicircum
Encoding: 123 94 123
GlifName: asciicircum
Width: 1300
VWidth: 0
Flags: W
LayerCount: 2
Fore
SplineSet
1242 866 m 257,0,-1
NamedP: "sv01"
 942 866 l 257,1,-1
 701 1200 l 257,2,-1
 342 868 l 257,3,-1
 43 868 l 257,4,-1
NamedP: "av01"
 638 1500 l 257,5,-1
 850 1520 l 257,6,-1
 1242 866 l 257,0,-1
NamedP: "sv01"
EndSplineSet
PickledDataWithLists: "(dp0
Vcom.fontlab.ttprogram
p1
(c_codecs
encode
p2
(Vdata
p3
Vlatin1
p4
tp5
Rp6
g2
(V<data>\\u000a        <ttProgram>\\u000a          <ttc align=\"round\" code=\"alignv\" point=\"av01\"/>\\u000a          <ttc code=\"singlev\" point1=\"av01\" point2=\"sv01\"/>\\u000a        </ttProgram>\\u000a      </data>
p7
g4
tp8
Rp9
Ntp10
s."
EndChar
StartChar: a
Encoding: 89 97 89
GlifName: a
Width: 1300
VWidth: 0
Flags: W
LayerCount: 2
Fore
SplineSet
840 885 m 257,0,1
NamedP: "hr00"
 820 888 820 888 803 890 c 128,-1,2
 786 892 786 892 779 893 c 257,3,4
 704 893 704 893 646.5 862 c 128,-1,5
 589 831 589 831 548 779 c 128,-1,6
 507 727 507 727 482.5 657.5 c 128,-1,7
 458 588 458 588 450 510 c 257,8,9
 444 449 444 449 446.5 394.5 c 128,-1,10
 449 340 449 340 460 298.5 c 128,-1,11
 471 257 471 257 491.5 233 c 128,-1,12
 512 209 512 209 541 209 c 257,13,14
 575 209 575 209 605.5 220.5 c 128,-1,15
 636 232 636 232 662.5 250 c 128,-1,16
 689 268 689 268 709.5 289 c 128,-1,17
 730 310 730 310 745 329 c 257,18,-1
 840 885 l 257,0,1
NamedP: "hr00"
484 -16 m 257,19,20
NamedP: "ab01"
 407 -15 407 -15 350 8.5 c 128,-1,21
 293 32 293 32 252.5 72 c 128,-1,22
 212 112 212 112 187.5 165.5 c 128,-1,23
 163 219 163 219 151.5 280.5 c 128,-1,24
 140 342 140 342 139.5 409 c 128,-1,25
 139 476 139 476 148 542 c 257,26,27
 157 614 157 614 181 685 c 128,-1,28
 205 756 205 756 244.5 820 c 128,-1,29
 284 884 284 884 338.5 938.5 c 128,-1,30
 393 993 393 993 463.5 1032.5 c 128,-1,31
 534 1072 534 1072 621.5 1094.5 c 128,-1,32
 709 1117 709 1117 813 1117 c 257,33,34
NamedP: "at01"
 874 1116 874 1116 936 1108 c 257,35,36
 990 1101 990 1101 1053 1086 c 128,-1,37
 1116 1071 1116 1071 1174 1043 c 257,38,-1
 1031 209 l 257,39,-1
 1017 0 l 257,40,-1
NamedP: "sv01"
 695 0 l 257,41,-1
NamedP: "ab02"
 723 162 l 257,42,-1
 568 -10 l 257,43,44
 557 -12 557 -12 539 -14.5 c 128,-1,45
 521 -17 521 -17 484 -16 c 257,19,20
NamedP: "ab01"
EndSplineSet
PickledDataWithLists: "(dp0
Vcom.adobe.type.autohint
p1
(c_codecs
encode
p2
(Vdata
p3
Vlatin1
p4
tp5
Rp6
g2
(V<data>\\u000a        <hintSetList>\\u000a          <hintset pointTag=\"hr00\">\\u000a            <hstem pos=\"-16\" width=\"224\"/>\\u000a            <hstem pos=\"513\" width=\"223\"/>\\u000a            <hstem pos=\"892\" width=\"224\"/>\\u000a            <vstem pos=\"12\" width=\"327\"/>\\u000a            <vstem pos=\"609\" width=\"326\"/>\\u000a          </hintset>\\u000a        </hintSetList>\\u000a      </data>
p7
g4
tp8
Rp9
Ntp10
sVcom.fontlab.ttprogram
p11
(g2
(Vdata
p12
g4
tp13
Rp14
g2
(V<data>\\u000a        <ttProgram>\\u000a          <ttc code=\"alignt\" point=\"at01\" zone=\"t: x\"/>\\u000a          <ttc code=\"alignb\" point=\"ab01\" zone=\"b: 0\"/>\\u000a          <ttc code=\"alignb\" point=\"ab02\" zone=\"b: 0\"/>\\u000a          <ttc code=\"singlev\" point1=\"ab02\" point2=\"sv01\"/>\\u000a        </ttProgram>\\u000a      </data>
p15
g4
tp16
Rp17
Ntp18
s."
EndChar
StartChar: b
Encoding: 130 98 130
GlifName: b
Width: 1300
VWidth: 0
Flags: W
LayerCount: 2
Fore
SplineSet
454 212 m 257,0,1
NamedP: "hr00"
 483 207 483 207 515 203.5 c 128,-1,2
 547 200 547 200 577 200 c 257,3,4
 640 200 640 200 687 237.5 c 128,-1,5
 734 275 734 275 768 333.5 c 128,-1,6
 802 392 802 392 824 462.5 c 128,-1,7
 846 533 846 533 857 598 c 257,8,9
 872 680 872 680 870.5 737.5 c 128,-1,10
 869 795 869 795 855.5 831 c 128,-1,11
 842 867 842 867 818.5 883.5 c 128,-1,12
 795 900 795 900 767 900 c 257,13,14
 706 900 706 900 656.5 879 c 128,-1,15
 607 858 607 858 563 826 c 257,16,-1
 454 212 l 257,0,1
NamedP: "hr00"
337 1398 m 257,17,-1
 337 1601 l 257,18,-1
 705 1632 l 257,19,-1
NamedP: "av01"
 589 974 l 257,20,-1
 707 1096 l 257,21,22
 738 1104 738 1104 771.5 1110.5 c 128,-1,23
 805 1117 805 1117 833 1117 c 257,24,25
NamedP: "at01"
 925 1117 925 1117 999.5 1082.5 c 128,-1,26
 1074 1048 1074 1048 1122.5 981.5 c 128,-1,27
 1171 915 1171 915 1188.5 817 c 128,-1,28
 1206 719 1206 719 1184 593 c 257,29,30
 1160 456 1160 456 1099 343.5 c 128,-1,31
 1038 231 1038 231 951 151 c 128,-1,32
 864 71 864 71 756 27 c 128,-1,33
 648 -17 648 -17 530 -17 c 257,34,35
NamedP: "ab01"
 466 -17 466 -17 401.5 -10.5 c 128,-1,36
 337 -4 337 -4 279.5 6 c 128,-1,37
 222 16 222 16 175 29 c 128,-1,38
 128 42 128 42 100 54 c 257,39,-1
 337 1398 l 257,17,-1
EndSplineSet
PickledDataWithLists: "(dp0
Vcom.adobe.type.autohint
p1
(c_codecs
encode
p2
(Vdata
p3
Vlatin1
p4
tp5
Rp6
g2
(V<data>\\u000a        <hintSetList>\\u000a          <hintset pointTag=\"hr00\">\\u000a            <hstem pos=\"-17\" width=\"160\"/>\\u000a            <hstem pos=\"957\" width=\"160\"/>\\u000a            <hstem pos=\"1620\" width=\"-20\"/>\\u000a            <vstem pos=\"101\" width=\"190\"/>\\u000a            <vstem pos=\"811\" width=\"190\"/>\\u000a          </hintset>\\u000a        </hintSetList>\\u000a      </data>
p7
g4
tp8
Rp9
Ntp10
sVcom.fontlab.ttprogram
p11
(g2
(Vdata
p12
g4
tp13
Rp14
g2
(V<data>\\u000a        <ttProgram>\\u000a          <ttc align=\"round\" code=\"alignv\" point=\"av01\"/>\\u000a          <ttc code=\"alignt\" point=\"at01\" zone=\"t: x\"/>\\u000a          <ttc code=\"alignb\" point=\"ab01\" zone=\"b: 0\"/>\\u000a        </ttProgram>\\u000a      </data>
p15
g4
tp16
Rp17
Ntp18
s."
EndChar
StartChar: c
Encoding: 164 99 164
GlifName: c
Width: 1300
VWidth: 0
Flags: W
LayerCount: 2
Fore
SplineSet
1007 772 m 257,0,1
NamedP: "hr00"
 970 833 970 833 916 859 c 128,-1,2
 862 885 862 885 785 885 c 257,3,4
 724 885 724 885 663.5 861.5 c 128,-1,5
 603 838 603 838 552.5 795 c 128,-1,6
 502 752 502 752 465.5 690.5 c 128,-1,7
 429 629 429 629 416 553 c 257,8,9
 404 484 404 484 420.5 425.5 c 128,-1,10
 437 367 437 367 473.5 325 c 128,-1,11
 510 283 510 283 561.5 259.5 c 128,-1,12
 613 236 613 236 671 236 c 257,13,14
 723 236 723 236 767 245.5 c 128,-1,15
 811 255 811 255 848 271.5 c 128,-1,16
 885 288 885 288 914 309 c 128,-1,17
 943 330 943 330 965 353 c 257,18,-1
 1051 137 l 257,19,20
 1030 121 1030 121 990 95 c 128,-1,21
 950 69 950 69 892.5 44 c 128,-1,22
 835 19 835 19 760 1 c 128,-1,23
 685 -17 685 -17 594 -17 c 257,24,25
NamedP: "ab01"
 461 -17 461 -17 360.5 29 c 128,-1,26
 260 75 260 75 196.5 153.5 c 128,-1,27
 133 232 133 232 109.5 336 c 128,-1,28
 86 440 86 440 106 555 c 257,29,30
 118 624 118 624 142.5 693 c 128,-1,31
 167 762 167 762 206 824.5 c 128,-1,32
 245 887 245 887 300 940.5 c 128,-1,33
 355 994 355 994 427.5 1033 c 128,-1,34
 500 1072 500 1072 592 1094.5 c 128,-1,35
 684 1117 684 1117 797 1117 c 257,36,37
NamedP: "at01"
 931 1117 931 1117 1034.5 1079.5 c 128,-1,38
 1138 1042 1138 1042 1201 957 c 257,39,-1
 1007 772 l 257,0,1
NamedP: "hr00"
EndSplineSet
PickledDataWithLists: "(dp0
Vcom.adobe.type.autohint
p1
(c_codecs
encode
p2
(Vdata
p3
Vlatin1
p4
tp5
Rp6
g2
(V<data>\\u000a        <hintSetList>\\u000a          <hintset pointTag=\"hr00\">\\u000a            <hstem pos=\"-16\" width=\"232\"/>\\u000a            <hstem pos=\"892\" width=\"224\"/>\\u000a            <vstem pos=\"36\" width=\"331\"/>\\u000a          </hintset>\\u000a        </hintSetList>\\u000a      </data>
p7
g4
tp8
Rp9
Ntp10
sVcom.fontlab.ttprogram
p11
(g2
(Vdata
p12
g4
tp13
Rp14
g2
(V<data>\\u000a        <ttProgram>\\u000a          <ttc code=\"alignt\" point=\"at01\" zone=\"t: x\"/>\\u000a          <ttc code=\"alignb\" point=\"ab01\" zone=\"b: 0\"/>\\u000a        </ttProgram>\\u000a      </data>
p15
g4
tp16
Rp17
Ntp18
s."
EndChar
StartChar: f
Encoding: 245 102 245
GlifName: f
Width: 1300
VWidth: 0
Flags: W
LayerCount: 2
Fore
SplineSet
487 876 m 257,0,-1
NamedP: "hr00"
 231 876 l 257,1,-1
 270 1100 l 257,2,-1
NamedP: "at01"
 526 1100 l 257,3,-1
 551 1242 l 257,4,5
 570 1339 570 1339 603.5 1412 c 128,-1,6
 637 1485 637 1485 689 1533 c 128,-1,7
 741 1581 741 1581 814 1602 c 128,-1,8
 887 1623 887 1623 985 1617 c 257,9,10
NamedP: "av01"
 1037 1614 1037 1614 1082.5 1601.5 c 128,-1,11
 1128 1589 1128 1589 1165 1572.5 c 128,-1,12
 1202 1556 1202 1556 1231.5 1537 c 128,-1,13
 1261 1518 1261 1518 1282 1501 c 257,14,-1
 1118 1341 l 257,15,16
 1089 1361 1089 1361 1055 1374.5 c 128,-1,17
 1021 1388 1021 1388 977 1393 c 257,18,19
 951 1396 951 1396 930 1389.5 c 128,-1,20
 909 1383 909 1383 893.5 1364 c 128,-1,21
 878 1345 878 1345 866.5 1313 c 128,-1,22
 855 1281 855 1281 847 1233 c 257,23,-1
 823 1100 l 257,24,-1
 1120 1100 l 257,25,-1
NamedP: "sv01"
 1054 876 l 257,26,-1
 798 876 l 257,27,-1
 644 0 l 257,28,29
 624 -112 624 -112 596 -195.5 c 128,-1,30
 568 -279 568 -279 520.5 -333 c 128,-1,31
 473 -387 473 -387 399.5 -411 c 128,-1,32
 326 -435 326 -435 214 -428 c 257,33,34
NamedP: "av02"
 177 -426 177 -426 145 -419.5 c 128,-1,35
 113 -413 113 -413 87.5 -405.5 c 128,-1,36
 62 -398 62 -398 44 -390 c 128,-1,37
 26 -382 26 -382 16 -376 c 257,38,-1
 106 -179 l 257,39,40
 107 -179 107 -179 107.5 -179.5 c 128,-1,41
 108 -180 108 -180 109 -180 c 257,42,43
 128 -188 128 -188 151.5 -196 c 128,-1,44
 175 -204 175 -204 201 -202 c 257,45,46
 229 -199 229 -199 250 -184 c 128,-1,47
 271 -169 271 -169 286 -142.5 c 128,-1,48
 301 -116 301 -116 312 -80 c 128,-1,49
 323 -44 323 -44 333 0 c 257,50,-1
 487 876 l 257,0,-1
NamedP: "hr00"
EndSplineSet
PickledDataWithLists: "(dp0
Vcom.adobe.type.autohint
p1
(c_codecs
encode
p2
(Vdata
p3
Vlatin1
p4
tp5
Rp6
g2
(V<data>\\u000a        <hintSetList>\\u000a          <hintset pointTag=\"hr00\">\\u000a            <hstem pos=\"20\" width=\"-21\"/>\\u000a            <hstem pos=\"876\" width=\"224\"/>\\u000a            <hstem pos=\"1358\" width=\"224\"/>\\u000a            <vstem pos=\"134\" width=\"326\"/>\\u000a          </hintset>\\u000a        </hintSetList>\\u000a      </data>
p7
g4
tp8
Rp9
Ntp10
sVcom.fontlab.ttprogram
p11
(g2
(Vdata
p12
g4
tp13
Rp14
g2
(V<data>\\u000a        <ttProgram>\\u000a          <ttc align=\"round\" code=\"alignv\" point=\"av01\"/>\\u000a          <ttc align=\"round\" code=\"alignv\" point=\"av02\"/>\\u000a          <ttc code=\"alignt\" point=\"at01\" zone=\"t: x\"/>\\u000a          <ttc code=\"singlev\" point1=\"at01\" point2=\"sv01\"/>\\u000a        </ttProgram>\\u000a      </data>
p15
g4
tp16
Rp17
Ntp18
sVcom.typemytype.robofont.guides
p19
(lp20
(dp21
Vangle
p22
I0
sVisGlobal
p23
I00
sVmagnetic
p24
I5
sVx
p25
I0
sVy
p26
I3298
sas."
EndChar
StartChar: g
Encoding: 264 103 264
GlifName: g
Width: 1300
VWidth: 0
Flags: W
LayerCount: 2
Fore
SplineSet
727 16 m 257,0,1
NamedP: "hr00"
 692 2 692 2 642 -7.5 c 128,-1,2
 592 -17 592 -17 534 -17 c 257,3,4
NamedP: "ab01"
 433 -17 433 -17 347.5 27.5 c 128,-1,5
 262 72 262 72 204 148.5 c 128,-1,6
 146 225 146 225 121.5 327.5 c 128,-1,7
 97 430 97 430 117 545 c 257,8,9
 138 662 138 662 195.5 766 c 128,-1,10
 253 870 253 870 339 948 c 128,-1,11
 425 1026 425 1026 536.5 1071.5 c 128,-1,12
 648 1117 648 1117 777 1117 c 257,13,14
NamedP: "at02"
 795 1117 795 1117 807 1116.5 c 128,-1,15
 819 1116 819 1116 829 1114 c 257,16,-1
 892 958 l 257,17,-1
 921 1120 l 257,18,-1
NamedP: "at01"
 1243 1100 l 257,19,-1
 1042 -41 l 257,20,21
 1025 -140 1025 -140 972 -226.5 c 128,-1,22
 919 -313 919 -313 837 -377.5 c 128,-1,23
 755 -442 755 -442 649 -479.5 c 128,-1,24
 543 -517 543 -517 419 -517 c 257,25,26
NamedP: "ab02"
 353 -517 353 -517 301 -506.5 c 128,-1,27
 249 -496 249 -496 205.5 -476 c 128,-1,28
 162 -456 162 -456 126.5 -426.5 c 128,-1,29
 91 -397 91 -397 58 -359 c 257,30,-1
 231 -192 l 257,31,32
 244 -206 244 -206 267.5 -223 c 128,-1,33
 291 -240 291 -240 320 -256 c 128,-1,34
 349 -272 349 -272 382.5 -282.5 c 128,-1,35
 416 -293 416 -293 450 -293 c 257,36,37
 492 -293 492 -293 536 -272.5 c 128,-1,38
 580 -252 580 -252 617.5 -216 c 128,-1,39
 655 -180 655 -180 682.5 -131.5 c 128,-1,40
 710 -83 710 -83 720 -27 c 257,41,-1
 727 16 l 257,0,1
NamedP: "hr00"
868 820 m 257,42,43
 845 852 845 852 812 876 c 128,-1,44
 779 900 779 900 734 900 c 257,45,46
 674 900 674 900 624.5 864 c 128,-1,47
 575 828 575 828 538 773.5 c 128,-1,48
 501 719 501 719 476.5 655 c 128,-1,49
 452 591 452 591 442 534 c 257,50,51
 430 463 430 463 437.5 402 c 128,-1,52
 445 341 445 341 466 296 c 128,-1,53
 487 251 487 251 519 225.5 c 128,-1,54
 551 200 551 200 588 200 c 257,55,56
 647 200 647 200 691.5 225 c 128,-1,57
 736 250 736 250 774 287 c 257,58,-1
 868 820 l 257,42,43
EndSplineSet
PickledDataWithLists: "(dp0
Vcom.adobe.type.autohint
p1
(c_codecs
encode
p2
(Vdata
p3
Vlatin1
p4
tp5
Rp6
g2
(V<data>\\u000a        <hintSetList>\\u000a          <hintset pointTag=\"hr00\">\\u000a            <hstem pos=\"-517\" width=\"160\"/>\\u000a            <hstem pos=\"-17\" width=\"161\"/>\\u000a            <hstem pos=\"957\" width=\"160\"/>\\u000a            <vstem pos=\"100\" width=\"190\"/>\\u000a            <vstem pos=\"810\" width=\"190\"/>\\u000a          </hintset>\\u000a        </hintSetList>\\u000a      </data>
p7
g4
tp8
Rp9
Ntp10
sVcom.fontlab.ttprogram
p11
(g2
(Vdata
p12
g4
tp13
Rp14
g2
(V<data>\\u000a        <ttProgram>\\u000a          <ttc code=\"alignt\" point=\"at01\" zone=\"t: x\"/>\\u000a          <ttc code=\"alignt\" point=\"at02\" zone=\"t: x\"/>\\u000a          <ttc code=\"alignb\" point=\"ab01\" zone=\"b: 0\"/>\\u000a          <ttc code=\"alignb\" point=\"ab02\" zone=\"b: -500\"/>\\u000a        </ttProgram>\\u000a      </data>
p15
g4
tp16
Rp17
Ntp18
s."
EndChar
StartChar: h
Encoding: 275 104 275
GlifName: h
Width: 1300
VWidth: 0
Flags: W
LayerCount: 2
Fore
SplineSet
409 0 m 257,0,-1
NamedP: "hr00"
 92 0 l 257,1,-1
NamedP: "ab01"
 329 1339 l 257,2,-1
 329 1568 l 257,3,-1
 692 1600 l 257,4,-1
NamedP: "av01"
 586 1000 l 257,5,-1
 680 1100 l 257,6,7
 726 1110 726 1110 778 1113.5 c 128,-1,8
 830 1117 830 1117 894 1117 c 257,9,10
NamedP: "at01"
 1071 1117 1071 1117 1146 1014 c 128,-1,11
 1221 911 1221 911 1187 718 c 257,12,-1
 1060 0 l 257,13,-1
NamedP: "sv01"
 734 0 l 257,14,-1
 858 698 l 257,15,16
 867 750 867 750 861.5 787 c 128,-1,17
 856 824 856 824 841.5 847.5 c 128,-1,18
 827 871 827 871 805.5 881.5 c 128,-1,19
 784 892 784 892 762 892 c 257,20,21
 720 892 720 892 689 884.5 c 128,-1,22
 658 877 658 877 633.5 865 c 128,-1,23
 609 853 609 853 589.5 838 c 128,-1,24
 570 823 570 823 552 808 c 257,25,-1
 409 0 l 257,0,-1
NamedP: "hr00"
EndSplineSet
PickledDataWithLists: "(dp0
Vcom.adobe.type.autohint
p1
(c_codecs
encode
p2
(Vdata
p3
Vlatin1
p4
tp5
Rp6
g2
(V<data>\\u000a        <hintSetList>\\u000a          <hintset pointTag=\"hr00\">\\u000a            <hstem pos=\"20\" width=\"-21\"/>\\u000a            <hstem pos=\"892\" width=\"224\"/>\\u000a            <hstem pos=\"1585\" width=\"-20\"/>\\u000a            <vstem pos=\"134\" width=\"327\"/>\\u000a            <vstem pos=\"703\" width=\"326\"/>\\u000a          </hintset>\\u000a        </hintSetList>\\u000a      </data>
p7
g4
tp8
Rp9
Ntp10
sVcom.fontlab.ttprogram
p11
(g2
(Vdata
p12
g4
tp13
Rp14
g2
(V<data>\\u000a        <ttProgram>\\u000a          <ttc align=\"round\" code=\"alignv\" point=\"av01\"/>\\u000a          <ttc code=\"alignt\" point=\"at01\" zone=\"t: x\"/>\\u000a          <ttc code=\"alignb\" point=\"ab01\" zone=\"b: 0\"/>\\u000a          <ttc code=\"singlev\" point1=\"ab01\" point2=\"sv01\"/>\\u000a        </ttProgram>\\u000a      </data>
p15
g4
tp16
Rp17
Ntp18
s."
EndChar
StartChar: k
Encoding: 299 107 299
GlifName: k
Width: 1300
VWidth: 0
Flags: W
LayerCount: 2
Fore
SplineSet
103 0 m 257,0,-1
NamedP: "ab01"
 349 1397 l 257,1,-1
 349 1600 l 257,2,-1
 696 1631 l 257,3,-1
NamedP: "av01"
 544 769 l 257,4,-1
 868 1100 l 257,5,-1
NamedP: "at01"
 1209 1100 l 257,6,-1
NamedP: "sv01"
 776 700 l 257,7,-1
 559 627 l 257,8,-1
 737 564 l 257,9,-1
 1116 0 l 257,10,-1
NamedP: "sv02"
 768 0 l 257,11,-1
 489 458 l 257,12,-1
 409 0 l 257,13,-1
 103 0 l 257,0,-1
NamedP: "ab01"
EndSplineSet
PickledDataWithLists: "(dp0
Vcom.adobe.type.autohint
p1
(c_codecs
encode
p2
(Vdata
p3
Vlatin1
p4
tp5
Rp6
g2
(V<data>\\u000a        <hintSetList>\\u000a          <hintset pointTag=\"ab01\">\\u000a            <hstem pos=\"21\" width=\"-21\"/>\\u000a            <hstem pos=\"1100\" width=\"-20\"/>\\u000a            <hstem pos=\"1620\" width=\"-20\"/>\\u000a            <vstem pos=\"201\" width=\"190\"/>\\u000a          </hintset>\\u000a        </hintSetList>\\u000a      </data>
p7
g4
tp8
Rp9
Ntp10
sVcom.fontlab.ttprogram
p11
(g2
(Vdata
p12
g4
tp13
Rp14
g2
(V<data>\\u000a        <ttProgram>\\u000a          <ttc align=\"round\" code=\"alignv\" point=\"av01\"/>\\u000a          <ttc code=\"alignt\" point=\"at01\" zone=\"t: x\"/>\\u000a          <ttc code=\"alignb\" point=\"ab01\" zone=\"b: 0\"/>\\u000a          <ttc code=\"singlev\" point1=\"at01\" point2=\"sv01\"/>\\u000a          <ttc code=\"singlev\" point1=\"ab01\" point2=\"sv02\"/>\\u000a        </ttProgram>\\u000a      </data>
p15
g4
tp16
Rp17
Ntp18
s."
EndChar
StartChar: l
Encoding: 301 108 301
GlifName: l
Width: 1300
VWidth: 0
Flags: W
LayerCount: 2
Fore
SplineSet
646 1386 m 257,0,-1
NamedP: "hr00"
 482 1342 l 257,1,-1
 287 1342 l 257,2,-1
 287 1566 l 257,3,-1
NamedP: "av01"
 919 1566 l 257,4,-1
NamedP: "sv01"
 711 388 l 257,5,6
 702 337 702 337 706.5 302.5 c 128,-1,7
 711 268 711 268 723.5 247 c 128,-1,8
 736 226 736 226 755.5 217 c 128,-1,9
 775 208 775 208 796 208 c 257,10,11
 824 208 824 208 849 216.5 c 128,-1,12
 874 225 874 225 896 238 c 128,-1,13
 918 251 918 251 937.5 267.5 c 128,-1,14
 957 284 957 284 973 300 c 257,15,-1
 1047 107 l 257,16,17
 1035 98 1035 98 1011.5 77.5 c 128,-1,18
 988 57 988 57 950.5 36 c 128,-1,19
 913 15 913 15 860.5 -1 c 128,-1,20
 808 -17 808 -17 738 -17 c 257,21,22
NamedP: "ab01"
 630 -17 630 -17 558 17 c 128,-1,23
 486 51 486 51 445 109 c 128,-1,24
 404 167 404 167 393.5 245 c 128,-1,25
 383 323 383 323 398 410 c 257,26,-1
 549 1266 l 257,27,-1
 646 1386 l 257,0,-1
NamedP: "hr00"
EndSplineSet
PickledDataWithLists: "(dp0
Vcom.adobe.type.autohint
p1
(c_codecs
encode
p2
(Vdata
p3
Vlatin1
p4
tp5
Rp6
g2
(V<data>\\u000a        <hintSetList>\\u000a          <hintset pointTag=\"hr00\">\\u000a            <hstem pos=\"-16\" width=\"224\"/>\\u000a            <hstem pos=\"1585\" width=\"-20\"/>\\u000a            <vstem pos=\"134\" width=\"326\"/>\\u000a          </hintset>\\u000a        </hintSetList>\\u000a      </data>
p7
g4
tp8
Rp9
Ntp10
sVcom.fontlab.ttprogram
p11
(g2
(Vdata
p12
g4
tp13
Rp14
g2
(V<data>\\u000a        <ttProgram>\\u000a          <ttc align=\"round\" code=\"alignv\" point=\"av01\"/>\\u000a          <ttc code=\"alignb\" point=\"ab01\" zone=\"b: 0\"/>\\u000a          <ttc code=\"singlev\" point1=\"av01\" point2=\"sv01\"/>\\u000a        </ttProgram>\\u000a      </data>
p15
g4
tp16
Rp17
Ntp18
s."
EndChar
StartChar: t
Encoding: 514 116 514
GlifName: t
Width: 1300
VWidth: 0
Flags: W
LayerCount: 2
Fore
SplineSet
602 388 m 257,0,1
NamedP: "hr00"
 593 337 593 337 593 303.5 c 128,-1,2
 593 270 593 270 601.5 250 c 128,-1,3
 610 230 610 230 625.5 222 c 128,-1,4
 641 214 641 214 663 214 c 257,5,6
 717 214 717 214 759 224 c 128,-1,7
 801 234 801 234 834 249 c 128,-1,8
 867 264 867 264 892.5 282 c 128,-1,9
 918 300 918 300 939 316 c 257,10,-1
 1011 135 l 257,11,12
 996 124 996 124 959 99 c 128,-1,13
 922 74 922 74 863.5 48 c 128,-1,14
 805 22 805 22 725 2.5 c 128,-1,15
 645 -17 645 -17 545 -17 c 257,16,17
NamedP: "ab01"
 437 -17 437 -17 377.5 17 c 128,-1,18
 318 51 318 51 293.5 109 c 128,-1,19
 269 167 269 167 272 245 c 128,-1,20
 275 323 275 323 290 410 c 257,21,-1
 372 876 l 257,22,-1
 130 876 l 257,23,-1
 170 1100 l 257,24,-1
NamedP: "at01"
 412 1100 l 257,25,-1
 449 1310 l 257,26,-1
 780 1420 l 257,27,-1
NamedP: "av01"
 724 1100 l 257,28,-1
 1183 1100 l 257,29,-1
NamedP: "sv01"
 1116 876 l 257,30,-1
 688 876 l 257,31,-1
 602 388 l 257,0,1
NamedP: "hr00"
EndSplineSet
PickledDataWithLists: "(dp0
Vcom.adobe.type.autohint
p1
(c_codecs
encode
p2
(Vdata
p3
Vlatin1
p4
tp5
Rp6
g2
(V<data>\\u000a        <hintSetList>\\u000a          <hintset pointTag=\"hr00\">\\u000a            <hstem pos=\"-16\" width=\"224\"/>\\u000a            <hstem pos=\"876\" width=\"224\"/>\\u000a            <hstem pos=\"1398\" width=\"-20\"/>\\u000a            <vstem pos=\"132\" width=\"327\"/>\\u000a          </hintset>\\u000a        </hintSetList>\\u000a      </data>
p7
g4
tp8
Rp9
Ntp10
sVcom.fontlab.ttprogram
p11
(g2
(Vdata
p12
g4
tp13
Rp14
g2
(V<data>\\u000a        <ttProgram>\\u000a          <ttc align=\"round\" code=\"alignv\" point=\"av01\"/>\\u000a          <ttc code=\"alignt\" point=\"at01\" zone=\"t: x\"/>\\u000a          <ttc code=\"alignb\" point=\"ab01\" zone=\"b: 0\"/>\\u000a          <ttc code=\"singlev\" point1=\"at01\" point2=\"sv01\"/>\\u000a        </ttProgram>\\u000a      </data>
p15
g4
tp16
Rp17
Ntp18
s."
EndChar
StartChar: z
Encoding: 584 122 584
GlifName: z
Width: 1300
VWidth: 0
Flags: W
LayerCount: 2
Fore
SplineSet
683 200 m 257,0,-1
NamedP: "hr00"
 1056 200 l 257,1,-1
 1048 0 l 257,2,-1
NamedP: "sv01"
 145 0 l 257,3,-1
NamedP: "ab01"
 127 85 l 257,4,-1
 645 757 l 257,5,-1
 886 925 l 257,6,-1
 630 900 l 257,7,-1
 356 900 l 257,8,-1
 364 1100 l 257,9,-1
NamedP: "at01"
 1160 1100 l 257,10,-1
NamedP: "sv02"
 1178 1017 l 257,11,-1
 663 339 l 257,12,-1
 427 175 l 257,13,-1
 683 200 l 257,0,-1
NamedP: "hr00"
EndSplineSet
PickledDataWithLists: "(dp0
Vcom.adobe.type.autohint
p1
(c_codecs
encode
p2
(Vdata
p3
Vlatin1
p4
tp5
Rp6
g2
(V<data>\\u000a        <hintSetList>\\u000a          <hintset pointTag=\"hr00\">\\u000a            <hstem pos=\"0\" width=\"160\"/>\\u000a            <hstem pos=\"940\" width=\"160\"/>\\u000a          </hintset>\\u000a        </hintSetList>\\u000a      </data>
p7
g4
tp8
Rp9
Ntp10
sVcom.fontlab.ttprogram
p11
(g2
(Vdata
p12
g4
tp13
Rp14
g2
(V<data>\\u000a        <ttProgram>\\u000a          <ttc code=\"alignt\" point=\"at01\" zone=\"t: x\"/>\\u000a          <ttc code=\"alignb\" point=\"ab01\" zone=\"b: 0\"/>\\u000a          <ttc code=\"singlev\" point1=\"ab01\" point2=\"sv01\"/>\\u000a          <ttc code=\"singlev\" point1=\"at01\" point2=\"sv02\"/>\\u000a        </ttProgram>\\u000a      </data>
p15
g4
tp16
Rp17
Ntp18
s."
EndChar
StartChar: braceleft
Encoding: 156 123 156
GlifName: braceleft
Width: 1300
VWidth: 0
Flags: W
LayerCount: 2
Fore
SplineSet
1078 1260 m 257,0,1
NamedP: "hr00"
 1048 1280 1048 1280 1006.5 1292.5 c 128,-1,2
 965 1305 965 1305 930 1305 c 257,3,4
 900 1303 900 1303 879.5 1288.5 c 128,-1,5
 859 1274 859 1274 845 1248 c 128,-1,6
 831 1222 831 1222 821.5 1184.5 c 128,-1,7
 812 1147 812 1147 804 1099 c 257,8,-1
 762 864 l 257,9,10
 752 808 752 808 728 759 c 128,-1,11
 704 710 704 710 673 670.5 c 128,-1,12
 642 631 642 631 607.5 600.5 c 128,-1,13
 573 570 573 570 543 550 c 257,14,15
NamedP: "iv01"
 567 530 567 530 590.5 500 c 128,-1,16
 614 470 614 470 631 430 c 128,-1,17
 648 390 648 390 655 341.5 c 128,-1,18
 662 293 662 293 652 238 c 257,19,-1
NamedP: "mh01"
 609 -2 l 257,20,21
 601 -50 601 -50 597 -88 c 128,-1,22
 593 -126 593 -126 597.5 -153 c 128,-1,23
 602 -180 602 -180 617.5 -194 c 128,-1,24
 633 -208 633 -208 663 -208 c 257,25,26
 698 -208 698 -208 743.5 -195.5 c 128,-1,27
 789 -183 789 -183 827 -163 c 257,28,-1
 890 -348 l 257,29,30
 855 -363 855 -363 822 -376.5 c 128,-1,31
 789 -390 789 -390 753.5 -399.5 c 128,-1,32
 718 -409 718 -409 676.5 -414.5 c 128,-1,33
 635 -420 635 -420 583 -420 c 257,34,35
NamedP: "av01"
 470 -420 470 -420 400.5 -388 c 128,-1,36
 331 -356 331 -356 296.5 -300 c 128,-1,37
 262 -244 262 -244 257 -167.5 c 128,-1,38
 252 -91 252 -91 267 -2 c 257,39,-1
 310 238 l 257,40,41
 326 327 326 327 319.5 379.5 c 128,-1,42
 313 432 313 432 269 442 c 257,43,-1
 134 462 l 257,44,-1
 166 640 l 257,45,-1
 307 660 l 257,46,47
 355 671 355 671 380 723.5 c 128,-1,48
 405 776 405 776 420 864 c 257,49,-1
 462 1099 l 257,50,51
 478 1188 478 1188 509.5 1264.5 c 128,-1,52
 541 1341 541 1341 596 1397 c 128,-1,53
 651 1453 651 1453 731.5 1485 c 128,-1,54
 812 1517 812 1517 925 1517 c 257,55,56
NamedP: "at01"
 977 1517 977 1517 1016.5 1511.5 c 128,-1,57
 1056 1506 1056 1506 1088 1496.5 c 128,-1,58
 1120 1487 1120 1487 1148.5 1474 c 128,-1,59
 1177 1461 1177 1461 1207 1445 c 257,60,-1
 1078 1260 l 257,0,1
NamedP: "hr00"
EndSplineSet
PickledDataWithLists: "(dp0
Vcom.adobe.type.autohint
p1
(c_codecs
encode
p2
(Vdata
p3
Vlatin1
p4
tp5
Rp6
g2
(V<data>\\u000a        <hintSetList>\\u000a          <hintset pointTag=\"hr00\">\\u000a            <hstem pos=\"-399\" width=\"-21\"/>\\u000a            <hstem pos=\"475\" width=\"150\"/>\\u000a            <hstem pos=\"1519\" width=\"-20\"/>\\u000a            <vstem pos=\"500\" width=\"200\"/>\\u000a          </hintset>\\u000a        </hintSetList>\\u000a      </data>
p7
g4
tp8
Rp9
Ntp10
sVcom.fontlab.ttprogram
p11
(g2
(Vdata
p12
g4
tp13
Rp14
g2
(V<data>\\u000a        <ttProgram>\\u000a          <ttc code=\"mdeltah\" delta=\"-2\" point=\"mh01\" ppm1=\"14\" ppm2=\"14\"/>\\u000a          <ttc align=\"round\" code=\"alignv\" point=\"av01\"/>\\u000a          <ttc code=\"alignt\" point=\"at01\" zone=\"t: 1\"/>\\u000a          <ttc code=\"interpolatev\" point=\"iv01\" point1=\"at01\" point2=\"av01\"/>\\u000a        </ttProgram>\\u000a      </data>
p15
g4
tp16
Rp17
Ntp18
sVcom.typemytype.robofont.guides
p19
(lp20
(dp21
Vangle
p22
I0
sVisGlobal
p23
I00
sVmagnetic
p24
I5
sVx
p25
I0
sVy
p26
I550
sa(dp27
g22
I0
sg23
I00
sg24
I5
sg25
I0
sg26
I475
sas."
EndChar
StartChar: braceright
Encoding: 157 125 157
GlifName: braceright
Width: 1300
VWidth: 0
Flags: W
LayerCount: 2
Fore
SplineSet
409 1445 m 257,0,1
NamedP: "hr00"
 444 1461 444 1461 477 1474 c 128,-1,2
 510 1487 510 1487 545.5 1496.5 c 128,-1,3
 581 1506 581 1506 622.5 1511.5 c 128,-1,4
 664 1517 664 1517 716 1517 c 257,5,6
NamedP: "at01"
 829 1517 829 1517 898.5 1485 c 128,-1,7
 968 1453 968 1453 1003 1397 c 128,-1,8
 1038 1341 1038 1341 1043 1264.5 c 128,-1,9
 1048 1188 1048 1188 1032 1099 c 257,10,-1
 990 864 l 257,11,12
 975 776 975 776 981 723.5 c 128,-1,13
 987 671 987 671 1031 660 c 257,14,-1
 1166 640 l 257,15,-1
 1134 462 l 257,16,-1
 993 442 l 257,17,18
 945 432 945 432 920.5 379.5 c 128,-1,19
 896 327 896 327 880 238 c 257,20,-1
 837 -2 l 257,21,22
 822 -91 822 -91 790 -167.5 c 128,-1,23
 758 -244 758 -244 703.5 -300 c 128,-1,24
 649 -356 649 -356 568.5 -388 c 128,-1,25
 488 -420 488 -420 375 -420 c 257,26,27
NamedP: "av01"
 323 -420 323 -420 283.5 -414.5 c 128,-1,28
 244 -409 244 -409 211.5 -399.5 c 128,-1,29
 179 -390 179 -390 150.5 -376.5 c 128,-1,30
 122 -363 122 -363 92 -348 c 257,31,-1
 221 -163 l 257,32,33
 251 -183 251 -183 292.5 -195.5 c 128,-1,34
 334 -208 334 -208 369 -208 c 257,35,36
 399 -208 399 -208 419.5 -194 c 128,-1,37
 440 -180 440 -180 454 -153 c 128,-1,38
 468 -126 468 -126 477.5 -88 c 128,-1,39
 487 -50 487 -50 495 -2 c 257,40,-1
 538 238 l 257,41,42
 548 293 548 293 572 341.5 c 128,-1,43
 596 390 596 390 626.5 430 c 128,-1,44
 657 470 657 470 691.5 500 c 128,-1,45
 726 530 726 530 757 550 c 257,46,47
NamedP: "iv01"
 734 570 734 570 710.5 600.5 c 128,-1,48
 687 631 687 631 669.5 670.5 c 128,-1,49
 652 710 652 710 645 759 c 128,-1,50
 638 808 638 808 648 864 c 257,51,-1
 690 1099 l 257,52,53
 698 1147 698 1147 702 1184.5 c 128,-1,54
 706 1222 706 1222 701 1248 c 128,-1,55
 696 1274 696 1274 681 1288.5 c 128,-1,56
 666 1303 666 1303 636 1305 c 257,57,58
 601 1305 601 1305 555.5 1292.5 c 128,-1,59
 510 1280 510 1280 472 1260 c 257,60,-1
 409 1445 l 257,0,1
NamedP: "hr00"
EndSplineSet
PickledDataWithLists: "(dp0
Vcom.adobe.type.autohint
p1
(c_codecs
encode
p2
(Vdata
p3
Vlatin1
p4
tp5
Rp6
g2
(V<data>\\u000a        <hintSetList>\\u000a          <hintset pointTag=\"hr00\">\\u000a            <hstem pos=\"-399\" width=\"-21\"/>\\u000a            <hstem pos=\"475\" width=\"150\"/>\\u000a            <hstem pos=\"1519\" width=\"-20\"/>\\u000a            <vstem pos=\"500\" width=\"200\"/>\\u000a          </hintset>\\u000a        </hintSetList>\\u000a      </data>
p7
g4
tp8
Rp9
Ntp10
sVcom.fontlab.ttprogram
p11
(g2
(Vdata
p12
g4
tp13
Rp14
g2
(V<data>\\u000a        <ttProgram>\\u000a          <ttc align=\"round\" code=\"alignv\" point=\"av01\"/>\\u000a          <ttc code=\"alignt\" point=\"at01\" zone=\"t: 1\"/>\\u000a          <ttc code=\"interpolatev\" point=\"iv01\" point1=\"at01\" point2=\"av01\"/>\\u000a        </ttProgram>\\u000a      </data>
p15
g4
tp16
Rp17
Ntp18
s."
EndChar
StartChar: asciitilde
Encoding: 124 126 124
GlifName: asciitilde
Width: 1300
VWidth: 0
Flags: W
LayerCount: 2
Fore
SplineSet
0 441 m 257,0,1
 18 508 18 508 56.5 578 c 128,-1,2
 95 648 95 648 155 705 c 128,-1,3
 215 762 215 762 296.5 798.5 c 128,-1,4
 378 835 378 835 482 835 c 257,5,6
 536 835 536 835 574.5 825 c 128,-1,7
 613 815 613 815 641.5 800.5 c 128,-1,8
 670 786 670 786 692 769 c 128,-1,9
 714 752 714 752 736 737.5 c 128,-1,10
 758 723 758 723 782.5 713 c 128,-1,11
 807 703 807 703 841 703 c 257,12,13
 910 703 910 703 959.5 741 c 128,-1,14
 1009 779 1009 779 1029 838 c 257,15,-1
 1298 802 l 257,16,17
 1280 729 1280 729 1245 657 c 128,-1,18
 1210 585 1210 585 1153 528 c 128,-1,19
 1096 471 1096 471 1014.5 435.5 c 128,-1,20
 933 400 933 400 823 400 c 257,21,22
 773 400 773 400 737.5 410 c 128,-1,23
 702 420 702 420 675 434.5 c 128,-1,24
 648 449 648 449 626.5 466 c 128,-1,25
 605 483 605 483 582 497.5 c 128,-1,26
 559 512 559 512 531.5 522 c 128,-1,27
 504 532 504 532 465 532 c 257,28,29
 436 532 436 532 409.5 522 c 128,-1,30
 383 512 383 512 361 495.5 c 128,-1,31
 339 479 339 479 321.5 457 c 128,-1,32
 304 435 304 435 294 410 c 257,33,-1
 0 441 l 257,0,1
EndSplineSet
EndChar
StartChar: brokenbar
Encoding: 161 166 161
GlifName: brokenbar
Width: 1300
VWidth: 0
Flags: W
LayerCount: 2
Fore
SplineSet
1010 1520 m 257,0,-1
NamedP: "at01"
 865 700 l 257,1,-1
NamedP: "sv01"
 523 700 l 257,2,-1
NamedP: "av01"
 664 1500 l 257,3,-1
 1010 1520 l 257,0,-1
NamedP: "at01"
806 362 m 257,4,-1
NamedP: "sv02"
 671 -400 l 257,5,-1
NamedP: "sv03"
 329 -400 l 257,6,-1
NamedP: "av03"
 464 362 l 257,7,-1
NamedP: "av02"
 806 362 l 257,4,-1
NamedP: "sv02"
EndSplineSet
PickledDataWithLists: "(dp0
Vcom.fontlab.ttprogram
p1
(c_codecs
encode
p2
(Vdata
p3
Vlatin1
p4
tp5
Rp6
g2
(V<data>\\u000a        <ttProgram>\\u000a          <ttc align=\"round\" code=\"alignv\" point=\"av01\"/>\\u000a          <ttc align=\"round\" code=\"alignv\" point=\"av02\"/>\\u000a          <ttc align=\"round\" code=\"alignv\" point=\"av03\"/>\\u000a          <ttc code=\"alignt\" point=\"at01\" zone=\"t: 1\"/>\\u000a          <ttc code=\"singlev\" point1=\"av01\" point2=\"sv01\"/>\\u000a          <ttc code=\"singlev\" point1=\"av02\" point2=\"sv02\"/>\\u000a          <ttc code=\"singlev\" point1=\"av03\" point2=\"sv03\"/>\\u000a        </ttProgram>\\u000a      </data>
p7
g4
tp8
Rp9
Ntp10
s."
EndChar
StartChar: section
Encoding: 437 167 437
GlifName: section
Width: 1300
VWidth: 0
Flags: W
LayerCount: 2
Fore
SplineSet
1059 1249 m 257,0,1
NamedP: "hr00"
 1021 1272 1021 1272 990 1285.5 c 128,-1,2
 959 1299 959 1299 933 1306.5 c 128,-1,3
 907 1314 907 1314 884 1316 c 128,-1,4
 861 1318 861 1318 840 1318 c 257,5,6
NamedP: "iv03"
 809 1318 809 1318 779.5 1310.5 c 128,-1,7
 750 1303 750 1303 726 1286 c 128,-1,8
 702 1269 702 1269 684.5 1241.5 c 128,-1,9
 667 1214 667 1214 660 1174 c 257,10,11
 653 1135 653 1135 663 1105 c 128,-1,12
 673 1075 673 1075 694.5 1050 c 128,-1,13
 716 1025 716 1025 745.5 1002.5 c 128,-1,14
 775 980 775 980 807 958 c 257,15,16
NamedP: "iv01"
 860 921 860 921 913 880 c 128,-1,17
 966 839 966 839 1005.5 788 c 128,-1,18
 1045 737 1045 737 1064.5 673.5 c 128,-1,19
 1084 610 1084 610 1069 527 c 257,20,21
 1060 479 1060 479 1037.5 433.5 c 128,-1,22
 1015 388 1015 388 982.5 350 c 128,-1,23
 950 312 950 312 909.5 282 c 128,-1,24
 869 252 869 252 825 234 c 257,25,26
NamedP: "iv04"
 857 205 857 205 883 173 c 128,-1,27
 909 141 909 141 926 106 c 128,-1,28
 943 71 943 71 949.5 33 c 128,-1,29
 956 -5 956 -5 949 -46 c 257,30,31
 934 -128 934 -128 892 -193.5 c 128,-1,32
 850 -259 850 -259 783 -305 c 128,-1,33
 716 -351 716 -351 627.5 -375.5 c 128,-1,34
 539 -400 539 -400 431 -400 c 257,35,36
NamedP: "av01"
 384 -400 384 -400 341 -395 c 128,-1,37
 298 -390 298 -390 257 -378 c 128,-1,38
 216 -366 216 -366 176 -347 c 128,-1,39
 136 -328 136 -328 95 -299 c 257,40,-1
 231 -129 l 257,41,42
 269 -152 269 -152 300 -166 c 128,-1,43
 331 -180 331 -180 357.5 -187.5 c 128,-1,44
 384 -195 384 -195 406.5 -197.5 c 128,-1,45
 429 -200 429 -200 450 -200 c 257,46,47
NamedP: "iv05"
 481 -200 481 -200 510.5 -192 c 128,-1,48
 540 -184 540 -184 564 -166.5 c 128,-1,49
 588 -149 588 -149 605 -121 c 128,-1,50
 622 -93 622 -93 629 -54 c 257,51,52
 636 -15 636 -15 626.5 15 c 128,-1,53
 617 45 617 45 596 70.5 c 128,-1,54
 575 96 575 96 545.5 118 c 128,-1,55
 516 140 516 140 484 163 c 257,56,57
NamedP: "iv06"
 431 200 431 200 378 240.5 c 128,-1,58
 325 281 325 281 285.5 332 c 128,-1,59
 246 383 246 383 226.5 446.5 c 128,-1,60
 207 510 207 510 222 593 c 257,61,62
 231 645 231 645 253.5 689 c 128,-1,63
 276 733 276 733 308 769 c 128,-1,64
 340 805 340 805 380 833.5 c 128,-1,65
 420 862 420 862 464 885 c 257,66,67
NamedP: "iv08"
 432 915 432 915 406.5 947 c 128,-1,68
 381 979 381 979 364 1014 c 128,-1,69
 347 1049 347 1049 340.5 1087 c 128,-1,70
 334 1125 334 1125 342 1166 c 257,71,72
 356 1248 356 1248 398 1313 c 128,-1,73
 440 1378 440 1378 506.5 1423.5 c 128,-1,74
 573 1469 573 1469 662 1493 c 128,-1,75
 751 1517 751 1517 859 1517 c 257,76,77
NamedP: "at01"
 951 1517 951 1517 1032 1496.5 c 128,-1,78
 1113 1476 1113 1476 1194 1419 c 257,79,-1
 1059 1249 l 257,0,1
NamedP: "hr00"
631 747 m 257,80,-1
NamedP: "iv02"
 617 737 l 257,81,82
 605 728 605 728 590.5 714.5 c 128,-1,83
 576 701 576 701 563 683.5 c 128,-1,84
 550 666 550 666 539.5 644 c 128,-1,85
 529 622 529 622 525 595 c 257,86,87
 519 561 519 561 527 532 c 128,-1,88
 535 503 535 503 552.5 477.5 c 128,-1,89
 570 452 570 452 593 429.5 c 128,-1,90
 616 407 616 407 640 387 c 257,91,-1
 660 372 l 257,92,-1
NamedP: "iv07"
 674 383 l 257,93,94
 699 401 699 401 727.5 436.5 c 128,-1,95
 756 472 756 472 766 525 c 257,96,97
 772 558 772 558 763.5 587 c 128,-1,98
 755 616 755 616 738 641.5 c 128,-1,99
 721 667 721 667 698 689 c 128,-1,100
 675 711 675 711 651 731 c 257,101,-1
 631 747 l 257,80,-1
NamedP: "iv02"
EndSplineSet
PickledDataWithLists: "(dp0
Vcom.adobe.type.autohint
p1
(c_codecs
encode
p2
(Vdata
p3
Vlatin1
p4
tp5
Rp6
g2
(V<data>\\u000a        <hintSetList>\\u000a          <hintset pointTag=\"hr00\">\\u000a            <hstem pos=\"-420\" width=\"127\"/>\\u000a            <hstem pos=\"186\" width=\"85\"/>\\u000a            <hstem pos=\"829\" width=\"85\"/>\\u000a            <hstem pos=\"1393\" width=\"127\"/>\\u000a            <vstem pos=\"126\" width=\"180\"/>\\u000a            <vstem pos=\"676\" width=\"174\"/>\\u000a          </hintset>\\u000a        </hintSetList>\\u000a      </data>
p7
g4
tp8
Rp9
Ntp10
sVcom.fontlab.ttprogram
p11
(g2
(Vdata
p12
g4
tp13
Rp14
g2
(V<data>\\u000a        <ttProgram>\\u000a          <ttc align=\"round\" code=\"alignv\" point=\"av01\"/>\\u000a          <ttc code=\"alignt\" point=\"at01\" zone=\"t: 1\"/>\\u000a          <ttc code=\"interpolatev\" point=\"iv01\" point1=\"iv02\" point2=\"iv03\"/>\\u000a          <ttc code=\"interpolatev\" point=\"iv04\" point1=\"iv02\" point2=\"iv05\"/>\\u000a          <ttc code=\"interpolatev\" point=\"iv06\" point1=\"iv05\" point2=\"iv07\"/>\\u000a          <ttc code=\"interpolatev\" point=\"iv08\" point1=\"iv03\" point2=\"iv07\"/>\\u000a        </ttProgram>\\u000a      </data>
p15
g4
tp16
Rp17
Ntp18
sVcom.typemytype.robofont.guides
p19
(lp20
(dp21
Vangle
p22
I90
sVisGlobal
p23
I00
sVmagnetic
p24
I5
sVx
p25
I850
sVy
p26
I0
sas."
EndChar
StartChar: dieresis
Encoding: 210 168 210
GlifName: dieresis
Width: 1300
VWidth: 0
Flags: W
LayerCount: 2
Fore
SplineSet
485 1566 m 257,0,-1
NamedP: "av01"
 761 1566 l 257,1,-1
NamedP: "mh01"
 714 1300 l 257,2,-1
NamedP: "sv01"
 438 1300 l 257,3,-1
 485 1566 l 257,0,-1
NamedP: "av01"
885 1566 m 257,4,-1
NamedP: "av02"
 1161 1566 l 257,5,-1
NamedP: "mh02"
 1114 1300 l 257,6,-1
NamedP: "sv02"
 838 1300 l 257,7,-1
NamedP: "mh03"
 885 1566 l 257,4,-1
NamedP: "av02"
EndSplineSet
PickledDataWithLists: "(dp0
Vcom.fontlab.ttprogram
p1
(c_codecs
encode
p2
(Vdata
p3
Vlatin1
p4
tp5
Rp6
g2
(V<data>\\u000a        <ttProgram>\\u000a          <ttc code=\"mdeltah\" delta=\"-2\" point=\"mh01\" ppm1=\"15\" ppm2=\"15\"/>\\u000a          <ttc code=\"mdeltah\" delta=\"1\" point=\"mh02\" ppm1=\"13\" ppm2=\"13\"/>\\u000a          <ttc code=\"mdeltah\" delta=\"8\" point=\"mh03\" ppm1=\"13\" ppm2=\"13\"/>\\u000a          <ttc code=\"mdeltah\" delta=\"6\" point=\"mh03\" ppm1=\"12\" ppm2=\"12\"/>\\u000a          <ttc align=\"round\" code=\"alignv\" point=\"av01\"/>\\u000a          <ttc align=\"round\" code=\"alignv\" point=\"av02\"/>\\u000a          <ttc code=\"singlev\" point1=\"av01\" point2=\"mh01\"/>\\u000a          <ttc code=\"singlev\" point1=\"mh01\" point2=\"sv01\" stem=\"Y: 171\"/>\\u000a          <ttc code=\"singlev\" point1=\"av02\" point2=\"mh02\"/>\\u000a          <ttc code=\"singlev\" point1=\"mh02\" point2=\"sv02\" stem=\"Y: 171\"/>\\u000a        </ttProgram>\\u000a      </data>
p7
g4
tp8
Rp9
Ntp10
s."
EndChar
StartChar: ordfeminine
Encoding: 356 170 356
GlifName: ordfeminine
Width: 1300
VWidth: 0
Flags: W
LayerCount: 2
Fore
SplineSet
189 810 m 257,0,-1
NamedP: "hr00"
 631 810 l 257,1,-1
 610 690 l 257,2,-1
 168 690 l 257,3,-1
 189 810 l 257,0,-1
NamedP: "hr00"
565 1401 m 257,4,5
 555 1403 555 1403 546.5 1404 c 128,-1,6
 538 1405 538 1405 534 1405 c 257,7,8
 497 1405 497 1405 468 1389.5 c 128,-1,9
 439 1374 439 1374 418.5 1348 c 128,-1,10
 398 1322 398 1322 386 1287.5 c 128,-1,11
 374 1253 374 1253 370 1214 c 257,12,13
 367 1183 367 1183 368 1156 c 128,-1,14
 369 1129 369 1129 374.5 1108 c 128,-1,15
 380 1087 380 1087 390.5 1075 c 128,-1,16
 401 1063 401 1063 415 1063 c 257,17,18
 432 1063 432 1063 447.5 1069 c 128,-1,19
 463 1075 463 1075 476 1084 c 128,-1,20
 489 1093 489 1093 499.5 1103.5 c 128,-1,21
 510 1114 510 1114 517 1123 c 257,22,-1
 565 1401 l 257,4,5
387 951 m 257,23,24
 348 951 348 951 319.5 963 c 128,-1,25
 291 975 291 975 271 995 c 128,-1,26
 251 1015 251 1015 238.5 1041.5 c 128,-1,27
 226 1068 226 1068 220.5 1099 c 128,-1,28
 215 1130 215 1130 214.5 1163.5 c 128,-1,29
 214 1197 214 1197 219 1230 c 257,30,31
 223 1266 223 1266 235 1301.5 c 128,-1,32
 247 1337 247 1337 267 1369 c 128,-1,33
 287 1401 287 1401 314 1428 c 128,-1,34
 341 1455 341 1455 376.5 1475 c 128,-1,35
 412 1495 412 1495 455.5 1506 c 128,-1,36
 499 1517 499 1517 551 1517 c 257,37,38
 582 1517 582 1517 613 1513 c 257,39,40
 640 1509 640 1509 671.5 1501.5 c 128,-1,41
 703 1494 703 1494 732 1480 c 257,42,-1
 660 1063 l 257,43,-1
 653 959 l 257,44,-1
 492 959 l 257,45,-1
 506 1040 l 257,46,-1
 429 954 l 257,47,48
 423 953 423 953 414 951.5 c 128,-1,49
 405 950 405 950 387 951 c 257,23,24
EndSplineSet
PickledDataWithLists: "(dp0
Vcom.adobe.type.autohint
p1
(c_codecs
encode
p2
(Vdata
p3
Vlatin1
p4
tp5
Rp6
g2
(V<data>\\u000a        <hintSetList>\\u000a          <hintset pointTag=\"hr00\">\\u000a            <hstem pos=\"951\" width=\"112\"/>\\u000a            <hstem pos=\"1215\" width=\"112\"/>\\u000a            <hstem pos=\"1405\" width=\"112\"/>\\u000a            <vstem pos=\"151\" width=\"163\"/>\\u000a            <vstem pos=\"449\" width=\"163\"/>\\u000a          </hintset>\\u000a        </hintSetList>\\u000a      </data>
p7
g4
tp8
Rp9
Ntp10
s."
EndChar
StartChar: logicalnot
Encoding: 314 172 314
GlifName: logicalnot
Width: 1300
VWidth: 0
Flags: W
LayerCount: 2
Fore
SplineSet
1271 827 m 257,0,-1
NamedP: "sv01"
 1209 586 l 257,1,-1
 1151 258 l 257,2,-1
NamedP: "sv02"
 809 258 l 257,3,-1
NamedP: "av02"
 845 459 l 257,4,-1
 882 600 l 257,5,-1
NamedP: "sv04"
 32 600 l 257,6,-1
NamedP: "sv03"
 72 827 l 257,7,-1
NamedP: "av01"
 1271 827 l 257,0,-1
NamedP: "sv01"
EndSplineSet
PickledDataWithLists: "(dp0
Vcom.fontlab.ttprogram
p1
(c_codecs
encode
p2
(Vdata
p3
Vlatin1
p4
tp5
Rp6
g2
(V<data>\\u000a        <ttProgram>\\u000a          <ttc align=\"round\" code=\"alignv\" point=\"av01\"/>\\u000a          <ttc align=\"round\" code=\"alignv\" point=\"av02\"/>\\u000a          <ttc code=\"singlev\" point1=\"av01\" point2=\"sv01\"/>\\u000a          <ttc code=\"singlev\" point1=\"av02\" point2=\"sv02\"/>\\u000a          <ttc code=\"singlev\" point1=\"av01\" point2=\"sv03\" stem=\"Y: 171\"/>\\u000a          <ttc code=\"singlev\" point1=\"sv03\" point2=\"sv04\"/>\\u000a        </ttProgram>\\u000a      </data>
p7
g4
tp8
Rp9
Ntp10
s."
EndChar
StartChar: twosuperior
Encoding: 537 178 537
GlifName: twosuperior
Width: 1300
VWidth: 0
Flags: W
LayerCount: 2
Fore
SplineSet
123 720 m 257,0,-1
NamedP: "hr00"
 139 815 l 257,1,2
 169 852 169 852 207 892.5 c 128,-1,3
 245 933 245 933 284.5 972.5 c 128,-1,4
 324 1012 324 1012 361 1047 c 128,-1,5
 398 1082 398 1082 426 1107 c 257,6,7
 459 1136 459 1136 481 1156 c 128,-1,8
 503 1176 503 1176 518 1193 c 128,-1,9
 533 1210 533 1210 541 1227.5 c 128,-1,10
 549 1245 549 1245 553 1268 c 257,11,12
 557 1287 557 1287 554 1305 c 128,-1,13
 551 1323 551 1323 542 1337.5 c 128,-1,14
 533 1352 533 1352 518 1361 c 128,-1,15
 503 1370 503 1370 483 1370 c 257,16,17
 442 1370 442 1370 406 1342.5 c 128,-1,18
 370 1315 370 1315 338 1268 c 257,19,-1
 229 1311 l 257,20,21
 250 1350 250 1350 278.5 1380.5 c 128,-1,22
 307 1411 307 1411 342 1433 c 128,-1,23
 377 1455 377 1455 419 1466.5 c 128,-1,24
 461 1478 461 1478 509 1478 c 257,25,26
 566 1478 566 1478 607.5 1459.5 c 128,-1,27
 649 1441 649 1441 674 1410.5 c 128,-1,28
 699 1380 699 1380 708.5 1341 c 128,-1,29
 718 1302 718 1302 711 1263 c 257,30,31
 705 1228 705 1228 688.5 1198.5 c 128,-1,32
 672 1169 672 1169 649 1141.5 c 128,-1,33
 626 1114 626 1114 597.5 1087 c 128,-1,34
 569 1060 569 1060 539 1030 c 257,35,36
 509 1000 509 1000 476.5 969 c 128,-1,37
 444 938 444 938 415 910 c 128,-1,38
 386 882 386 882 362 858.5 c 128,-1,39
 338 835 338 835 324 820 c 257,40,-1
 645 820 l 257,41,-1
 628 720 l 257,42,-1
 123 720 l 257,0,-1
NamedP: "hr00"
EndSplineSet
PickledDataWithLists: "(dp0
Vcom.adobe.type.autohint
p1
(c_codecs
encode
p2
(Vdata
p3
Vlatin1
p4
tp5
Rp6
g2
(V<data>\\u000a        <hintSetList>\\u000a          <hintset pointTag=\"hr00\">\\u000a            <hstem pos=\"720\" width=\"80\"/>\\u000a            <hstem pos=\"1394\" width=\"84\"/>\\u000a            <vstem pos=\"517\" width=\"97\"/>\\u000a          </hintset>\\u000a        </hintSetList>\\u000a      </data>
p7
g4
tp8
Rp9
Ntp10
s."
EndChar
StartChar: mu
Encoding: 324 181 324
GlifName: mu
Width: 1300
VWidth: 0
Flags: W
LayerCount: 2
Fore
SplineSet
1282 51 m 257,0,1
 1265 37 1265 37 1245.5 25 c 128,-1,2
 1226 13 1226 13 1199.5 3.5 c 128,-1,3
 1173 -6 1173 -6 1138.5 -11.5 c 128,-1,4
 1104 -17 1104 -17 1056 -17 c 257,5,6
NamedP: "ab03"
 1022 -17 1022 -17 991 -5 c 128,-1,7
 960 7 960 7 935.5 32 c 128,-1,8
 911 57 911 57 893.5 96 c 128,-1,9
 876 135 876 135 870 190 c 257,10,-1
 802 72 l 257,11,12
 782 56 782 56 755.5 40 c 128,-1,13
 729 24 729 24 696.5 11.5 c 128,-1,14
 664 -1 664 -1 626.5 -9 c 128,-1,15
 589 -17 589 -17 546 -17 c 257,16,17
NamedP: "ab02"
 526 -17 526 -17 498 -12 c 128,-1,18
 470 -7 470 -7 442 1.5 c 128,-1,19
 414 10 414 10 390.5 20 c 128,-1,20
 367 30 367 30 357 40 c 257,21,-1
 386 -166 l 257,22,-1
 327 -500 l 257,23,-1
NamedP: "sv01"
 17 -500 l 257,24,-1
NamedP: "ab01"
 299 1100 l 257,25,-1
NamedP: "at01"
 613 1120 l 257,26,-1
NamedP: "at02"
 479 362 l 257,27,28
NamedP: "av01"
 472 324 472 324 479.5 293.5 c 128,-1,29
 487 263 487 263 503.5 242 c 128,-1,30
 520 221 520 221 543.5 210 c 128,-1,31
 567 199 567 199 594 199 c 257,32,33
 637 199 637 199 677 219.5 c 128,-1,34
 717 240 717 240 752 268 c 257,35,-1
 899 1100 l 257,36,-1
NamedP: "sv02"
 1213 1120 l 257,37,-1
NamedP: "at03"
 1080 365 l 257,38,39
NamedP: "sv03"
 1063 273 1063 273 1075.5 236 c 128,-1,40
 1088 199 1088 199 1123 199 c 257,41,42
 1150 199 1150 199 1168.5 204.5 c 128,-1,43
 1187 210 1187 210 1214 223 c 257,44,-1
 1282 51 l 257,0,1
EndSplineSet
PickledDataWithLists: "(dp0
Vcom.fontlab.ttprogram
p1
(c_codecs
encode
p2
(Vdata
p3
Vlatin1
p4
tp5
Rp6
g2
(V<data>\\u000a        <ttProgram>\\u000a          <ttc align=\"round\" code=\"alignv\" point=\"av01\"/>\\u000a          <ttc code=\"alignt\" point=\"at01\" zone=\"t: x\"/>\\u000a          <ttc code=\"alignt\" point=\"at02\" zone=\"t: x\"/>\\u000a          <ttc code=\"alignt\" point=\"at03\" zone=\"t: x\"/>\\u000a          <ttc code=\"alignb\" point=\"ab01\" zone=\"b: -500\"/>\\u000a          <ttc code=\"alignb\" point=\"ab02\" zone=\"b: 0\"/>\\u000a          <ttc code=\"alignb\" point=\"ab03\" zone=\"b: 0\"/>\\u000a          <ttc code=\"singlev\" point1=\"ab01\" point2=\"sv01\"/>\\u000a          <ttc code=\"singlev\" point1=\"at01\" point2=\"sv02\"/>\\u000a          <ttc code=\"singlev\" point1=\"av01\" point2=\"sv03\"/>\\u000a        </ttProgram>\\u000a      </data>
p7
g4
tp8
Rp9
Ntp10
s."
EndChar
StartChar: paragraph
Encoding: 363 182 363
GlifName: paragraph
Width: 1300
VWidth: 0
Flags: W
LayerCount: 2
Fore
SplineSet
934 1298 m 257,0,-1
NamedP: "hr00"
 800 1298 l 257,1,-1
 501 -400 l 257,2,-1
 232 -400 l 257,3,-1
 409 604 l 257,4,5
NamedP: "av01"
 334 614 334 614 264.5 643 c 128,-1,6
 195 672 195 672 146 724.5 c 128,-1,7
 97 777 97 777 75 857 c 128,-1,8
 53 937 53 937 73 1050 c 257,9,10
NamedP: "ah01"
 88 1137 88 1137 122 1204.5 c 128,-1,11
 156 1272 156 1272 203 1322 c 128,-1,12
 250 1372 250 1372 306.5 1406 c 128,-1,13
 363 1440 363 1440 424 1461 c 128,-1,14
 485 1482 485 1482 547 1491 c 128,-1,15
 609 1500 609 1500 667 1500 c 257,16,-1
NamedP: "at01"
 1237 1500 l 257,17,-1
NamedP: "ah02"
 902 -400 l 257,18,-1
 635 -400 l 257,19,-1
 934 1298 l 257,0,-1
NamedP: "hr00"
EndSplineSet
PickledDataWithLists: "(dp0
Vcom.adobe.type.autohint
p1
(c_codecs
encode
p2
(Vdata
p3
Vlatin1
p4
tp5
Rp6
g2
(V<data>\\u000a        <hintSetList>\\u000a          <hintset pointTag=\"hr00\">\\u000a            <hstem pos=\"-379\" width=\"-21\"/>\\u000a            <hstem pos=\"1348\" width=\"152\"/>\\u000a            <vstem pos=\"730\" width=\"169\"/>\\u000a            <vstem pos=\"1033\" width=\"169\"/>\\u000a          </hintset>\\u000a        </hintSetList>\\u000a      </data>
p7
g4
tp8
Rp9
Ntp10
sVcom.fontlab.ttprogram
p11
(g2
(Vdata
p12
g4
tp13
Rp14
g2
(V<data>\\u000a        <ttProgram>\\u000a          <ttc align=\"round\" code=\"alignh\" point=\"ah01\"/>\\u000a          <ttc align=\"round\" code=\"alignh\" point=\"ah02\"/>\\u000a          <ttc align=\"round\" code=\"alignv\" point=\"av01\"/>\\u000a          <ttc code=\"alignt\" point=\"at01\" zone=\"t: 1\"/>\\u000a        </ttProgram>\\u000a      </data>
p15
g4
tp16
Rp17
Ntp18
s."
EndChar
StartChar: cedilla
Encoding: 169 184 169
GlifName: cedilla
Width: 1300
VWidth: 0
Flags: W
LayerCount: 2
Fore
SplineSet
719 0 m 257,0,1
NamedP: "sv01"
 743 -20 743 -20 761 -46 c 257,2,3
 776 -69 776 -69 785.5 -100.5 c 128,-1,4
 795 -132 795 -132 788 -171 c 257,5,6
 779 -221 779 -221 748 -264 c 128,-1,7
 717 -307 717 -307 672 -338.5 c 128,-1,8
 627 -370 627 -370 571.5 -388.5 c 128,-1,9
 516 -407 516 -407 459 -407 c 257,10,11
NamedP: "av01"
 399 -407 399 -407 344.5 -389 c 128,-1,12
 290 -371 290 -371 246 -349 c 257,13,14
 195 -323 195 -323 150 -290 c 257,15,-1
 293 -131 l 257,16,17
 322 -151 322 -151 351 -166 c 257,18,19
 375 -179 375 -179 402.5 -189.5 c 128,-1,20
 430 -200 430 -200 452 -200 c 257,21,22
 475 -200 475 -200 497.5 -187.5 c 128,-1,23
 520 -175 520 -175 525 -147 c 257,24,25
 529 -126 529 -126 521 -102.5 c 128,-1,26
 513 -79 513 -79 501 -58 c 128,-1,27
 489 -37 489 -37 476 -21.5 c 128,-1,28
NamedP: "ab01"
 463 -6 463 -6 457 0 c 257,29,-1
 719 0 l 257,0,1
NamedP: "sv01"
EndSplineSet
PickledDataWithLists: "(dp0
Vcom.fontlab.ttprogram
p1
(c_codecs
encode
p2
(Vdata
p3
Vlatin1
p4
tp5
Rp6
g2
(V<data>\\u000a        <ttProgram>\\u000a          <ttc align=\"round\" code=\"alignv\" point=\"av01\"/>\\u000a          <ttc code=\"alignb\" point=\"ab01\" zone=\"b: 0\"/>\\u000a          <ttc code=\"singlev\" point1=\"ab01\" point2=\"sv01\" round=\"true\"/>\\u000a        </ttProgram>\\u000a      </data>
p7
g4
tp8
Rp9
Ntp10
s."
EndChar
StartChar: onesuperior
Encoding: 354 185 354
GlifName: onesuperior
Width: 1300
VWidth: 0
Flags: W
LayerCount: 2
Fore
SplineSet
422 1160 m 257,0,-1
NamedP: "hr00"
 491 1341 l 257,1,-1
 353 1206 l 257,2,-1
 305 1169 l 257,3,-1
 243 1261 l 257,4,-1
 522 1480 l 257,5,-1
 642 1470 l 257,6,-1
 527 820 l 257,7,-1
 649 820 l 257,8,-1
 631 720 l 257,9,-1
 222 720 l 257,10,-1
 240 820 l 257,11,-1
 362 820 l 257,12,-1
 422 1160 l 257,0,-1
NamedP: "hr00"
EndSplineSet
PickledDataWithLists: "(dp0
Vcom.adobe.type.autohint
p1
(c_codecs
encode
p2
(Vdata
p3
Vlatin1
p4
tp5
Rp6
g2
(V<data>\\u000a        <hintSetList>\\u000a          <hintset pointTag=\"hr00\">\\u000a            <hstem pos=\"720\" width=\"80\"/>\\u000a            <hstem pos=\"1480\" width=\"-10\"/>\\u000a            <vstem pos=\"455\" width=\"105\"/>\\u000a          </hintset>\\u000a        </hintSetList>\\u000a      </data>
p7
g4
tp8
Rp9
Ntp10
s."
EndChar
StartChar: onequarter
Encoding: 352 188 352
GlifName: onequarter
Width: 1300
VWidth: 0
Flags: W
LayerCount: 2
Fore
SplineSet
261 0 m 257,0,-1
 76 0 l 257,1,-1
 1116 1500 l 257,2,-1
 1292 1500 l 257,3,-1
 261 0 l 257,0,-1
300 1160 m 257,4,-1
NamedP: "hr01"
 369 1341 l 257,5,-1
 231 1206 l 257,6,-1
 183 1169 l 257,7,-1
 121 1261 l 257,8,-1
 400 1480 l 257,9,-1
 520 1470 l 257,10,-1
 405 820 l 257,11,-1
 527 820 l 257,12,-1
 509 720 l 257,13,-1
 100 720 l 257,14,-1
 118 820 l 257,15,-1
 240 820 l 257,16,-1
 300 1160 l 257,4,-1
NamedP: "hr01"
1191 150 m 257,17,-1
NamedP: "hr02"
 1102 150 l 257,18,-1
 1076 0 l 257,19,-1
 915 0 l 257,20,-1
 942 150 l 257,21,-1
 662 150 l 257,22,-1
 680 250 l 257,23,-1
 1016 760 l 257,24,-1
 1155 750 l 257,25,-1
 924 381 l 257,26,-1
 814 250 l 257,27,-1
 960 250 l 257,28,-1
 984 390 l 257,29,-1
 1147 400 l 257,30,-1
 1120 250 l 257,31,-1
 1220 250 l 257,32,-1
 1191 150 l 257,17,-1
NamedP: "hr02"
EndSplineSet
PickledDataWithLists: "(dp0
Vcom.adobe.type.autohint
p1
(c_codecs
encode
p2
(Vdata
p3
Vlatin1
p4
tp5
Rp6
g2
(V<data>\\u000a        <hintSetList>\\u000a          <hintset pointTag=\"hr01\">\\u000a            <hstem pos=\"720\" width=\"80\"/>\\u000a            <hstem pos=\"1480\" width=\"-10\"/>\\u000a            <vstem pos=\"333\" width=\"105\"/>\\u000a          </hintset>\\u000a          <hintset pointTag=\"hr02\">\\u000a            <hstem pos=\"10\" width=\"-10\"/>\\u000a            <hstem pos=\"150\" width=\"80\"/>\\u000a            <hstem pos=\"760\" width=\"-10\"/>\\u000a            <vstem pos=\"962\" width=\"105\"/>\\u000a          </hintset>\\u000a        </hintSetList>\\u000a      </data>
p7
g4
tp8
Rp9
Ntp10
s."
EndChar
StartChar: onehalf
Encoding: 351 189 351
GlifName: onehalf
Width: 1300
VWidth: 0
Flags: W
LayerCount: 2
Fore
SplineSet
251 0 m 257,0,-1
 66 0 l 257,1,-1
 1106 1500 l 257,2,-1
 1282 1500 l 257,3,-1
 251 0 l 257,0,-1
676 0 m 257,4,-1
 692 95 l 257,5,6
 722 132 722 132 760 172.5 c 128,-1,7
 798 213 798 213 837.5 252.5 c 128,-1,8
 877 292 877 292 914 327 c 128,-1,9
 951 362 951 362 979 387 c 257,10,11
 1012 416 1012 416 1034 436 c 128,-1,12
 1056 456 1056 456 1071 473 c 128,-1,13
 1086 490 1086 490 1094 507.5 c 128,-1,14
 1102 525 1102 525 1106 548 c 257,15,16
 1110 567 1110 567 1107 585 c 128,-1,17
 1104 603 1104 603 1095 617.5 c 128,-1,18
 1086 632 1086 632 1071 641 c 128,-1,19
 1056 650 1056 650 1036 650 c 257,20,21
 995 650 995 650 959 622.5 c 128,-1,22
 923 595 923 595 891 548 c 257,23,-1
 782 591 l 257,24,25
 803 630 803 630 831.5 660.5 c 128,-1,26
 860 691 860 691 895 713 c 128,-1,27
 930 735 930 735 972 746.5 c 128,-1,28
 1014 758 1014 758 1062 758 c 257,29,30
 1119 758 1119 758 1160.5 739.5 c 128,-1,31
 1202 721 1202 721 1227 690.5 c 128,-1,32
 1252 660 1252 660 1261.5 621 c 128,-1,33
 1271 582 1271 582 1264 543 c 257,34,35
 1258 508 1258 508 1241.5 478.5 c 128,-1,36
 1225 449 1225 449 1202 421.5 c 128,-1,37
 1179 394 1179 394 1150.5 367 c 128,-1,38
 1122 340 1122 340 1092 310 c 257,39,40
 1062 280 1062 280 1029.5 249 c 128,-1,41
 997 218 997 218 968 190 c 128,-1,42
 939 162 939 162 915 138.5 c 128,-1,43
 891 115 891 115 877 100 c 257,44,-1
 1198 100 l 257,45,-1
 1181 0 l 257,46,-1
 676 0 l 257,4,-1
300 1160 m 257,47,-1
 369 1341 l 257,48,-1
 231 1206 l 257,49,-1
 183 1169 l 257,50,-1
 121 1261 l 257,51,-1
 400 1480 l 257,52,-1
 520 1470 l 257,53,-1
 405 820 l 257,54,-1
 527 820 l 257,55,-1
 509 720 l 257,56,-1
 100 720 l 257,57,-1
 118 820 l 257,58,-1
 240 820 l 257,59,-1
 300 1160 l 257,47,-1
EndSplineSet
PickledDataWithLists: "(dp0
Vcom.adobe.type.autohint
p1
(c_codecs
encode
p2
(Vdata
p3
Vlatin1
p4
tp5
Rp6
g2
(V<data>\\u000a        <hintSetList/>\\u000a      </data>
p7
g4
tp8
Rp9
Ntp10
s."
EndChar
StartChar: Atilde
Encoding: 9 195 9
GlifName: A_tilde
Width: 1300
VWidth: 0
Flags: W
LayerCount: 2
Fore
SplineSet
35 0 m 257,0,-1
NamedP: "ab01"
 616 1284 l 257,1,-1
 680 1500 l 257,2,-1
 1072 1520 l 257,3,-1
NamedP: "at01"
 1234 0 l 257,4,-1
NamedP: "sv01"
 900 0 l 257,5,-1
 872 427 l 257,6,-1
NamedP: "sv02"
 530 427 l 257,7,-1
NamedP: "av01"
 353 0 l 257,8,-1
 35 0 l 257,0,-1
NamedP: "ab01"
862 1331 m 257,9,-1
NamedP: "mv01"
 763 990 l 257,10,-1
NamedP: "mh01"
 627 646 l 257,11,-1
 851 646 l 257,12,-1
 840 990 l 257,13,-1
NamedP: "mh02"
 862 1331 l 257,9,-1
NamedP: "mv01"
507 1627 m 257,14,15
 518 1667 518 1667 542 1712.5 c 128,-1,16
 566 1758 566 1758 603 1796 c 128,-1,17
 640 1834 640 1834 690 1859 c 128,-1,18
 740 1884 740 1884 803 1884 c 257,19,20
 852 1884 852 1884 883.5 1871.5 c 128,-1,21
 915 1859 915 1859 939 1844 c 128,-1,22
 963 1829 963 1829 985.5 1816.5 c 128,-1,23
 1008 1804 1008 1804 1039 1804 c 257,24,25
 1060 1804 1060 1804 1075.5 1811 c 128,-1,26
 1091 1818 1091 1818 1102 1830 c 128,-1,27
 1113 1842 1113 1842 1121 1858 c 128,-1,28
 1129 1874 1129 1874 1135 1892 c 257,29,-1
 1301 1882 l 257,30,31
 1290 1838 1290 1838 1268 1791.5 c 128,-1,32
 1246 1745 1246 1745 1211 1707 c 128,-1,33
 1176 1669 1176 1669 1126.5 1644.5 c 128,-1,34
 1077 1620 1077 1620 1010 1620 c 257,35,36
 964 1620 964 1620 935 1632.5 c 128,-1,37
 906 1645 906 1645 882 1660 c 128,-1,38
 858 1675 858 1675 834 1687.5 c 128,-1,39
 810 1700 810 1700 775 1700 c 257,40,41
NamedP: "mv02"
 757 1700 757 1700 744 1693 c 128,-1,42
 731 1686 731 1686 720.5 1675 c 128,-1,43
 710 1664 710 1664 702 1649.5 c 128,-1,44
 694 1635 694 1635 688 1620 c 257,45,-1
 507 1627 l 257,14,15
EndSplineSet
PickledDataWithLists: "(dp0
Vcom.adobe.type.autohint
p1
(c_codecs
encode
p2
(Vdata
p3
Vlatin1
p4
tp5
Rp6
g2
(V<data>\\u000a        <hintSetList>\\u000a          <hintset pointTag=\"ab01\">\\u000a            <hstem pos=\"19\" width=\"-21\"/>\\u000a            <hstem pos=\"407\" width=\"280\"/>\\u000a            <hstem pos=\"1518\" width=\"-20\"/>\\u000a          </hintset>\\u000a        </hintSetList>\\u000a      </data>
p7
g4
tp8
Rp9
Ntp10
sVcom.fontlab.ttprogram
p11
(g2
(Vdata
p12
g4
tp13
Rp14
g2
(V<data>\\u000a        <ttProgram>\\u000a          <ttc code=\"mdeltah\" delta=\"-1\" point=\"mh01\" ppm1=\"20\" ppm2=\"20\"/>\\u000a          <ttc code=\"mdeltah\" delta=\"1\" point=\"mh02\" ppm1=\"13\" ppm2=\"13\"/>\\u000a          <ttc align=\"round\" code=\"alignv\" point=\"av01\"/>\\u000a          <ttc code=\"alignt\" point=\"at01\" zone=\"t: 1\"/>\\u000a          <ttc code=\"alignb\" point=\"ab01\" zone=\"b: 0\"/>\\u000a          <ttc code=\"singlev\" point1=\"ab01\" point2=\"sv01\"/>\\u000a          <ttc code=\"singlev\" point1=\"av01\" point2=\"sv02\"/>\\u000a          <ttc code=\"mdeltav\" delta=\"-3\" point=\"mv01\" ppm1=\"20\" ppm2=\"20\"/>\\u000a          <ttc code=\"mdeltav\" delta=\"-8\" point=\"mv01\" ppm1=\"13\" ppm2=\"13\"/>\\u000a          <ttc code=\"mdeltav\" delta=\"8\" point=\"mh01\" ppm1=\"20\" ppm2=\"20\"/>\\u000a          <ttc code=\"mdeltav\" delta=\"3\" point=\"mh01\" ppm1=\"13\" ppm2=\"13\"/>\\u000a          <ttc code=\"mdeltav\" delta=\"8\" point=\"mh02\" ppm1=\"20\" ppm2=\"20\"/>\\u000a          <ttc code=\"mdeltav\" delta=\"7\" point=\"mh02\" ppm1=\"13\" ppm2=\"13\"/>\\u000a          <ttc code=\"mdeltav\" delta=\"2\" point=\"mv02\" ppm1=\"21\" ppm2=\"21\"/>\\u000a        </ttProgram>\\u000a      </data>
p15
g4
tp16
Rp17
Ntp18
s."
EndChar
StartChar: Igrave
Encoding: 35 204 35
GlifName: I_grave
Width: 1300
VWidth: 0
Flags: W
LayerCount: 2
Fore
SplineSet
353 1500 m 257,0,-1
NamedP: "at01"
 1231 1500 l 257,1,-1
NamedP: "sv01"
 1191 1272 l 257,2,-1
 918 1272 l 257,3,-1
 733 228 l 257,4,-1
 1034 228 l 257,5,-1
 959 0 l 257,6,-1
NamedP: "sv02"
 81 0 l 257,7,-1
NamedP: "ab01"
 121 228 l 257,8,-1
 399 228 l 257,9,-1
 584 1272 l 257,10,-1
 278 1272 l 257,11,-1
 353 1500 l 257,0,-1
NamedP: "at01"
996 1600 m 257,12,-1
NamedP: "ah01"
 781 1600 l 257,13,-1
NamedP: "sh01"
 553 1920 l 257,14,-1
 886 1900 l 257,15,-1
NamedP: "at02"
 996 1600 l 257,12,-1
NamedP: "ah01"
EndSplineSet
PickledDataWithLists: "(dp0
Vcom.adobe.type.autohint
p1
(c_codecs
encode
p2
(Vdata
p3
Vlatin1
p4
tp5
Rp6
g2
(V<data>\\u000a        <hintSetList>\\u000a          <hintset pointTag=\"ah01\">\\u000a            <hstem pos=\"1621\" width=\"-21\"/>\\u000a            <hstem pos=\"1920\" width=\"-20\"/>\\u000a          </hintset>\\u000a        </hintSetList>\\u000a      </data>
p7
g4
tp8
Rp9
Ntp10
sVcom.fontlab.ttprogram
p11
(g2
(Vdata
p12
g4
tp13
Rp14
g2
(V<data>\\u000a        <ttProgram>\\u000a          <ttc code=\"alignt\" point=\"at01\" zone=\"t: 1\"/>\\u000a          <ttc code=\"alignb\" point=\"ab01\" zone=\"b: 0\"/>\\u000a          <ttc code=\"singlev\" point1=\"at01\" point2=\"sv01\"/>\\u000a          <ttc code=\"singlev\" point1=\"ab01\" point2=\"sv02\"/>\\u000a          <ttc align=\"round\" code=\"alignh\" point=\"ah01\"/>\\u000a          <ttc code=\"singleh\" point1=\"ah01\" point2=\"sh01\" stem=\"X: 190\"/>\\u000a          <ttc align=\"round\" code=\"alignv\" point=\"ah01\"/>\\u000a          <ttc code=\"alignt\" point=\"at02\" zone=\"t: 1\"/>\\u000a        </ttProgram>\\u000a      </data>
p15
g4
tp16
Rp17
Ntp18
s."
EndChar
StartChar: Iacute
Encoding: 31 205 31
GlifName: I_acute
Width: 1300
VWidth: 0
Flags: W
LayerCount: 2
Fore
SplineSet
353 1500 m 257,0,-1
NamedP: "at01"
 1231 1500 l 257,1,-1
NamedP: "sv01"
 1191 1272 l 257,2,-1
 918 1272 l 257,3,-1
 733 228 l 257,4,-1
 1034 228 l 257,5,-1
 959 0 l 257,6,-1
NamedP: "sv02"
 81 0 l 257,7,-1
NamedP: "ab01"
 121 228 l 257,8,-1
 399 228 l 257,9,-1
 584 1272 l 257,10,-1
 278 1272 l 257,11,-1
 353 1500 l 257,0,-1
NamedP: "at01"
957 1900 m 257,12,-1
NamedP: "at02"
 1298 1920 l 257,13,-1
 956 1600 l 257,14,-1
 741 1600 l 257,15,-1
NamedP: "av01"
 957 1900 l 257,12,-1
NamedP: "at02"
EndSplineSet
PickledDataWithLists: "(dp0
Vcom.adobe.type.autohint
p1
(c_codecs
encode
p2
(Vdata
p3
Vlatin1
p4
tp5
Rp6
g2
(V<data>\\u000a        <hintSetList>\\u000a          <hintset pointTag=\"at02\">\\u000a            <hstem pos=\"1621\" width=\"-21\"/>\\u000a            <hstem pos=\"1920\" width=\"-20\"/>\\u000a          </hintset>\\u000a        </hintSetList>\\u000a      </data>
p7
g4
tp8
Rp9
Ntp10
sVcom.fontlab.ttprogram
p11
(g2
(Vdata
p12
g4
tp13
Rp14
g2
(V<data>\\u000a        <ttProgram>\\u000a          <ttc code=\"alignt\" point=\"at01\" zone=\"t: 1\"/>\\u000a          <ttc code=\"alignb\" point=\"ab01\" zone=\"b: 0\"/>\\u000a          <ttc code=\"singlev\" point1=\"at01\" point2=\"sv01\"/>\\u000a          <ttc code=\"singlev\" point1=\"ab01\" point2=\"sv02\"/>\\u000a          <ttc align=\"round\" code=\"alignv\" point=\"av01\"/>\\u000a          <ttc code=\"alignt\" point=\"at02\" zone=\"t: 1\"/>\\u000a        </ttProgram>\\u000a      </data>
p15
g4
tp16
Rp17
Ntp18
s."
EndChar
StartChar: Ocircumflex
Encoding: 51 212 51
GlifName: O_circumflex
Width: 1300
VWidth: 0
Flags: W
LayerCount: 2
Fore
SplineSet
487 -17 m 257,0,1
NamedP: "ab01"
 389 -17 389 -17 311.5 10.5 c 128,-1,2
 234 38 234 38 176.5 88.5 c 128,-1,3
 119 139 119 139 81 209 c 128,-1,4
 43 279 43 279 24 364.5 c 128,-1,5
 5 450 5 450 5 547.5 c 128,-1,6
 5 645 5 645 24 750 c 257,7,8
 42 855 42 855 76 952.5 c 128,-1,9
 110 1050 110 1050 158 1135.5 c 128,-1,10
 206 1221 206 1221 268 1291 c 128,-1,11
 330 1361 330 1361 405 1411.5 c 128,-1,12
 480 1462 480 1462 568.5 1489.5 c 128,-1,13
 657 1517 657 1517 758 1517 c 257,14,15
NamedP: "at01"
 905 1517 905 1517 1006 1456 c 128,-1,16
 1107 1395 1107 1395 1164 1291 c 128,-1,17
 1221 1187 1221 1187 1235 1047 c 128,-1,18
 1249 907 1249 907 1221 750 c 257,19,20
 1202 645 1202 645 1168.5 547.5 c 128,-1,21
 1135 450 1135 450 1087 364.5 c 128,-1,22
 1039 279 1039 279 977 209 c 128,-1,23
 915 139 915 139 839.5 88.5 c 128,-1,24
 764 38 764 38 675.5 10.5 c 128,-1,25
 587 -17 587 -17 487 -17 c 257,0,1
NamedP: "ab01"
865 721 m 257,26,27
 876 783 876 783 884 848 c 128,-1,28
 892 913 892 913 893.5 974.5 c 128,-1,29
 895 1036 895 1036 887 1090.5 c 128,-1,30
 879 1145 879 1145 858 1185.5 c 128,-1,31
 837 1226 837 1226 801 1250 c 128,-1,32
 765 1274 765 1274 709 1274 c 257,33,34
 657 1274 657 1274 615 1252.5 c 128,-1,35
 573 1231 573 1231 539.5 1194.5 c 128,-1,36
 506 1158 506 1158 480.5 1109.5 c 128,-1,37
 455 1061 455 1061 435.5 1006.5 c 128,-1,38
 416 952 416 952 402 894.5 c 128,-1,39
 388 837 388 837 379 783 c 257,40,41
 368 720 368 720 360 654.5 c 128,-1,42
 352 589 352 589 351 527 c 128,-1,43
 350 465 350 465 358 410.5 c 128,-1,44
 366 356 366 356 387 315 c 128,-1,45
 408 274 408 274 444 250 c 128,-1,46
 480 226 480 226 535 226 c 257,47,48
 612 226 612 226 668 273 c 128,-1,49
 724 320 724 320 763 393 c 128,-1,50
 802 466 802 466 826.5 553 c 128,-1,51
 851 640 851 640 865 721 c 257,26,27
1125 1620 m 257,52,-1
NamedP: "sv01"
 905 1620 l 257,53,-1
 853 1723 l 257,54,-1
 846 1850 l 257,55,-1
 793 1723 l 257,56,-1
 694 1620 l 257,57,-1
 455 1620 l 257,58,-1
NamedP: "av01"
 699 1900 l 257,59,-1
 993 1920 l 257,60,-1
 1125 1620 l 257,52,-1
NamedP: "sv01"
EndSplineSet
PickledDataWithLists: "(dp0
Vcom.adobe.type.autohint
p1
(c_codecs
encode
p2
(Vdata
p3
Vlatin1
p4
tp5
Rp6
g2
(V<data>\\u000a        <hintSetList/>\\u000a      </data>
p7
g4
tp8
Rp9
Ntp10
sVcom.fontlab.ttprogram
p11
(g2
(Vdata
p12
g4
tp13
Rp14
g2
(V<data>\\u000a        <ttProgram>\\u000a          <ttc code=\"alignt\" point=\"at01\" zone=\"t: 1\"/>\\u000a          <ttc code=\"alignb\" point=\"ab01\" zone=\"b: 0\"/>\\u000a          <ttc align=\"round\" code=\"alignv\" point=\"av01\"/>\\u000a          <ttc code=\"singlev\" point1=\"av01\" point2=\"sv01\"/>\\u000a        </ttProgram>\\u000a      </data>
p15
g4
tp16
Rp17
Ntp18
s."
EndChar
StartChar: Otilde
Encoding: 58 213 58
GlifName: O_tilde
Width: 1300
VWidth: 0
Flags: W
LayerCount: 2
Fore
SplineSet
514 -17 m 257,0,1
NamedP: "ab01"
 416 -17 416 -17 338.5 10.5 c 128,-1,2
 261 38 261 38 203.5 88.5 c 128,-1,3
 146 139 146 139 108 209 c 128,-1,4
 70 279 70 279 51 364.5 c 128,-1,5
 32 450 32 450 32 547.5 c 128,-1,6
 32 645 32 645 51 750 c 257,7,8
 69 855 69 855 103 952.5 c 128,-1,9
 137 1050 137 1050 185 1135.5 c 128,-1,10
 233 1221 233 1221 295 1291 c 128,-1,11
 357 1361 357 1361 432 1411.5 c 128,-1,12
 507 1462 507 1462 595.5 1489.5 c 128,-1,13
 684 1517 684 1517 785 1517 c 257,14,15
NamedP: "at01"
 932 1517 932 1517 1033 1456 c 128,-1,16
 1134 1395 1134 1395 1191 1291 c 128,-1,17
 1248 1187 1248 1187 1262 1047 c 128,-1,18
 1276 907 1276 907 1248 750 c 257,19,20
 1229 645 1229 645 1195.5 547.5 c 128,-1,21
 1162 450 1162 450 1114 364.5 c 128,-1,22
 1066 279 1066 279 1004 209 c 128,-1,23
 942 139 942 139 866.5 88.5 c 128,-1,24
 791 38 791 38 702.5 10.5 c 128,-1,25
 614 -17 614 -17 514 -17 c 257,0,1
NamedP: "ab01"
892 721 m 257,26,27
 903 783 903 783 911 848 c 128,-1,28
 919 913 919 913 920.5 974.5 c 128,-1,29
 922 1036 922 1036 914 1090.5 c 128,-1,30
 906 1145 906 1145 885 1185.5 c 128,-1,31
 864 1226 864 1226 828 1250 c 128,-1,32
 792 1274 792 1274 736 1274 c 257,33,34
 684 1274 684 1274 642 1252.5 c 128,-1,35
 600 1231 600 1231 566.5 1194.5 c 128,-1,36
 533 1158 533 1158 507.5 1109.5 c 128,-1,37
 482 1061 482 1061 462.5 1006.5 c 128,-1,38
 443 952 443 952 429 894.5 c 128,-1,39
 415 837 415 837 406 783 c 257,40,41
 395 720 395 720 387 654.5 c 128,-1,42
 379 589 379 589 378 527 c 128,-1,43
 377 465 377 465 385 410.5 c 128,-1,44
 393 356 393 356 414 315 c 128,-1,45
 435 274 435 274 471 250 c 128,-1,46
 507 226 507 226 562 226 c 257,47,48
 639 226 639 226 695 273 c 128,-1,49
 751 320 751 320 790 393 c 128,-1,50
 829 466 829 466 853.5 553 c 128,-1,51
 878 640 878 640 892 721 c 257,26,27
455 1627 m 257,52,53
 466 1667 466 1667 490 1712.5 c 128,-1,54
 514 1758 514 1758 551 1796 c 128,-1,55
 588 1834 588 1834 638 1859 c 128,-1,56
 688 1884 688 1884 751 1884 c 257,57,58
 800 1884 800 1884 831.5 1871.5 c 128,-1,59
 863 1859 863 1859 887 1844 c 128,-1,60
 911 1829 911 1829 933.5 1816.5 c 128,-1,61
 956 1804 956 1804 987 1804 c 257,62,63
 1008 1804 1008 1804 1023.5 1811 c 128,-1,64
 1039 1818 1039 1818 1050 1830 c 128,-1,65
 1061 1842 1061 1842 1069 1858 c 128,-1,66
 1077 1874 1077 1874 1083 1892 c 257,67,-1
 1249 1882 l 257,68,69
 1238 1838 1238 1838 1216 1791.5 c 128,-1,70
 1194 1745 1194 1745 1159 1707 c 128,-1,71
 1124 1669 1124 1669 1074.5 1644.5 c 128,-1,72
 1025 1620 1025 1620 958 1620 c 257,73,74
 912 1620 912 1620 883 1632.5 c 128,-1,75
 854 1645 854 1645 830 1660 c 128,-1,76
 806 1675 806 1675 782 1687.5 c 128,-1,77
 758 1700 758 1700 723 1700 c 257,78,79
NamedP: "mv01"
 705 1700 705 1700 692 1693 c 128,-1,80
 679 1686 679 1686 668.5 1675 c 128,-1,81
 658 1664 658 1664 650 1649.5 c 128,-1,82
 642 1635 642 1635 636 1620 c 257,83,-1
 455 1627 l 257,52,53
EndSplineSet
PickledDataWithLists: "(dp0
Vcom.adobe.type.autohint
p1
(c_codecs
encode
p2
(Vdata
p3
Vlatin1
p4
tp5
Rp6
g2
(V<data>\\u000a        <hintSetList>\\u000a          <hintset pointTag=\"ab01\">\\u000a            <hstem pos=\"-16\" width=\"237\"/>\\u000a            <hstem pos=\"1279\" width=\"237\"/>\\u000a            <vstem pos=\"83\" width=\"349\"/>\\u000a            <vstem pos=\"1169\" width=\"349\"/>\\u000a          </hintset>\\u000a        </hintSetList>\\u000a      </data>
p7
g4
tp8
Rp9
Ntp10
sVcom.fontlab.ttprogram
p11
(g2
(Vdata
p12
g4
tp13
Rp14
g2
(V<data>\\u000a        <ttProgram>\\u000a          <ttc code=\"alignt\" point=\"at01\" zone=\"t: 1\"/>\\u000a          <ttc code=\"alignb\" point=\"ab01\" zone=\"b: 0\"/>\\u000a          <ttc code=\"mdeltav\" delta=\"2\" point=\"mv01\" ppm1=\"21\" ppm2=\"21\"/>\\u000a        </ttProgram>\\u000a      </data>
p15
g4
tp16
Rp17
Ntp18
s."
EndChar
StartChar: Ucircumflex
Encoding: 75 219 75
GlifName: U_circumflex
Width: 1300
VWidth: 0
Flags: W
LayerCount: 2
Fore
SplineSet
1261 1500 m 257,0,-1
NamedP: "sv01"
 1091 534 l 257,1,2
 1067 395 1067 395 1011.5 291.5 c 128,-1,3
 956 188 956 188 874 119.5 c 128,-1,4
 792 51 792 51 685.5 17 c 128,-1,5
 579 -17 579 -17 453 -17 c 257,6,7
NamedP: "ab01"
 317 -17 317 -17 230.5 26 c 128,-1,8
 144 69 144 69 99.5 148 c 128,-1,9
 55 227 55 227 48.5 337.5 c 128,-1,10
 42 448 42 448 66 582 c 257,11,-1
 186 1263 l 257,12,-1
 186 1500 l 257,13,-1
NamedP: "at01"
 563 1520 l 257,14,-1
NamedP: "at02"
 394 564 l 257,15,16
 380 483 380 483 375 419 c 128,-1,17
 370 355 370 355 381.5 311 c 128,-1,18
 393 267 393 267 425 244 c 128,-1,19
 457 221 457 221 516 221 c 257,20,21
 607 221 607 221 668.5 294.5 c 128,-1,22
 730 368 730 368 756 516 c 257,23,-1
 929 1500 l 257,24,-1
 1261 1500 l 257,0,-1
NamedP: "sv01"
1135 1620 m 257,25,-1
NamedP: "sv02"
 915 1620 l 257,26,-1
 863 1723 l 257,27,-1
 856 1850 l 257,28,-1
 803 1723 l 257,29,-1
 704 1620 l 257,30,-1
 465 1620 l 257,31,-1
NamedP: "av01"
 709 1900 l 257,32,-1
 1003 1920 l 257,33,-1
 1135 1620 l 257,25,-1
NamedP: "sv02"
EndSplineSet
PickledDataWithLists: "(dp0
Vcom.adobe.type.autohint
p1
(c_codecs
encode
p2
(Vdata
p3
Vlatin1
p4
tp5
Rp6
g2
(V<data>\\u000a        <hintSetList/>\\u000a      </data>
p7
g4
tp8
Rp9
Ntp10
sVcom.fontlab.ttprogram
p11
(g2
(Vdata
p12
g4
tp13
Rp14
g2
(V<data>\\u000a        <ttProgram>\\u000a          <ttc code=\"alignt\" point=\"at01\" zone=\"t: 1\"/>\\u000a          <ttc code=\"alignt\" point=\"at02\" zone=\"t: 1\"/>\\u000a          <ttc code=\"alignb\" point=\"ab01\" zone=\"b: 0\"/>\\u000a          <ttc code=\"singlev\" point1=\"at01\" point2=\"sv01\"/>\\u000a          <ttc align=\"round\" code=\"alignv\" point=\"av01\"/>\\u000a          <ttc code=\"singlev\" point1=\"av01\" point2=\"sv02\"/>\\u000a        </ttProgram>\\u000a      </data>
p15
g4
tp16
Rp17
Ntp18
s."
EndChar
StartChar: Thorn
Encoding: 72 222 72
GlifName: T_horn
Width: 1300
VWidth: 0
Flags: W
LayerCount: 2
Fore
SplineSet
310 1500 m 257,0,-1
NamedP: "at01"
 693 1500 l 257,1,-1
NamedP: "sv01"
 659 1311 l 257,2,-1
NamedP: "av02"
 773 1311 l 257,3,4
NamedP: "sv02"
 824 1311 824 1311 879.5 1302 c 128,-1,5
 935 1293 935 1293 987.5 1272.5 c 128,-1,6
 1040 1252 1040 1252 1085 1219 c 128,-1,7
 1130 1186 1130 1186 1160.5 1138 c 128,-1,8
 1191 1090 1191 1090 1203 1026.5 c 128,-1,9
 1215 963 1215 963 1201 882 c 257,10,11
NamedP: "sv03"
 1191 825 1191 825 1171.5 763.5 c 128,-1,12
 1152 702 1152 702 1114.5 643 c 128,-1,13
 1077 584 1077 584 1018 531 c 128,-1,14
 959 478 959 478 870 438 c 257,15,16
 842 426 842 426 811 415.5 c 128,-1,17
 780 405 780 405 744 397.5 c 128,-1,18
 708 390 708 390 665 385.5 c 128,-1,19
 622 381 622 381 571 381 c 257,20,-1
NamedP: "sv04"
 495 381 l 257,21,-1
NamedP: "av01"
 428 0 l 257,22,-1
NamedP: "sv05"
 86 0 l 257,23,-1
NamedP: "ab01"
 310 1267 l 257,24,-1
 310 1500 l 257,0,-1
NamedP: "at01"
621 1093 m 257,25,-1
 535 605 l 257,26,-1
 639 605 l 257,27,28
 688 605 688 605 728 626 c 128,-1,29
 768 647 768 647 798 684.5 c 128,-1,30
 828 722 828 722 848 772.5 c 128,-1,31
 868 823 868 823 879 882 c 257,32,33
NamedP: "av03"
 896 983 896 983 849.5 1038 c 128,-1,34
 803 1093 803 1093 706 1093 c 257,35,-1
 621 1093 l 257,25,-1
EndSplineSet
PickledDataWithLists: "(dp0
Vcom.adobe.type.autohint
p1
(c_codecs
encode
p2
(Vdata
p3
Vlatin1
p4
tp5
Rp6
g2
(V<data>\\u000a        <hintSetList>\\u000a          <hintset pointTag=\"at01\">\\u000a            <hstem pos=\"21\" width=\"-21\"/>\\u000a            <hstem pos=\"301\" width=\"156\"/>\\u000a            <hstem pos=\"1051\" width=\"150\"/>\\u000a            <hstem pos=\"1500\" width=\"-20\"/>\\u000a            <vstem pos=\"200\" width=\"200\"/>\\u000a            <vstem pos=\"870\" width=\"180\"/>\\u000a          </hintset>\\u000a        </hintSetList>\\u000a      </data>
p7
g4
tp8
Rp9
Ntp10
sVcom.fontlab.ttprogram
p11
(g2
(Vdata
p12
g4
tp13
Rp14
g2
(V<data>\\u000a        <ttProgram>\\u000a          <ttc align=\"round\" code=\"alignv\" point=\"av01\"/>\\u000a          <ttc align=\"round\" code=\"alignv\" point=\"av02\"/>\\u000a          <ttc align=\"round\" code=\"alignv\" point=\"av03\"/>\\u000a          <ttc code=\"alignt\" point=\"at01\" zone=\"t: 1\"/>\\u000a          <ttc code=\"alignb\" point=\"ab01\" zone=\"b: 0\"/>\\u000a          <ttc code=\"singlev\" point1=\"at01\" point2=\"sv01\"/>\\u000a          <ttc code=\"singlev\" point1=\"av02\" point2=\"sv02\"/>\\u000a          <ttc code=\"singlev\" point1=\"av03\" point2=\"sv03\"/>\\u000a          <ttc code=\"singlev\" point1=\"av01\" point2=\"sv04\"/>\\u000a          <ttc code=\"singlev\" point1=\"ab01\" point2=\"sv05\"/>\\u000a        </ttProgram>\\u000a      </data>
p15
g4
tp16
Rp17
Ntp18
s."
EndChar
StartChar: germandbls
Encoding: 266 223 266
GlifName: germandbls
Width: 1300
VWidth: 0
Flags: W
LayerCount: 2
Fore
SplineSet
417 -17 m 257,0,-1
NamedP: "ab01"
 78 0 l 257,1,-1
 266 1073 l 257,2,3
 284 1176 284 1176 333.5 1254 c 128,-1,4
 383 1332 383 1332 456.5 1384.5 c 128,-1,5
 530 1437 530 1437 623.5 1463 c 128,-1,6
 717 1489 717 1489 825 1489 c 257,7,8
NamedP: "av01"
 927 1489 927 1489 1011 1461 c 128,-1,9
 1095 1433 1095 1433 1146 1373 c 257,10,11
 1189 1322 1189 1322 1208 1265.5 c 128,-1,12
 1227 1209 1227 1209 1216 1127 c 257,13,14
 1209 1074 1209 1074 1186 1026.5 c 128,-1,15
 1163 979 1163 979 1128 939 c 128,-1,16
 1093 899 1093 899 1048 867 c 128,-1,17
 1003 835 1003 835 952 811 c 257,18,19
NamedP: "iv01"
 1012 790 1012 790 1061.5 759 c 128,-1,20
 1111 728 1111 728 1145 686 c 128,-1,21
 1179 644 1179 644 1192.5 589.5 c 128,-1,22
 1206 535 1206 535 1194 466 c 257,23,24
 1179 380 1179 380 1143 312 c 128,-1,25
 1107 244 1107 244 1057 192 c 128,-1,26
 1007 140 1007 140 945.5 103.5 c 128,-1,27
 884 67 884 67 818 44 c 128,-1,28
 752 21 752 21 683.5 10.5 c 128,-1,29
 615 0 615 0 551 0 c 257,30,-1
NamedP: "ab02"
 509 224 l 257,31,32
 655 227 655 227 745.5 283 c 128,-1,33
 836 339 836 339 856 457 c 257,34,35
 866 516 866 516 856.5 558.5 c 128,-1,36
 847 601 847 601 821.5 628 c 128,-1,37
 796 655 796 655 756 668 c 128,-1,38
 716 681 716 681 665 681 c 257,39,-1
 609 902 l 257,40,41
 664 907 664 907 711 921.5 c 128,-1,42
 758 936 758 936 793.5 961 c 128,-1,43
 829 986 829 986 852.5 1022 c 128,-1,44
 876 1058 876 1058 885 1107 c 257,45,46
 891 1142 891 1142 885.5 1173 c 128,-1,47
 880 1204 880 1204 866.5 1227 c 128,-1,48
 853 1250 853 1250 831.5 1263 c 128,-1,49
 810 1276 810 1276 785 1276 c 257,50,51
 714 1276 714 1276 673 1239.5 c 128,-1,52
 632 1203 632 1203 617 1119 c 257,53,-1
 417 -17 l 257,0,-1
NamedP: "ab01"
EndSplineSet
PickledDataWithLists: "(dp0
Vcom.fontlab.ttprogram
p1
(c_codecs
encode
p2
(Vdata
p3
Vlatin1
p4
tp5
Rp6
g2
(V<data>\\u000a        <ttProgram>\\u000a          <ttc align=\"round\" code=\"alignv\" point=\"av01\"/>\\u000a          <ttc code=\"alignb\" point=\"ab01\" zone=\"b: 0\"/>\\u000a          <ttc code=\"alignb\" point=\"ab02\" zone=\"b: 0\"/>\\u000a          <ttc code=\"interpolatev\" point=\"iv01\" point1=\"av01\" point2=\"ab02\"/>\\u000a        </ttProgram>\\u000a      </data>
p7
g4
tp8
Rp9
Ntp10
s."
EndChar
StartChar: aacute
Encoding: 90 225 90
GlifName: aacute
Width: 1300
VWidth: 0
Flags: W
LayerCount: 2
Fore
SplineSet
840 885 m 257,0,1
 820 888 820 888 803 890 c 128,-1,2
 786 892 786 892 779 893 c 257,3,4
 704 893 704 893 646.5 862 c 128,-1,5
 589 831 589 831 548 779 c 128,-1,6
 507 727 507 727 482.5 657.5 c 128,-1,7
 458 588 458 588 450 510 c 257,8,9
 444 449 444 449 446.5 394.5 c 128,-1,10
 449 340 449 340 460 298.5 c 128,-1,11
 471 257 471 257 491.5 233 c 128,-1,12
 512 209 512 209 541 209 c 257,13,14
 575 209 575 209 605.5 220.5 c 128,-1,15
 636 232 636 232 662.5 250 c 128,-1,16
 689 268 689 268 709.5 289 c 128,-1,17
 730 310 730 310 745 329 c 257,18,-1
 840 885 l 257,0,1
484 -16 m 257,19,20
NamedP: "ab01"
 407 -15 407 -15 350 8.5 c 128,-1,21
 293 32 293 32 252.5 72 c 128,-1,22
 212 112 212 112 187.5 165.5 c 128,-1,23
 163 219 163 219 151.5 280.5 c 128,-1,24
 140 342 140 342 139.5 409 c 128,-1,25
 139 476 139 476 148 542 c 257,26,27
 157 614 157 614 181 685 c 128,-1,28
 205 756 205 756 244.5 820 c 128,-1,29
 284 884 284 884 338.5 938.5 c 128,-1,30
 393 993 393 993 463.5 1032.5 c 128,-1,31
 534 1072 534 1072 621.5 1094.5 c 128,-1,32
 709 1117 709 1117 813 1117 c 257,33,34
NamedP: "at01"
 874 1116 874 1116 936 1108 c 257,35,36
 990 1101 990 1101 1053 1086 c 128,-1,37
 1116 1071 1116 1071 1174 1043 c 257,38,-1
 1031 209 l 257,39,-1
 1017 0 l 257,40,-1
NamedP: "sv01"
 695 0 l 257,41,-1
NamedP: "ab02"
 723 162 l 257,42,-1
 568 -10 l 257,43,44
 557 -12 557 -12 539 -14.5 c 128,-1,45
 521 -17 521 -17 484 -16 c 257,19,20
NamedP: "ab01"
892 1500 m 257,46,-1
NamedP: "at02"
 1233 1520 l 257,47,-1
 891 1200 l 257,48,-1
 676 1200 l 257,49,-1
NamedP: "av01"
 892 1500 l 257,46,-1
NamedP: "at02"
EndSplineSet
PickledDataWithLists: "(dp0
Vcom.adobe.type.autohint
p1
(c_codecs
encode
p2
(Vdata
p3
Vlatin1
p4
tp5
Rp6
g2
(V<data>\\u000a        <hintSetList/>\\u000a      </data>
p7
g4
tp8
Rp9
Ntp10
sVcom.fontlab.ttprogram
p11
(g2
(Vdata
p12
g4
tp13
Rp14
g2
(V<data>\\u000a        <ttProgram>\\u000a          <ttc code=\"alignt\" point=\"at01\" zone=\"t: x\"/>\\u000a          <ttc code=\"alignb\" point=\"ab01\" zone=\"b: 0\"/>\\u000a          <ttc code=\"alignb\" point=\"ab02\" zone=\"b: 0\"/>\\u000a          <ttc code=\"singlev\" point1=\"ab02\" point2=\"sv01\"/>\\u000a          <ttc align=\"round\" code=\"alignv\" point=\"av01\"/>\\u000a          <ttc code=\"alignt\" point=\"at02\" zone=\"t: 1\"/>\\u000a        </ttProgram>\\u000a      </data>
p15
g4
tp16
Rp17
Ntp18
s."
EndChar
StartChar: ccedilla
Encoding: 168 231 168
GlifName: ccedilla
Width: 1300
VWidth: 0
Flags: W
LayerCount: 2
Fore
SplineSet
1006 772 m 257,0,1
NamedP: "hr00"
 969 833 969 833 915 859 c 128,-1,2
 861 885 861 885 784 885 c 257,3,4
 723 885 723 885 662.5 861.5 c 128,-1,5
 602 838 602 838 551.5 795 c 128,-1,6
 501 752 501 752 464.5 690.5 c 128,-1,7
 428 629 428 629 415 553 c 257,8,9
 403 484 403 484 419.5 425.5 c 128,-1,10
 436 367 436 367 472.5 325 c 128,-1,11
 509 283 509 283 560.5 259.5 c 128,-1,12
 612 236 612 236 670 236 c 257,13,14
 722 236 722 236 766 245.5 c 128,-1,15
 810 255 810 255 847 271.5 c 128,-1,16
 884 288 884 288 913 309 c 128,-1,17
 942 330 942 330 964 353 c 257,18,-1
 1050 137 l 257,19,20
NamedP: "mh01"
 1029 121 1029 121 989 95 c 128,-1,21
 949 69 949 69 891.5 44 c 128,-1,22
 834 19 834 19 759 1 c 128,-1,23
 684 -17 684 -17 593 -17 c 257,24,25
NamedP: "ab01"
 460 -17 460 -17 359.5 29 c 128,-1,26
 259 75 259 75 195.5 153.5 c 128,-1,27
 132 232 132 232 108.5 336 c 128,-1,28
 85 440 85 440 105 555 c 257,29,30
 117 624 117 624 141.5 693 c 128,-1,31
 166 762 166 762 205 824.5 c 128,-1,32
 244 887 244 887 299 940.5 c 128,-1,33
 354 994 354 994 426.5 1033 c 128,-1,34
 499 1072 499 1072 591 1094.5 c 128,-1,35
 683 1117 683 1117 796 1117 c 257,36,37
NamedP: "at01"
 930 1117 930 1117 1033.5 1079.5 c 128,-1,38
 1137 1042 1137 1042 1200 957 c 257,39,-1
 1006 772 l 257,0,1
NamedP: "hr00"
695 0 m 257,40,41
NamedP: "sv01"
 719 -20 719 -20 737 -46 c 257,42,43
 752 -69 752 -69 761.5 -100.5 c 128,-1,44
 771 -132 771 -132 764 -171 c 257,45,46
 755 -221 755 -221 724 -264 c 128,-1,47
 693 -307 693 -307 648 -338.5 c 128,-1,48
 603 -370 603 -370 547.5 -388.5 c 128,-1,49
 492 -407 492 -407 435 -407 c 257,50,51
NamedP: "av01"
 375 -407 375 -407 320.5 -389 c 128,-1,52
 266 -371 266 -371 222 -349 c 257,53,54
 171 -323 171 -323 126 -290 c 257,55,-1
NamedP: "mh02"
 269 -131 l 257,56,57
 298 -151 298 -151 327 -166 c 257,58,59
 351 -179 351 -179 378.5 -189.5 c 128,-1,60
 406 -200 406 -200 428 -200 c 257,61,62
 451 -200 451 -200 473.5 -187.5 c 128,-1,63
 496 -175 496 -175 501 -147 c 257,64,65
 505 -126 505 -126 497 -102.5 c 128,-1,66
 489 -79 489 -79 477 -58 c 128,-1,67
 465 -37 465 -37 452 -21.5 c 128,-1,68
NamedP: "ab02"
 439 -6 439 -6 433 0 c 257,69,-1
 695 0 l 257,40,41
NamedP: "sv01"
EndSplineSet
PickledDataWithLists: "(dp0
Vcom.adobe.type.autohint
p1
(c_codecs
encode
p2
(Vdata
p3
Vlatin1
p4
tp5
Rp6
g2
(V<data>\\u000a        <hintSetList>\\u000a          <hintset pointTag=\"hr00\">\\u000a            <hstem pos=\"-16\" width=\"232\"/>\\u000a            <hstem pos=\"892\" width=\"224\"/>\\u000a            <vstem pos=\"35\" width=\"331\"/>\\u000a          </hintset>\\u000a        </hintSetList>\\u000a      </data>
p7
g4
tp8
Rp9
Ntp10
sVcom.fontlab.ttprogram
p11
(g2
(Vdata
p12
g4
tp13
Rp14
g2
(V<data>\\u000a        <ttProgram>\\u000a          <ttc code=\"alignt\" point=\"at01\" zone=\"t: x\"/>\\u000a          <ttc code=\"alignb\" point=\"ab01\" zone=\"b: 0\"/>\\u000a          <ttc align=\"round\" code=\"alignv\" point=\"av01\"/>\\u000a          <ttc code=\"alignb\" point=\"ab02\" zone=\"b: 0\"/>\\u000a          <ttc code=\"singlev\" point1=\"ab02\" point2=\"sv01\" round=\"true\"/>\\u000a          <ttc code=\"mdeltah\" delta=\"-4\" point=\"mh01\" ppm1=\"20\" ppm2=\"20\"/>\\u000a          <ttc code=\"mdeltah\" delta=\"3\" point=\"mh02\" ppm1=\"20\" ppm2=\"20\"/>\\u000a        </ttProgram>\\u000a      </data>
p15
g4
tp16
Rp17
Ntp18
s."
EndChar
StartChar: idieresis
Encoding: 289 239 289
GlifName: idieresis
Width: 1300
VWidth: 0
Flags: W
LayerCount: 2
Fore
SplineSet
515 834 m 257,0,-1
NamedP: "hr00"
 606 896 l 257,1,-1
 510 876 l 257,2,-1
 247 876 l 257,3,-1
 247 1100 l 257,4,-1
 889 1100 l 257,5,-1
 770 423 l 258,6,7
 755 341 755 341 784.5 288.5 c 0,8,9
 814 236 814 236 873 236 c 256,10,11
 939 236 939 236 992.5 257.5 c 0,12,13
 1046 279 1046 279 1107 330 c 257,14,-1
 1125 98 l 257,15,16
 1124 97 1124 97 1096.5 76 c 0,17,18
 1069 55 1069 55 1049 44.5 c 0,19,20
 1029 34 1029 34 992 16.5 c 0,21,22
 955 -1 955 -1 909 -9 c 0,23,24
 863 -17 863 -17 809 -17 c 256,25,26
 719 -17 719 -17 649 6.5 c 0,27,28
 579 30 579 30 536 71 c 0,29,30
 493 112 493 112 466 169 c 0,31,32
 439 226 439 226 436 292 c 0,33,34
 433 358 433 358 444 432 c 257,35,-1
 515 834 l 257,0,-1
NamedP: "hr00"
485 1566 m 257,36,-1
 761 1566 l 257,37,-1
 714 1300 l 257,38,-1
 438 1300 l 257,39,-1
 485 1566 l 257,36,-1
885 1566 m 257,40,-1
 1161 1566 l 257,41,-1
 1114 1300 l 257,42,-1
 838 1300 l 257,43,-1
 885 1566 l 257,40,-1
EndSplineSet
PickledDataWithLists: "(dp0
Vcom.adobe.type.autohint
p1
(c_codecs
encode
p2
(Vdata
p3
Vlatin1
p4
tp5
Rp6
g2
(V<data>\\u000a        <hintSetList>\\u000a          <hintset pointTag=\"hr00\">\\u000a            <hstem pos=\"21\" width=\"-21\"/>\\u000a            <hstem pos=\"1300\" width=\"200\"/>\\u000a            <vstem pos=\"200\" width=\"190\"/>\\u000a          </hintset>\\u000a        </hintSetList>\\u000a      </data>
p7
g4
tp8
Rp9
Ntp10
s."
EndChar
StartChar: eth
Encoding: 240 240 240
GlifName: eth
Width: 1300
VWidth: 0
Flags: W
LayerCount: 2
Fore
SplineSet
496 1154 m 257,0,-1
NamedP: "hr00"
 727 1320 l 257,1,-1
 579 1296 l 257,2,3
 537 1310 537 1310 502 1310 c 257,4,5
 475 1310 475 1310 449.5 1307.5 c 128,-1,6
 424 1305 424 1305 401 1300 c 257,7,-1
 401 1508 l 257,8,9
 434 1511 434 1511 456.5 1513 c 128,-1,10
 479 1515 479 1515 494.5 1516 c 128,-1,11
 510 1517 510 1517 520.5 1517 c 128,-1,12
 531 1517 531 1517 540 1517 c 257,13,14
NamedP: "at01"
 640 1517 640 1517 723.5 1495 c 128,-1,15
 807 1473 807 1473 876 1433 c 257,16,-1
 1048 1561 l 257,17,-1
 1158 1395 l 257,18,-1
 946 1239 l 257,19,-1
NamedP: "av01"
 1074 1239 l 257,20,21
NamedP: "sv01"
 1115 1177 1115 1177 1140.5 1103 c 128,-1,22
 1166 1029 1166 1029 1177.5 948 c 128,-1,23
 1189 867 1189 867 1186.5 781.5 c 128,-1,24
 1184 696 1184 696 1169 612 c 257,25,26
 1160 558 1160 558 1138 491 c 128,-1,27
 1116 424 1116 424 1080 354 c 128,-1,28
 1044 284 1044 284 993 217.5 c 128,-1,29
 942 151 942 151 873.5 98.5 c 128,-1,30
 805 46 805 46 719 14.5 c 128,-1,31
 633 -17 633 -17 527 -17 c 257,32,33
NamedP: "ab01"
 409 -17 409 -17 324 18.5 c 128,-1,34
 239 54 239 54 188 118.5 c 128,-1,35
 137 183 137 183 120.5 273 c 128,-1,36
 104 363 104 363 124 472 c 257,37,38
 144 584 144 584 192 671 c 128,-1,39
 240 758 240 758 311 816.5 c 128,-1,40
 382 875 382 875 473.5 905.5 c 128,-1,41
 565 936 565 936 673 936 c 257,42,43
NamedP: "dv01"
 721 936 721 936 768.5 929 c 128,-1,44
 816 922 816 922 861 904 c 257,45,46
 862 929 862 929 858.5 958.5 c 128,-1,47
 855 988 855 988 846 1018 c 128,-1,48
 837 1048 837 1048 823.5 1076 c 128,-1,49
 810 1104 810 1104 792 1126 c 257,50,-1
 610 993 l 257,51,-1
NamedP: "dv02"
 496 1154 l 257,0,-1
NamedP: "hr00"
844 596 m 257,52,53
 830 616 830 616 812.5 637 c 128,-1,54
 795 658 795 658 772 674.5 c 128,-1,55
 749 691 749 691 718.5 701.5 c 128,-1,56
 688 712 688 712 648 712 c 257,57,58
 602 712 602 712 564.5 692 c 128,-1,59
 527 672 527 672 498 637.5 c 128,-1,60
 469 603 469 603 449.5 556 c 128,-1,61
 430 509 430 509 421 455 c 257,62,63
 411 401 411 401 417.5 356 c 128,-1,64
 424 311 424 311 443.5 278 c 128,-1,65
 463 245 463 245 494.5 226.5 c 128,-1,66
 526 208 526 208 566 208 c 257,67,68
 605 208 605 208 640.5 225.5 c 128,-1,69
 676 243 676 243 706 272.5 c 128,-1,70
 736 302 736 302 760 341.5 c 128,-1,71
 784 381 784 381 801 426 c 257,72,73
 818 469 818 469 827 510 c 128,-1,74
 836 551 836 551 844 596 c 257,52,53
EndSplineSet
PickledDataWithLists: "(dp0
Vcom.adobe.type.autohint
p1
(c_codecs
encode
p2
(Vdata
p3
Vlatin1
p4
tp5
Rp6
g2
(V<data>\\u000a        <hintSetList>\\u000a          <hintset pointTag=\"hr00\">\\u000a            <hstem pos=\"-20\" width=\"160\"/>\\u000a            <hstem pos=\"927\" width=\"-170\"/>\\u000a            <hstem pos=\"1378\" width=\"142\"/>\\u000a            <vstem pos=\"146\" width=\"180\"/>\\u000a            <vstem pos=\"916\" width=\"206\"/>\\u000a          </hintset>\\u000a        </hintSetList>\\u000a      </data>
p7
g4
tp8
Rp9
Ntp10
sVcom.fontlab.ttprogram
p11
(g2
(Vdata
p12
g4
tp13
Rp14
g2
(V<data>\\u000a        <ttProgram>\\u000a          <ttc align=\"round\" code=\"alignv\" point=\"av01\"/>\\u000a          <ttc code=\"alignt\" point=\"at01\" zone=\"t: 1\"/>\\u000a          <ttc code=\"alignb\" point=\"ab01\" zone=\"b: 0\"/>\\u000a          <ttc code=\"doublev\" point1=\"dv01\" point2=\"dv02\"/>\\u000a          <ttc code=\"singlev\" point1=\"av01\" point2=\"sv01\"/>\\u000a        </ttProgram>\\u000a      </data>
p15
g4
tp16
Rp17
Ntp18
s."
EndChar
StartChar: otilde
Encoding: 359 245 359
GlifName: otilde
Width: 1300
VWidth: 0
Flags: W
LayerCount: 2
Fore
SplineSet
556 -17 m 257,0,1
NamedP: "ab01"
 436 -17 436 -17 343.5 26.5 c 128,-1,2
 251 70 251 70 192.5 146.5 c 128,-1,3
 134 223 134 223 112 327 c 128,-1,4
 90 431 90 431 111 553 c 257,5,6
 132 674 132 674 189.5 777.5 c 128,-1,7
 247 881 247 881 332 956.5 c 128,-1,8
 417 1032 417 1032 525.5 1074.5 c 128,-1,9
 634 1117 634 1117 757 1117 c 257,10,11
NamedP: "at01"
 877 1117 877 1117 968.5 1074.5 c 128,-1,12
 1060 1032 1060 1032 1117 956.5 c 128,-1,13
 1174 881 1174 881 1194.5 777.5 c 128,-1,14
 1215 674 1215 674 1194 553 c 257,15,16
 1173 431 1173 431 1117 327 c 128,-1,17
 1061 223 1061 223 977.5 146.5 c 128,-1,18
 894 70 894 70 787 26.5 c 128,-1,19
 680 -17 680 -17 556 -17 c 257,0,1
NamedP: "ab01"
863 528 m 257,20,21
 875 596 875 596 875 662 c 128,-1,22
 875 728 875 728 858.5 780.5 c 128,-1,23
 842 833 842 833 806.5 865 c 128,-1,24
 771 897 771 897 713 897 c 257,25,26
 657 897 657 897 612 869.5 c 128,-1,27
 567 842 567 842 532.5 796 c 128,-1,28
 498 750 498 750 475 691.5 c 128,-1,29
 452 633 452 633 441 571 c 257,30,31
 429 502 429 502 430 436 c 128,-1,32
 431 370 431 370 449 318.5 c 128,-1,33
 467 267 467 267 503.5 235 c 128,-1,34
 540 203 540 203 599 203 c 257,35,36
 653 203 653 203 697 230.5 c 128,-1,37
 741 258 741 258 774.5 304 c 128,-1,38
 808 350 808 350 830 408 c 128,-1,39
 852 466 852 466 863 528 c 257,20,21
435 1247 m 257,40,41
 446 1287 446 1287 470 1332.5 c 128,-1,42
 494 1378 494 1378 531 1416 c 128,-1,43
 568 1454 568 1454 618 1479 c 128,-1,44
 668 1504 668 1504 731 1504 c 257,45,46
 780 1504 780 1504 811.5 1491.5 c 128,-1,47
 843 1479 843 1479 867 1464 c 128,-1,48
 891 1449 891 1449 913.5 1436.5 c 128,-1,49
 936 1424 936 1424 967 1424 c 257,50,51
 988 1424 988 1424 1003.5 1431 c 128,-1,52
 1019 1438 1019 1438 1030 1450 c 128,-1,53
 1041 1462 1041 1462 1049 1478 c 128,-1,54
 1057 1494 1057 1494 1063 1512 c 257,55,-1
 1229 1502 l 257,56,57
 1218 1458 1218 1458 1196 1411.5 c 128,-1,58
 1174 1365 1174 1365 1139 1327 c 128,-1,59
 1104 1289 1104 1289 1054.5 1264.5 c 128,-1,60
 1005 1240 1005 1240 938 1240 c 257,61,62
 892 1240 892 1240 863 1252.5 c 128,-1,63
 834 1265 834 1265 810 1280 c 128,-1,64
 786 1295 786 1295 762 1307.5 c 128,-1,65
 738 1320 738 1320 703 1320 c 257,66,67
NamedP: "mv01"
 685 1320 685 1320 672 1313 c 128,-1,68
 659 1306 659 1306 648.5 1295 c 128,-1,69
 638 1284 638 1284 630 1269.5 c 128,-1,70
 622 1255 622 1255 616 1240 c 257,71,-1
 435 1247 l 257,40,41
EndSplineSet
PickledDataWithLists: "(dp0
Vcom.adobe.type.autohint
p1
(c_codecs
encode
p2
(Vdata
p3
Vlatin1
p4
tp5
Rp6
g2
(V<data>\\u000a        <hintSetList>\\u000a          <hintset pointTag=\"ab01\">\\u000a            <hstem pos=\"-16\" width=\"219\"/>\\u000a            <hstem pos=\"897\" width=\"219\"/>\\u000a            <vstem pos=\"40\" width=\"327\"/>\\u000a            <vstem pos=\"796\" width=\"326\"/>\\u000a          </hintset>\\u000a        </hintSetList>\\u000a      </data>
p7
g4
tp8
Rp9
Ntp10
sVcom.fontlab.ttprogram
p11
(g2
(Vdata
p12
g4
tp13
Rp14
g2
(V<data>\\u000a        <ttProgram>\\u000a          <ttc code=\"alignt\" point=\"at01\" zone=\"t: x\"/>\\u000a          <ttc code=\"alignb\" point=\"ab01\" zone=\"b: 0\"/>\\u000a          <ttc code=\"mdeltav\" delta=\"2\" point=\"mv01\" ppm1=\"21\" ppm2=\"21\"/>\\u000a        </ttProgram>\\u000a      </data>
p15
g4
tp16
Rp17
Ntp18
s."
EndChar
StartChar: udieresis
Encoding: 542 252 542
GlifName: udieresis
Width: 1300
VWidth: 0
Flags: W
LayerCount: 2
Fore
SplineSet
891 1100 m 257,0,-1
NamedP: "sv01"
 1212 1120 l 257,1,-1
NamedP: "at03"
 1014 0 l 257,2,-1
NamedP: "sv02"
 697 0 l 257,3,-1
NamedP: "ab01"
 715 100 l 257,4,-1
 616 0 l 257,5,6
 587 -8 587 -8 556.5 -12.5 c 128,-1,7
 526 -17 526 -17 492 -17 c 257,8,9
NamedP: "ab02"
 358 -17 358 -17 274.5 21 c 128,-1,10
 191 59 191 59 148 122.5 c 128,-1,11
 105 186 105 186 96.5 268 c 128,-1,12
 88 350 88 350 103 438 c 257,13,-1
 220 1100 l 257,14,-1
NamedP: "at01"
 540 1120 l 257,15,-1
NamedP: "at02"
 419 438 l 257,16,17
 410 386 410 386 411.5 344.5 c 128,-1,18
 413 303 413 303 428.5 273.5 c 128,-1,19
 444 244 444 244 476 228.5 c 128,-1,20
 508 213 508 213 559 213 c 257,21,22
 592 213 592 213 622 223 c 128,-1,23
 652 233 652 233 676.5 249 c 128,-1,24
 701 265 701 265 720.5 283 c 128,-1,25
 740 301 740 301 753 318 c 257,26,-1
 891 1100 l 257,0,-1
NamedP: "sv01"
473 1566 m 257,27,-1
NamedP: "av01"
 749 1566 l 257,28,-1
NamedP: "mh01"
 702 1300 l 257,29,-1
NamedP: "sv03"
 426 1300 l 257,30,-1
 473 1566 l 257,27,-1
NamedP: "av01"
873 1566 m 257,31,-1
NamedP: "av02"
 1149 1566 l 257,32,-1
NamedP: "mh02"
 1102 1300 l 257,33,-1
NamedP: "sv04"
 826 1300 l 257,34,-1
NamedP: "mh03"
 873 1566 l 257,31,-1
NamedP: "av02"
EndSplineSet
PickledDataWithLists: "(dp0
Vcom.adobe.type.autohint
p1
(c_codecs
encode
p2
(Vdata
p3
Vlatin1
p4
tp5
Rp6
g2
(V<data>\\u000a        <hintSetList>\\u000a          <hintset pointTag=\"sv01\">\\u000a            <hstem pos=\"-16\" width=\"224\"/>\\u000a            <hstem pos=\"1119\" width=\"-20\"/>\\u000a            <vstem pos=\"134\" width=\"326\"/>\\u000a            <vstem pos=\"703\" width=\"326\"/>\\u000a          </hintset>\\u000a        </hintSetList>\\u000a      </data>
p7
g4
tp8
Rp9
Ntp10
sVcom.fontlab.ttprogram
p11
(g2
(Vdata
p12
g4
tp13
Rp14
g2
(V<data>\\u000a        <ttProgram>\\u000a          <ttc code=\"alignt\" point=\"at01\" zone=\"t: x\"/>\\u000a          <ttc code=\"alignt\" point=\"at02\" zone=\"t: x\"/>\\u000a          <ttc code=\"alignt\" point=\"at03\" zone=\"t: x\"/>\\u000a          <ttc code=\"alignb\" point=\"ab01\" zone=\"b: 0\"/>\\u000a          <ttc code=\"alignb\" point=\"ab02\" zone=\"b: 0\"/>\\u000a          <ttc code=\"singlev\" point1=\"at01\" point2=\"sv01\"/>\\u000a          <ttc code=\"singlev\" point1=\"ab01\" point2=\"sv02\"/>\\u000a          <ttc code=\"mdeltah\" delta=\"-2\" point=\"mh01\" ppm1=\"15\" ppm2=\"15\"/>\\u000a          <ttc code=\"mdeltah\" delta=\"1\" point=\"mh02\" ppm1=\"13\" ppm2=\"13\"/>\\u000a          <ttc code=\"mdeltah\" delta=\"8\" point=\"mh03\" ppm1=\"13\" ppm2=\"13\"/>\\u000a          <ttc code=\"mdeltah\" delta=\"6\" point=\"mh03\" ppm1=\"12\" ppm2=\"12\"/>\\u000a          <ttc align=\"round\" code=\"alignv\" point=\"av01\"/>\\u000a          <ttc align=\"round\" code=\"alignv\" point=\"av02\"/>\\u000a          <ttc code=\"singlev\" point1=\"av01\" point2=\"mh01\"/>\\u000a          <ttc code=\"singlev\" point1=\"mh01\" point2=\"sv03\" stem=\"Y: 171\"/>\\u000a          <ttc code=\"singlev\" point1=\"av02\" point2=\"mh02\"/>\\u000a          <ttc code=\"singlev\" point1=\"mh02\" point2=\"sv04\" stem=\"Y: 171\"/>\\u000a        </ttProgram>\\u000a      </data>
p15
g4
tp16
Rp17
Ntp18
s."
EndChar
StartChar: thorn
Encoding: 521 254 521
GlifName: thorn
Width: 1300
VWidth: 0
Flags: W
LayerCount: 2
Fore
SplineSet
935 528 m 257,0,1
NamedP: "ah01"
 947 596 947 596 946.5 662 c 128,-1,2
 946 728 946 728 929 780.5 c 128,-1,3
 912 833 912 833 876.5 865 c 128,-1,4
 841 897 841 897 782 897 c 257,5,6
 727 897 727 897 682 869.5 c 128,-1,7
 637 842 637 842 603.5 796 c 128,-1,8
 570 750 570 750 547.5 691.5 c 128,-1,9
 525 633 525 633 514 571 c 257,10,11
 502 502 502 502 502.5 436 c 128,-1,12
 503 370 503 370 520 318.5 c 128,-1,13
 537 267 537 267 572.5 235 c 128,-1,14
 608 203 608 203 666 203 c 257,15,16
 721 203 721 203 766 230.5 c 128,-1,17
 811 258 811 258 845 304 c 128,-1,18
 879 350 879 350 901.5 408 c 128,-1,19
 924 466 924 466 935 528 c 257,0,1
NamedP: "ah01"
697 1520 m 257,20,-1
NamedP: "at01"
 641 1201 l 257,21,-1
 529 1030 l 257,22,-1
 724 1109 l 257,23,24
 749 1113 749 1113 773.5 1115 c 128,-1,25
 798 1117 798 1117 824 1117 c 257,26,27
NamedP: "at02"
 944 1117 944 1117 1036 1074.5 c 128,-1,28
 1128 1032 1128 1032 1186 956.5 c 128,-1,29
 1244 881 1244 881 1265.5 777.5 c 128,-1,30
 1287 674 1287 674 1266 553 c 257,31,32
NamedP: "sh01"
 1245 431 1245 431 1188 327 c 128,-1,33
 1131 223 1131 223 1047 146.5 c 128,-1,34
 963 70 963 70 855.5 26.5 c 128,-1,35
 748 -17 748 -17 624 -17 c 257,36,37
NamedP: "ab01"
 598 -17 598 -17 574 -15 c 128,-1,38
 550 -13 550 -13 527 -9 c 257,39,-1
 361 75 l 257,40,-1
 412 -99 l 257,41,-1
 362 -380 l 257,42,-1
NamedP: "sv01"
 21 -380 l 257,43,-1
NamedP: "av01"
 353 1500 l 257,44,-1
 697 1520 l 257,20,-1
NamedP: "at01"
EndSplineSet
PickledDataWithLists: "(dp0
Vcom.fontlab.ttprogram
p1
(c_codecs
encode
p2
(Vdata
p3
Vlatin1
p4
tp5
Rp6
g2
(V<data>\\u000a        <ttProgram>\\u000a          <ttc align=\"round\" code=\"alignh\" point=\"ah01\"/>\\u000a          <ttc code=\"singleh\" point1=\"ah01\" point2=\"sh01\" stem=\"X: 208\"/>\\u000a          <ttc align=\"round\" code=\"alignv\" point=\"av01\"/>\\u000a          <ttc code=\"alignt\" point=\"at01\" zone=\"t: 1\"/>\\u000a          <ttc code=\"alignt\" point=\"at02\" zone=\"t: x\"/>\\u000a          <ttc code=\"alignb\" point=\"ab01\" zone=\"b: 0\"/>\\u000a          <ttc code=\"singlev\" point1=\"av01\" point2=\"sv01\"/>\\u000a        </ttProgram>\\u000a      </data>
p7
g4
tp8
Rp9
Ntp10
s."
EndChar
StartChar: ydieresis
Encoding: 582 255 582
GlifName: ydieresis
Width: 1300
VWidth: 0
Flags: W
LayerCount: 2
Fore
SplineSet
601 670 m 257,0,-1
NamedP: "hr00"
 605 200 l 257,1,-1
 747 670 l 257,2,-1
 986 1100 l 257,3,-1
NamedP: "sv01"
 1319 1120 l 257,4,-1
NamedP: "at03"
 715 8 l 257,5,6
 670 -75 670 -75 622 -161.5 c 128,-1,7
 574 -248 574 -248 515 -319 c 128,-1,8
 456 -390 456 -390 381.5 -435 c 128,-1,9
 307 -480 307 -480 210 -480 c 257,10,11
NamedP: "av01"
 143 -480 143 -480 87.5 -452 c 128,-1,12
 32 -424 32 -424 -17 -374 c 257,13,-1
 138 -194 l 257,14,15
 158 -209 158 -209 182 -221.5 c 128,-1,16
 206 -234 206 -234 233 -234 c 257,17,18
 277 -234 277 -234 319.5 -184.5 c 128,-1,19
 362 -135 362 -135 415 -47 c 257,20,-1
 198 1100 l 257,21,-1
NamedP: "at01"
 517 1120 l 257,22,-1
NamedP: "at02"
 601 670 l 257,0,-1
NamedP: "hr00"
546 1566 m 257,23,-1
NamedP: "av02"
 822 1566 l 257,24,-1
NamedP: "mh01"
 775 1300 l 257,25,-1
NamedP: "sv02"
 499 1300 l 257,26,-1
 546 1566 l 257,23,-1
NamedP: "av02"
946 1566 m 257,27,-1
NamedP: "av03"
 1222 1566 l 257,28,-1
NamedP: "mh02"
 1175 1300 l 257,29,-1
NamedP: "sv03"
 899 1300 l 257,30,-1
NamedP: "mh03"
 946 1566 l 257,27,-1
NamedP: "av03"
EndSplineSet
PickledDataWithLists: "(dp0
Vcom.adobe.type.autohint
p1
(c_codecs
encode
p2
(Vdata
p3
Vlatin1
p4
tp5
Rp6
g2
(V<data>\\u000a        <hintSetList>\\u000a          <hintset pointTag=\"hr00\">\\u000a            <hstem pos=\"-480\" width=\"152\"/>\\u000a            <hstem pos=\"1117\" width=\"-20\"/>\\u000a          </hintset>\\u000a        </hintSetList>\\u000a      </data>
p7
g4
tp8
Rp9
Ntp10
sVcom.fontlab.ttprogram
p11
(g2
(Vdata
p12
g4
tp13
Rp14
g2
(V<data>\\u000a        <ttProgram>\\u000a          <ttc align=\"round\" code=\"alignv\" point=\"av01\"/>\\u000a          <ttc code=\"alignt\" point=\"at01\" zone=\"t: x\"/>\\u000a          <ttc code=\"alignt\" point=\"at02\" zone=\"t: x\"/>\\u000a          <ttc code=\"alignt\" point=\"at03\" zone=\"t: x\"/>\\u000a          <ttc code=\"singlev\" point1=\"at01\" point2=\"sv01\"/>\\u000a          <ttc code=\"mdeltah\" delta=\"-2\" point=\"mh01\" ppm1=\"15\" ppm2=\"15\"/>\\u000a          <ttc code=\"mdeltah\" delta=\"1\" point=\"mh02\" ppm1=\"13\" ppm2=\"13\"/>\\u000a          <ttc code=\"mdeltah\" delta=\"8\" point=\"mh03\" ppm1=\"13\" ppm2=\"13\"/>\\u000a          <ttc code=\"mdeltah\" delta=\"6\" point=\"mh03\" ppm1=\"12\" ppm2=\"12\"/>\\u000a          <ttc align=\"round\" code=\"alignv\" point=\"av02\"/>\\u000a          <ttc align=\"round\" code=\"alignv\" point=\"av03\"/>\\u000a          <ttc code=\"singlev\" point1=\"av02\" point2=\"mh01\"/>\\u000a          <ttc code=\"singlev\" point1=\"mh01\" point2=\"sv02\" stem=\"Y: 171\"/>\\u000a          <ttc code=\"singlev\" point1=\"av03\" point2=\"mh02\"/>\\u000a          <ttc code=\"singlev\" point1=\"mh02\" point2=\"sv03\" stem=\"Y: 171\"/>\\u000a        </ttProgram>\\u000a      </data>
p15
g4
tp16
Rp17
Ntp18
s."
EndChar
StartChar: Scaron
Encoding: 67 352 67
GlifName: S_caron
Width: 1300
VWidth: 0
Flags: W
LayerCount: 2
Fore
SplineSet
1050 1178 m 257,0,1
 1008 1205 1008 1205 974 1223 c 128,-1,2
 940 1241 940 1241 910 1252.5 c 128,-1,3
 880 1264 880 1264 852.5 1269 c 128,-1,4
 825 1274 825 1274 797 1274 c 257,5,6
 760 1274 760 1274 722.5 1267 c 128,-1,7
 685 1260 685 1260 653 1243 c 128,-1,8
 621 1226 621 1226 597.5 1197.5 c 128,-1,9
 574 1169 574 1169 567 1125 c 257,10,11
 559 1084 559 1084 574.5 1054.5 c 128,-1,12
 590 1025 590 1025 619 1002 c 128,-1,13
 648 979 648 979 687.5 960 c 128,-1,14
 727 941 727 941 768 921 c 257,15,16
 861 876 861 876 932 825.5 c 128,-1,17
 1003 775 1003 775 1047.5 713.5 c 128,-1,18
 1092 652 1092 652 1108 574.5 c 128,-1,19
 1124 497 1124 497 1106 398 c 257,20,21
 1086 282 1086 282 1024 203 c 128,-1,22
 962 124 962 124 874 75 c 128,-1,23
 786 26 786 26 679 4.5 c 128,-1,24
 572 -17 572 -17 462 -17 c 257,25,26
NamedP: "ab01"
 399 -17 399 -17 343 -8 c 128,-1,27
 287 1 287 1 236 18.5 c 128,-1,28
 185 36 185 36 137 62 c 128,-1,29
 89 88 89 88 41 121 c 257,30,-1
 219 348 l 257,31,32
 243 330 243 330 276.5 312 c 128,-1,33
 310 294 310 294 348 279 c 128,-1,34
 386 264 386 264 426.5 255 c 128,-1,35
 467 246 467 246 505 246 c 257,36,37
 549 246 549 246 593.5 254 c 128,-1,38
 638 262 638 262 675.5 282.5 c 128,-1,39
 713 303 713 303 740 338.5 c 128,-1,40
 767 374 767 374 777 430 c 257,41,42
 787 484 787 484 769.5 523 c 128,-1,43
 752 562 752 562 717.5 591.5 c 128,-1,44
 683 621 683 621 637 645 c 128,-1,45
 591 669 591 669 544 693 c 257,46,47
 478 727 478 727 418 770 c 128,-1,48
 358 813 358 813 315.5 866 c 128,-1,49
 273 919 273 919 252.5 984 c 128,-1,50
 232 1049 232 1049 246 1127 c 257,51,52
 264 1228 264 1228 319 1301.5 c 128,-1,53
 374 1375 374 1375 452.5 1423 c 128,-1,54
 531 1471 531 1471 625.5 1494 c 128,-1,55
 720 1517 720 1517 816 1517 c 257,56,57
NamedP: "at01"
 933 1517 933 1517 1034.5 1480 c 128,-1,58
 1136 1443 1136 1443 1234 1369 c 257,59,-1
 1050 1178 l 257,0,1
1027 1596 m 257,60,-1
 736 1625 l 257,61,-1
 611 1900 l 257,62,-1
NamedP: "ih02"
 841 1900 l 257,63,-1
NamedP: "sv01"
 900 1807 l 257,64,-1
 914 1680 l 257,65,-1
NamedP: "ih01"
 970 1807 l 257,66,-1
 1062 1900 l 257,67,-1
 1267 1900 l 257,68,-1
NamedP: "ih03"
 1027 1596 l 257,60,-1
EndSplineSet
PickledDataWithLists: "(dp0
Vcom.adobe.type.autohint
p1
(c_codecs
encode
p2
(Vdata
p3
Vlatin1
p4
tp5
Rp6
g2
(V<data>\\u000a        <hintSetList/>\\u000a      </data>
p7
g4
tp8
Rp9
Ntp10
sVcom.fontlab.ttprogram
p11
(g2
(Vdata
p12
g4
tp13
Rp14
g2
(V<data>\\u000a        <ttProgram>\\u000a          <ttc code=\"alignt\" point=\"at01\" zone=\"t: 1\"/>\\u000a          <ttc code=\"alignb\" point=\"ab01\" zone=\"b: 0\"/>\\u000a          <ttc code=\"interpolateh\" point=\"ih01\" point1=\"ih02\" point2=\"ih03\"/>\\u000a          <ttc code=\"alignt\" point=\"ih02\" zone=\"t: 1\"/>\\u000a          <ttc code=\"singlev\" point1=\"ih02\" point2=\"sv01\"/>\\u000a          <ttc code=\"singlev\" point1=\"sv01\" point2=\"ih03\"/>\\u000a        </ttProgram>\\u000a      </data>
p15
g4
tp16
Rp17
Ntp18
s."
EndChar
StartChar: florin
Encoding: 258 402 258
GlifName: florin
Width: 1300
VWidth: 0
Flags: W
LayerCount: 2
Fore
SplineSet
1174 846 m 257,0,-1
NamedP: "sv01"
 1078 628 l 257,1,-1
NamedP: "sv02"
 925 628 l 257,2,-1
 899 700 l 257,3,4
 870 623 870 623 836.5 533 c 128,-1,5
 803 443 803 443 766.5 346 c 128,-1,6
 730 249 730 249 691.5 147.5 c 128,-1,7
 653 46 653 46 614 -54 c 257,8,9
 584 -125 584 -125 553 -188 c 128,-1,10
 522 -251 522 -251 475.5 -298.5 c 128,-1,11
 429 -346 429 -346 360.5 -374 c 128,-1,12
 292 -402 292 -402 188 -402 c 257,13,14
NamedP: "av02"
 103 -402 103 -402 23 -378 c 128,-1,15
 -57 -354 -57 -354 -116 -309 c 257,16,-1
 -5 -100 l 257,17,18
 22 -126 22 -126 61 -138.5 c 128,-1,19
 100 -151 100 -151 138 -151 c 257,20,21
 183 -151 183 -151 228 -108 c 128,-1,22
 273 -65 273 -65 312 26 c 257,23,-1
 312 25 l 257,24,-1
 542 628 l 257,25,-1
 314 628 l 257,26,-1
NamedP: "sv03"
 410 846 l 257,27,-1
NamedP: "av03"
 565 846 l 257,28,-1
 593 777 l 257,29,-1
 734 1162 l 257,30,31
 765 1250 765 1250 808.5 1312 c 128,-1,32
 852 1374 852 1374 903 1413.5 c 128,-1,33
 954 1453 954 1453 1009.5 1471 c 128,-1,34
 1065 1489 1065 1489 1121 1489 c 257,35,36
NamedP: "av01"
 1150 1489 1150 1489 1187 1486.5 c 128,-1,37
 1224 1484 1224 1484 1263 1474.5 c 128,-1,38
 1302 1465 1302 1465 1340.5 1446.5 c 128,-1,39
 1379 1428 1379 1428 1410 1397 c 257,40,-1
 1335 1200 l 257,41,42
 1301 1231 1301 1231 1264 1251.5 c 128,-1,43
 1227 1272 1227 1272 1179 1272 c 257,44,45
 1152 1272 1152 1272 1123 1252.5 c 128,-1,46
 1094 1233 1094 1233 1080 1191 c 257,47,-1
 951 846 l 257,48,-1
 1174 846 l 257,0,-1
NamedP: "sv01"
EndSplineSet
PickledDataWithLists: "(dp0
Vcom.fontlab.ttprogram
p1
(c_codecs
encode
p2
(Vdata
p3
Vlatin1
p4
tp5
Rp6
g2
(V<data>\\u000a        <ttProgram>\\u000a          <ttc align=\"round\" code=\"alignv\" point=\"av01\"/>\\u000a          <ttc align=\"round\" code=\"alignv\" point=\"av02\"/>\\u000a          <ttc align=\"round\" code=\"alignv\" point=\"av03\"/>\\u000a          <ttc code=\"singlev\" point1=\"av03\" point2=\"sv01\"/>\\u000a          <ttc code=\"singlev\" point1=\"sv01\" point2=\"sv02\" stem=\"Y: 171\"/>\\u000a          <ttc code=\"singlev\" point1=\"sv02\" point2=\"sv03\"/>\\u000a        </ttProgram>\\u000a      </data>
p7
g4
tp8
Rp9
Ntp10
s."
EndChar
StartChar: circumflex
Encoding: 182 710 182
GlifName: circumflex
Width: 1300
VWidth: 0
Flags: W
LayerCount: 2
Fore
SplineSet
893 1220 m 257,0,-1
NamedP: "sv01"
 673 1220 l 257,1,-1
 621 1323 l 257,2,-1
 614 1450 l 257,3,-1
 561 1323 l 257,4,-1
 462 1220 l 257,5,-1
 223 1220 l 257,6,-1
NamedP: "av01"
 467 1500 l 257,7,-1
 761 1520 l 257,8,-1
 893 1220 l 257,0,-1
NamedP: "sv01"
EndSplineSet
PickledDataWithLists: "(dp0
Vcom.adobe.type.autohint
p1
(c_codecs
encode
p2
(Vdata
p3
Vlatin1
p4
tp5
Rp6
g2
(V<data>\\u000a        <hintSetList>\\u000a          <hintset pointTag=\"sv01\">\\u000a            <hstem pos=\"1241\" width=\"-21\"/>\\u000a            <hstem pos=\"1520\" width=\"-20\"/>\\u000a          </hintset>\\u000a        </hintSetList>\\u000a      </data>
p7
g4
tp8
Rp9
Ntp10
sVcom.fontlab.ttprogram
p11
(g2
(Vdata
p12
g4
tp13
Rp14
g2
(V<data>\\u000a        <ttProgram>\\u000a          <ttc align=\"round\" code=\"alignv\" point=\"av01\"/>\\u000a          <ttc code=\"singlev\" point1=\"av01\" point2=\"sv01\"/>\\u000a        </ttProgram>\\u000a      </data>
p15
g4
tp16
Rp17
Ntp18
s."
EndChar
StartChar: breve
Encoding: 160 728 160
GlifName: breve
Width: 1300
VWidth: 0
Flags: W
LayerCount: 2
Fore
SplineSet
440 1519 m 257,0,1
NamedP: "sv01"
 436 1488 436 1488 445 1464 c 257,2,3
 453 1444 453 1444 473.5 1427 c 128,-1,4
 494 1410 494 1410 538 1410 c 257,5,6
NamedP: "ih01"
 582 1410 582 1410 611 1427 c 128,-1,7
 640 1444 640 1444 658 1464 c 257,8,9
 679 1488 679 1488 691 1519 c 257,10,-1
 912 1519 l 257,11,-1
NamedP: "ih03"
 903 1469 l 257,12,13
 899 1446 899 1446 873.5 1410 c 128,-1,14
 848 1374 848 1374 800.5 1339 c 128,-1,15
 753 1304 753 1304 683 1279 c 128,-1,16
 613 1254 613 1254 520 1254 c 257,17,18
NamedP: "av01"
 427 1254 427 1254 366.5 1279 c 128,-1,19
 306 1304 306 1304 272 1338.5 c 128,-1,20
 238 1373 238 1373 226.5 1409 c 128,-1,21
 215 1445 215 1445 219 1468 c 257,22,-1
 228 1519 l 257,23,-1
NamedP: "ih02"
 440 1519 l 257,0,1
NamedP: "sv01"
EndSplineSet
PickledDataWithLists: "(dp0
Vcom.fontlab.ttprogram
p1
(c_codecs
encode
p2
(Vdata
p3
Vlatin1
p4
tp5
Rp6
g2
(V<data>\\u000a        <ttProgram>\\u000a          <ttc code=\"interpolateh\" point=\"ih01\" point1=\"ih02\" point2=\"ih03\"/>\\u000a          <ttc align=\"round\" code=\"alignv\" point=\"av01\"/>\\u000a          <ttc code=\"alignt\" point=\"ih02\" zone=\"t: 1\"/>\\u000a          <ttc code=\"singlev\" point1=\"ih02\" point2=\"sv01\"/>\\u000a          <ttc code=\"singlev\" point1=\"sv01\" point2=\"ih03\"/>\\u000a        </ttProgram>\\u000a      </data>
p7
g4
tp8
Rp9
Ntp10
s."
EndChar
StartChar: Eta
Encoding: 23 919 23
GlifName: E_ta
Width: 1300
VWidth: 0
Flags: W
LayerCount: 2
Fore
SplineSet
601 0 m 257,0,-1
NamedP: "hr00"
 723 688 l 257,1,-1
NamedP: "sv01"
 407 688 l 257,2,-1
NamedP: "av01"
 285 0 l 257,3,-1
 -61 0 l 257,4,-1
NamedP: "ab01"
 161 1263 l 257,5,-1
 161 1500 l 257,6,-1
NamedP: "at01"
 554 1520 l 257,7,-1
NamedP: "at02"
 447 916 l 257,8,-1
 763 916 l 257,9,-1
 866 1500 l 257,10,-1
NamedP: "sv02"
 1216 1520 l 257,11,-1
NamedP: "at03"
 947 0 l 257,12,-1
NamedP: "sv03"
 601 0 l 257,0,-1
NamedP: "hr00"
EndSplineSet
PickledDataWithLists: "(dp0
Vcom.adobe.type.autohint
p1
(c_codecs
encode
p2
(Vdata
p3
Vlatin1
p4
tp5
Rp6
g2
(V<data>\\u000a        <hintSetList>\\u000a          <hintset pointTag=\"hr00\">\\u000a            <hstem pos=\"19\" width=\"-21\"/>\\u000a            <hstem pos=\"655\" width=\"289\"/>\\u000a            <hstem pos=\"1518\" width=\"-20\"/>\\u000a            <vstem pos=\"60\" width=\"258\"/>\\u000a            <vstem pos=\"815\" width=\"257\"/>\\u000a          </hintset>\\u000a        </hintSetList>\\u000a      </data>
p7
g4
tp8
Rp9
Ntp10
sVcom.fontlab.ttprogram
p11
(g2
(Vdata
p12
g4
tp13
Rp14
g2
(V<data>\\u000a        <ttProgram>\\u000a          <ttc align=\"round\" code=\"alignv\" point=\"av01\"/>\\u000a          <ttc code=\"alignt\" point=\"at01\" zone=\"t: 1\"/>\\u000a          <ttc code=\"alignt\" point=\"at02\" zone=\"t: 1\"/>\\u000a          <ttc code=\"alignt\" point=\"at03\" zone=\"t: 1\"/>\\u000a          <ttc code=\"alignb\" point=\"ab01\" zone=\"b: 0\"/>\\u000a          <ttc code=\"singlev\" point1=\"av01\" point2=\"sv01\"/>\\u000a          <ttc code=\"singlev\" point1=\"at01\" point2=\"sv02\"/>\\u000a          <ttc code=\"singlev\" point1=\"ab01\" point2=\"sv03\"/>\\u000a        </ttProgram>\\u000a      </data>
p15
g4
tp16
Rp17
Ntp18
s."
EndChar
StartChar: Kappa
Encoding: 39 922 39
GlifName: K_appa
Width: 1300
VWidth: 0
Flags: W
LayerCount: 2
Fore
SplineSet
7 0 m 257,0,-1
NamedP: "ab01"
 229 1263 l 257,1,-1
 229 1500 l 257,2,-1
NamedP: "at01"
 626 1520 l 257,3,-1
NamedP: "at02"
 540 1035 l 257,4,-1
 923 1500 l 257,5,-1
NamedP: "sv01"
 1291 1500 l 257,6,-1
 776 900 l 257,7,-1
 526 800 l 257,8,-1
 734 716 l 257,9,-1
 1137 0 l 257,10,-1
NamedP: "sv02"
 757 0 l 257,11,-1
 453 540 l 257,12,-1
 357 0 l 257,13,-1
 7 0 l 257,0,-1
NamedP: "ab01"
EndSplineSet
PickledDataWithLists: "(dp0
Vcom.adobe.type.autohint
p1
(c_codecs
encode
p2
(Vdata
p3
Vlatin1
p4
tp5
Rp6
g2
(V<data>\\u000a        <hintSetList>\\u000a          <hintset pointTag=\"ab01\">\\u000a            <hstem pos=\"1518\" width=\"-20\"/>\\u000a            <vstem pos=\"80\" width=\"262\"/>\\u000a          </hintset>\\u000a        </hintSetList>\\u000a      </data>
p7
g4
tp8
Rp9
Ntp10
sVcom.fontlab.ttprogram
p11
(g2
(Vdata
p12
g4
tp13
Rp14
g2
(V<data>\\u000a        <ttProgram>\\u000a          <ttc code=\"alignt\" point=\"at01\" zone=\"t: 1\"/>\\u000a          <ttc code=\"alignt\" point=\"at02\" zone=\"t: 1\"/>\\u000a          <ttc code=\"alignb\" point=\"ab01\" zone=\"b: 0\"/>\\u000a          <ttc code=\"singlev\" point1=\"at01\" point2=\"sv01\"/>\\u000a          <ttc code=\"singlev\" point1=\"ab01\" point2=\"sv02\"/>\\u000a        </ttProgram>\\u000a      </data>
p15
g4
tp16
Rp17
Ntp18
s."
EndChar
StartChar: Mu
Encoding: 43 924 43
GlifName: M_u
Width: 1300
VWidth: 0
Flags: W
LayerCount: 2
Fore
SplineSet
717 0 m 257,0,-1
NamedP: "hr00"
 797 449 l 257,1,-1
 1036 1200 l 257,2,-1
 1026 1200 l 257,3,-1
 801 700 l 257,4,-1
 693 475 l 257,5,-1
 502 475 l 257,6,-1
 477 700 l 257,7,-1
NamedP: "mh01"
 426 1200 l 257,8,-1
NamedP: "mv01"
 416 1200 l 257,9,-1
 396 449 l 257,10,-1
NamedP: "mh02"
 316 0 l 257,11,-1
 5 0 l 257,12,-1
NamedP: "ab01"
 227 1263 l 257,13,-1
 227 1500 l 257,14,-1
NamedP: "at01"
 552 1520 l 257,15,-1
NamedP: "at02"
 645 1079 l 257,16,-1
 642 800 l 257,17,-1
 725 1082 l 257,18,-1
 969 1500 l 257,19,-1
NamedP: "sv01"
 1299 1520 l 257,20,-1
NamedP: "at03"
 1030 0 l 257,21,-1
NamedP: "sv02"
 717 0 l 257,0,-1
NamedP: "hr00"
EndSplineSet
PickledDataWithLists: "(dp0
Vcom.adobe.type.autohint
p1
(c_codecs
encode
p2
(Vdata
p3
Vlatin1
p4
tp5
Rp6
g2
(V<data>\\u000a        <hintSetList>\\u000a          <hintset pointTag=\"hr00\">\\u000a            <hstem pos=\"20\" width=\"-21\"/>\\u000a            <hstem pos=\"1519\" width=\"-20\"/>\\u000a            <vstem pos=\"35\" width=\"342\"/>\\u000a            <vstem pos=\"1174\" width=\"352\"/>\\u000a          </hintset>\\u000a        </hintSetList>\\u000a      </data>
p7
g4
tp8
Rp9
Ntp10
sVcom.fontlab.ttprogram
p11
(g2
(Vdata
p12
g4
tp13
Rp14
g2
(V<data>\\u000a        <ttProgram>\\u000a          <ttc code=\"mdeltah\" delta=\"2\" point=\"mh01\" ppm1=\"13\" ppm2=\"14\"/>\\u000a          <ttc code=\"mdeltah\" delta=\"-1\" point=\"mh02\" ppm1=\"13\" ppm2=\"13\"/>\\u000a          <ttc code=\"alignt\" point=\"at01\" zone=\"t: 1\"/>\\u000a          <ttc code=\"alignt\" point=\"at02\" zone=\"t: 1\"/>\\u000a          <ttc code=\"alignt\" point=\"at03\" zone=\"t: 1\"/>\\u000a          <ttc code=\"alignb\" point=\"ab01\" zone=\"b: 0\"/>\\u000a          <ttc code=\"mdeltav\" delta=\"4\" point=\"mv01\" ppm1=\"13\" ppm2=\"13\"/>\\u000a          <ttc code=\"singlev\" point1=\"at01\" point2=\"sv01\"/>\\u000a          <ttc code=\"singlev\" point1=\"ab01\" point2=\"sv02\"/>\\u000a        </ttProgram>\\u000a      </data>
p15
g4
tp16
Rp17
Ntp18
s."
EndChar
StartChar: Xi
Encoding: 83 926 83
GlifName: X_i
Width: 1300
VWidth: 0
Flags: W
LayerCount: 2
Fore
SplineSet
264 916 m 257,0,-1
NamedP: "av01"
 1096 916 l 257,1,-1
NamedP: "sv01"
 1053 675 l 257,2,-1
NamedP: "sv02"
 221 675 l 257,3,-1
 264 916 l 257,0,-1
NamedP: "av01"
51 241 m 257,4,-1
 1071 241 l 257,5,-1
NamedP: "sv04"
 1028 0 l 257,6,-1
NamedP: "sv03"
 8 0 l 257,7,-1
NamedP: "ab01"
 51 241 l 257,4,-1
272 1500 m 257,8,-1
NamedP: "at01"
 1293 1500 l 257,9,-1
NamedP: "sv05"
 1250 1259 l 257,10,-1
NamedP: "sv06"
 229 1259 l 257,11,-1
 272 1500 l 257,8,-1
NamedP: "at01"
EndSplineSet
PickledDataWithLists: "(dp0
Vcom.fontlab.ttprogram
p1
(c_codecs
encode
p2
(Vdata
p3
Vlatin1
p4
tp5
Rp6
g2
(V<data>\\u000a        <ttProgram>\\u000a          <ttc align=\"round\" code=\"alignv\" point=\"av01\"/>\\u000a          <ttc code=\"alignt\" point=\"at01\" zone=\"t: 1\"/>\\u000a          <ttc code=\"alignb\" point=\"ab01\" zone=\"b: 0\"/>\\u000a          <ttc code=\"singlev\" point1=\"av01\" point2=\"sv01\"/>\\u000a          <ttc code=\"singlev\" point1=\"sv01\" point2=\"sv02\" stem=\"Y: 171\"/>\\u000a          <ttc code=\"singlev\" point1=\"ab01\" point2=\"sv03\"/>\\u000a          <ttc code=\"singlev\" point1=\"sv03\" point2=\"sv04\" stem=\"Y: 171\"/>\\u000a          <ttc code=\"singlev\" point1=\"at01\" point2=\"sv05\"/>\\u000a          <ttc code=\"singlev\" point1=\"sv05\" point2=\"sv06\" stem=\"Y: 171\"/>\\u000a        </ttProgram>\\u000a      </data>
p7
g4
tp8
Rp9
Ntp10
s."
EndChar
StartChar: Upsilon
Encoding: 78 933 78
GlifName: U_psilon
Width: 1300
VWidth: 0
Flags: W
LayerCount: 2
Fore
SplineSet
547 1143 m 257,0,-1
NamedP: "hr00"
 589 773 l 257,1,-1
 712 1143 l 257,2,-1
 957 1500 l 257,3,-1
 1292 1500 l 257,4,-1
NamedP: "sv01"
 709 650 l 257,5,-1
 594 0 l 257,6,-1
NamedP: "sv02"
 243 0 l 257,7,-1
NamedP: "ab01"
 358 650 l 257,8,-1
 79 1500 l 257,9,-1
NamedP: "at01"
 422 1520 l 257,10,-1
NamedP: "at02"
 547 1143 l 257,0,-1
NamedP: "hr00"
EndSplineSet
PickledDataWithLists: "(dp0
Vcom.adobe.type.autohint
p1
(c_codecs
encode
p2
(Vdata
p3
Vlatin1
p4
tp5
Rp6
g2
(V<data>\\u000a        <hintSetList>\\u000a          <hintset pointTag=\"hr00\">\\u000a            <hstem pos=\"20\" width=\"-21\"/>\\u000a            <hstem pos=\"1519\" width=\"-20\"/>\\u000a            <vstem pos=\"468\" width=\"352\"/>\\u000a          </hintset>\\u000a        </hintSetList>\\u000a      </data>
p7
g4
tp8
Rp9
Ntp10
sVcom.fontlab.ttprogram
p11
(g2
(Vdata
p12
g4
tp13
Rp14
g2
(V<data>\\u000a        <ttProgram>\\u000a          <ttc code=\"alignt\" point=\"at01\" zone=\"t: 1\"/>\\u000a          <ttc code=\"alignt\" point=\"at02\" zone=\"t: 1\"/>\\u000a          <ttc code=\"alignb\" point=\"ab01\" zone=\"b: 0\"/>\\u000a          <ttc code=\"singlev\" point1=\"at01\" point2=\"sv01\"/>\\u000a          <ttc code=\"singlev\" point1=\"ab01\" point2=\"sv02\"/>\\u000a        </ttProgram>\\u000a      </data>
p15
g4
tp16
Rp17
Ntp18
s."
EndChar
StartChar: Chi
Encoding: 14 935 14
GlifName: C_hi
Width: 1300
VWidth: 0
Flags: W
LayerCount: 2
Fore
SplineSet
857 0 m 257,0,-1
NamedP: "hr00"
 643 613 l 257,1,-1
 603 427 l 257,2,-1
 353 0 l 257,3,-1
 31 0 l 257,4,-1
NamedP: "ab01"
 553 824 l 257,5,-1
 284 1500 l 257,6,-1
NamedP: "at01"
 616 1520 l 257,7,-1
NamedP: "at02"
 797 1050 l 257,8,-1
 849 1231 l 257,9,-1
 1014 1500 l 257,10,-1
 1301 1500 l 257,11,-1
NamedP: "sv01"
 880 855 l 257,12,-1
 1197 0 l 257,13,-1
NamedP: "sv02"
 857 0 l 257,0,-1
NamedP: "hr00"
EndSplineSet
PickledDataWithLists: "(dp0
Vcom.adobe.type.autohint
p1
(c_codecs
encode
p2
(Vdata
p3
Vlatin1
p4
tp5
Rp6
g2
(V<data>\\u000a        <hintSetList>\\u000a          <hintset pointTag=\"hr00\">\\u000a            <hstem pos=\"76\" width=\"-20\"/>\\u000a            <hstem pos=\"1519\" width=\"-20\"/>\\u000a          </hintset>\\u000a        </hintSetList>\\u000a      </data>
p7
g4
tp8
Rp9
Ntp10
sVcom.fontlab.ttprogram
p11
(g2
(Vdata
p12
g4
tp13
Rp14
g2
(V<data>\\u000a        <ttProgram>\\u000a          <ttc code=\"alignt\" point=\"at01\" zone=\"t: 1\"/>\\u000a          <ttc code=\"alignt\" point=\"at02\" zone=\"t: 1\"/>\\u000a          <ttc code=\"alignb\" point=\"ab01\" zone=\"b: 0\"/>\\u000a          <ttc code=\"singlev\" point1=\"at01\" point2=\"sv01\"/>\\u000a          <ttc code=\"singlev\" point1=\"ab01\" point2=\"sv02\"/>\\u000a        </ttProgram>\\u000a      </data>
p15
g4
tp16
Rp17
Ntp18
s."
EndChar
StartChar: Psi
Encoding: 61 936 61
GlifName: P_si
Width: 1300
VWidth: 0
Flags: W
LayerCount: 2
Fore
SplineSet
885 1520 m 257,0,-1
NamedP: "sh03"
 736 671 l 257,1,2
NamedP: "ih01"
 752 680 752 680 769 694.5 c 128,-1,3
 786 709 786 709 801.5 730.5 c 128,-1,4
 817 752 817 752 829.5 781 c 128,-1,5
 842 810 842 810 849 849 c 257,6,-1
 964 1500 l 257,7,-1
NamedP: "sh04"
 1281 1500 l 257,8,-1
NamedP: "sh05"
 1169 867 l 257,9,10
 1149 754 1149 754 1108.5 675.5 c 128,-1,11
 1068 597 1068 597 1008 545 c 128,-1,12
 948 493 948 493 868.5 464 c 128,-1,13
 789 435 789 435 692 422 c 257,14,-1
NamedP: "sv01"
 618 1 l 257,15,-1
NamedP: "sv02"
 276 1 l 257,16,-1
NamedP: "ab01"
 350 422 l 257,17,18
NamedP: "av01"
 253 438 253 438 185 474.5 c 128,-1,19
 117 511 117 511 78 571 c 128,-1,20
 39 631 39 631 29 716 c 128,-1,21
 19 801 19 801 39 914 c 257,22,-1
 100 1263 l 257,23,-1
 100 1500 l 257,24,-1
NamedP: "ah01"
 461 1520 l 257,25,-1
NamedP: "sh01"
 351 896 l 257,26,27
 344 854 344 854 346 821.5 c 128,-1,28
 348 789 348 789 355.5 763.5 c 128,-1,29
 363 738 363 738 374 719.5 c 128,-1,30
 385 701 385 701 397 688 c 257,31,-1
NamedP: "ih02"
 540 1500 l 257,32,-1
NamedP: "sh02"
 885 1520 l 257,0,-1
NamedP: "sh03"
EndSplineSet
PickledDataWithLists: "(dp0
Vcom.fontlab.ttprogram
p1
(c_codecs
encode
p2
(Vdata
p3
Vlatin1
p4
tp5
Rp6
g2
(V<data>\\u000a        <ttProgram>\\u000a          <ttc align=\"round\" code=\"alignh\" point=\"ah01\"/>\\u000a          <ttc code=\"singleh\" point1=\"ah01\" point2=\"sh01\" stem=\"X: 208\"/>\\u000a          <ttc code=\"singleh\" point1=\"sh01\" point2=\"sh02\" round=\"true\"/>\\u000a          <ttc code=\"singleh\" point1=\"sh02\" point2=\"sh03\" stem=\"X: 208\"/>\\u000a          <ttc code=\"singleh\" point1=\"sh03\" point2=\"sh04\" round=\"true\"/>\\u000a          <ttc code=\"singleh\" point1=\"sh04\" point2=\"sh05\" stem=\"X: 208\"/>\\u000a          <ttc code=\"interpolateh\" point=\"ih01\" point1=\"sh01\" point2=\"sh05\"/>\\u000a          <ttc code=\"interpolateh\" point=\"ih02\" point1=\"ah01\" point2=\"sh03\"/>\\u000a          <ttc align=\"round\" code=\"alignv\" point=\"av01\"/>\\u000a          <ttc code=\"alignt\" point=\"ah01\" zone=\"t: 1\"/>\\u000a          <ttc code=\"alignt\" point=\"sh01\" zone=\"t: 1\"/>\\u000a          <ttc code=\"alignt\" point=\"sh03\" zone=\"t: 1\"/>\\u000a          <ttc code=\"alignb\" point=\"ab01\" zone=\"b: 0\"/>\\u000a          <ttc code=\"singlev\" point1=\"ah01\" point2=\"sh02\"/>\\u000a          <ttc code=\"singlev\" point1=\"sh02\" point2=\"sh05\"/>\\u000a          <ttc code=\"singlev\" point1=\"av01\" point2=\"sv01\"/>\\u000a          <ttc code=\"singlev\" point1=\"ab01\" point2=\"sv02\"/>\\u000a        </ttProgram>\\u000a      </data>
p7
g4
tp8
Rp9
Ntp10
s."
EndChar
StartChar: alpha
Encoding: 98 945 98
GlifName: alpha
Width: 1300
VWidth: 0
Flags: W
LayerCount: 2
Fore
SplineSet
1208 962 m 257,0,1
NamedP: "ih03"
 1120 904 1120 904 1102 829 c 257,2,3
 1093 787 1093 787 1079.5 719 c 128,-1,4
 1066 651 1066 651 1049 552 c 257,5,6
 1031 452 1031 452 1019.5 388.5 c 128,-1,7
 1008 325 1008 325 1002 291 c 257,8,9
 998 267 998 267 995.5 248 c 128,-1,10
 993 229 993 229 995.5 215.5 c 128,-1,11
 998 202 998 202 1007 194.5 c 128,-1,12
 1016 187 1016 187 1035 187 c 257,13,14
 1059 187 1059 187 1081.5 192.5 c 128,-1,15
 1104 198 1104 198 1121 203 c 257,16,-1
 1166 35 l 257,17,18
NamedP: "ih06"
 1109 10 1109 10 1059.5 -3.5 c 128,-1,19
 1010 -17 1010 -17 967 -17 c 257,20,21
NamedP: "ab01"
 811 -17 811 -17 734 68 c 257,22,23
NamedP: "ih01"
 701 42 701 42 670.5 26 c 128,-1,24
 640 10 640 10 609.5 0 c 128,-1,25
 579 -10 579 -10 547.5 -13.5 c 128,-1,26
 516 -17 516 -17 481 -17 c 257,27,28
NamedP: "ih05"
 358 -17 358 -17 278 26.5 c 128,-1,29
 198 70 198 70 155 146.5 c 128,-1,30
 112 223 112 223 104 327 c 128,-1,31
 96 431 96 431 117 553 c 257,32,33
 138 674 138 674 181.5 777.5 c 128,-1,34
 225 881 225 881 293.5 956.5 c 128,-1,35
NamedP: "ih02"
 362 1032 362 1032 458 1074.5 c 128,-1,36
 554 1117 554 1117 681 1117 c 257,37,38
NamedP: "at01"
 751 1117 751 1117 805 1097 c 128,-1,39
 859 1077 859 1077 907 1025 c 257,40,41
NamedP: "ih04"
 939 1047 939 1047 987.5 1070 c 128,-1,42
 1036 1093 1036 1093 1102 1120 c 257,43,-1
NamedP: "at02"
 1208 962 l 257,0,1
NamedP: "ih03"
718 528 m 257,44,45
 730 596 730 596 738.5 662 c 128,-1,46
 747 728 747 728 742 780.5 c 128,-1,47
 737 833 737 833 713.5 865 c 128,-1,48
 690 897 690 897 639 897 c 257,49,50
 591 897 591 897 558.5 869.5 c 128,-1,51
 526 842 526 842 505 796 c 128,-1,52
 484 750 484 750 470.5 691.5 c 128,-1,53
 457 633 457 633 446 571 c 257,54,55
 434 502 434 502 425.5 436 c 128,-1,56
 417 370 417 370 421.5 318.5 c 128,-1,57
 426 267 426 267 449.5 235 c 128,-1,58
 473 203 473 203 524 203 c 257,59,60
 572 203 572 203 604 230.5 c 128,-1,61
 636 258 636 258 658 304 c 128,-1,62
 680 350 680 350 693.5 408 c 128,-1,63
 707 466 707 466 718 528 c 257,44,45
EndSplineSet
PickledDataWithLists: "(dp0
Vcom.fontlab.ttprogram
p1
(c_codecs
encode
p2
(Vdata
p3
Vlatin1
p4
tp5
Rp6
g2
(V<data>\\u000a        <ttProgram>\\u000a          <ttc code=\"interpolateh\" point=\"ih01\" point1=\"ih02\" point2=\"ih03\"/>\\u000a          <ttc code=\"interpolateh\" point=\"ih04\" point1=\"ih05\" point2=\"ih06\"/>\\u000a          <ttc code=\"alignt\" point=\"at01\" zone=\"t: x\"/>\\u000a          <ttc code=\"alignt\" point=\"at02\" zone=\"t: x\"/>\\u000a          <ttc code=\"alignb\" point=\"ih05\" zone=\"b: 0\"/>\\u000a          <ttc code=\"alignb\" point=\"ab01\" zone=\"b: 0\"/>\\u000a        </ttProgram>\\u000a      </data>
p7
g4
tp8
Rp9
Ntp10
s."
EndChar
StartChar: beta
Encoding: 135 946 135
GlifName: beta
Width: 1300
VWidth: 0
Flags: W
LayerCount: 2
Fore
SplineSet
590 -17 m 257,0,1
NamedP: "ab02"
 555 -17 555 -17 522 -14 c 128,-1,2
 489 -11 489 -11 460 -7 c 257,3,-1
 370 -517 l 257,4,-1
NamedP: "ab01"
 38 -500 l 257,5,-1
 319 1101 l 257,6,7
 338 1207 338 1207 389 1285.5 c 128,-1,8
 440 1364 440 1364 514.5 1415.5 c 128,-1,9
 589 1467 589 1467 683 1492 c 128,-1,10
 777 1517 777 1517 882 1517 c 257,11,12
NamedP: "at01"
 970 1517 970 1517 1044.5 1493.5 c 128,-1,13
 1119 1470 1119 1470 1171 1424 c 128,-1,14
 1223 1378 1223 1378 1246 1310.5 c 128,-1,15
 1269 1243 1269 1243 1254 1155 c 257,16,17
 1238 1064 1238 1064 1190 992 c 128,-1,18
 1142 920 1142 920 1083 871 c 257,19,-1
 868 809 l 257,20,-1
NamedP: "iv01"
 1056 784 l 257,21,22
 1091 767 1091 767 1118.5 746.5 c 128,-1,23
 1146 726 1146 726 1165 701 c 257,24,25
 1184 677 1184 677 1198 652.5 c 128,-1,26
 1212 628 1212 628 1219.5 599.5 c 128,-1,27
 1227 571 1227 571 1228 537 c 128,-1,28
 1229 503 1229 503 1221 460 c 257,29,30
 1213 413 1213 413 1194 359 c 128,-1,31
 1175 305 1175 305 1142.5 252 c 128,-1,32
 1110 199 1110 199 1061.5 150.5 c 128,-1,33
 1013 102 1013 102 945.5 64.5 c 128,-1,34
 878 27 878 27 790 5 c 128,-1,35
 702 -17 702 -17 590 -17 c 257,0,1
NamedP: "ab02"
490 211 m 257,36,37
 512 199 512 199 541.5 191 c 128,-1,38
 571 183 571 183 600 183 c 257,39,40
 654 183 654 183 703.5 201 c 128,-1,41
 753 219 753 219 793.5 253.5 c 128,-1,42
 834 288 834 288 863 338 c 128,-1,43
 892 388 892 388 903 451 c 257,44,45
 924 572 924 572 880 636 c 128,-1,46
 836 700 836 700 715 700 c 257,47,-1
 660 900 l 257,48,49
 690 902 690 902 733 912 c 128,-1,50
 776 922 776 922 818 948 c 128,-1,51
 860 974 860 974 894.5 1019 c 128,-1,52
 929 1064 929 1064 941 1135 c 257,53,54
 947 1170 947 1170 941.5 1203 c 128,-1,55
 936 1236 936 1236 920 1261.5 c 128,-1,56
 904 1287 904 1287 879.5 1302 c 128,-1,57
 855 1317 855 1317 824 1317 c 257,58,59
 794 1317 794 1317 766.5 1306 c 128,-1,60
 739 1295 739 1295 716.5 1273.5 c 128,-1,61
 694 1252 694 1252 678 1220.5 c 128,-1,62
 662 1189 662 1189 655 1147 c 257,63,-1
 490 211 l 257,36,37
EndSplineSet
PickledDataWithLists: "(dp0
Vcom.fontlab.ttprogram
p1
(c_codecs
encode
p2
(Vdata
p3
Vlatin1
p4
tp5
Rp6
g2
(V<data>\\u000a        <ttProgram>\\u000a          <ttc code=\"alignt\" point=\"at01\" zone=\"t: 1\"/>\\u000a          <ttc code=\"alignb\" point=\"ab01\" zone=\"b: -500\"/>\\u000a          <ttc code=\"alignb\" point=\"ab02\" zone=\"b: 0\"/>\\u000a          <ttc code=\"interpolatev\" point=\"iv01\" point1=\"at01\" point2=\"ab02\"/>\\u000a        </ttProgram>\\u000a      </data>
p7
g4
tp8
Rp9
Ntp10
s."
EndChar
StartChar: gamma
Encoding: 265 947 265
GlifName: gamma
Width: 1300
VWidth: 0
Flags: W
LayerCount: 2
Fore
SplineSet
101 1116 m 257,0,1
NamedP: "ih02"
 158 1116 158 1116 217.5 1112 c 128,-1,2
 277 1108 277 1108 329 1089.5 c 128,-1,3
 381 1071 381 1071 419 1033 c 128,-1,4
 457 995 457 995 470 927 c 257,5,-1
 525 641 l 257,6,-1
 530 220 l 257,7,-1
NamedP: "ih01"
 684 643 l 257,8,-1
 933 1100 l 257,9,-1
 1246 1120 l 257,10,-1
NamedP: "ih03"
 656 21 l 257,11,-1
 564 -500 l 257,12,-1
NamedP: "sv01"
 236 -500 l 257,13,-1
NamedP: "ab01"
 323 -7 l 257,14,-1
 166 834 l 257,15,16
 160 864 160 864 143.5 881.5 c 128,-1,17
 127 899 127 899 110 907 c 257,18,19
 90 917 90 917 67 920 c 257,20,-1
 101 1116 l 257,0,1
NamedP: "ih02"
EndSplineSet
PickledDataWithLists: "(dp0
Vcom.fontlab.ttprogram
p1
(c_codecs
encode
p2
(Vdata
p3
Vlatin1
p4
tp5
Rp6
g2
(V<data>\\u000a        <ttProgram>\\u000a          <ttc code=\"interpolateh\" point=\"ih01\" point1=\"ih02\" point2=\"ih03\"/>\\u000a          <ttc code=\"alignt\" point=\"ih03\" zone=\"t: x\"/>\\u000a          <ttc code=\"alignt\" point=\"ih02\" zone=\"t: x\"/>\\u000a          <ttc code=\"alignb\" point=\"ab01\" zone=\"b: -500\"/>\\u000a          <ttc code=\"singlev\" point1=\"ab01\" point2=\"sv01\"/>\\u000a        </ttProgram>\\u000a      </data>
p7
g4
tp8
Rp9
Ntp10
s."
EndChar
StartChar: epsilon
Encoding: 234 949 234
GlifName: epsilon
Width: 1300
VWidth: 0
Flags: W
LayerCount: 2
Fore
SplineSet
979 665 m 257,0,-1
NamedP: "sv01"
 915 466 l 257,1,-1
NamedP: "sv02"
 646 466 l 257,2,3
NamedP: "sv03"
 623 466 623 466 603 455.5 c 128,-1,4
 583 445 583 445 566.5 426.5 c 128,-1,5
 550 408 550 408 538.5 382.5 c 128,-1,6
 527 357 527 357 522 328 c 257,7,8
 517 300 517 300 525 274 c 128,-1,9
 533 248 533 248 551 228 c 128,-1,10
 569 208 569 208 597 196 c 128,-1,11
 625 184 625 184 661 184 c 257,12,13
 703 184 703 184 749 197 c 128,-1,14
 795 210 795 210 833 226 c 257,15,16
 878 244 878 244 921 268 c 257,17,-1
 1036 131 l 257,18,19
 992 90 992 90 928 57 c 257,20,21
 873 29 873 29 789 6 c 128,-1,22
 705 -17 705 -17 588 -17 c 257,23,24
NamedP: "ab01"
 511 -17 511 -17 434.5 4.5 c 128,-1,25
 358 26 358 26 300 69 c 128,-1,26
 242 112 242 112 211.5 177 c 128,-1,27
 181 242 181 242 197 329 c 257,28,29
 209 401 209 401 249.5 459 c 128,-1,30
 290 517 290 517 350 562 c 257,31,32
 305 607 305 607 285 663.5 c 128,-1,33
 265 720 265 720 278 792 c 257,34,35
 294 880 294 880 346.5 942 c 128,-1,36
 399 1004 399 1004 471.5 1043 c 128,-1,37
 544 1082 544 1082 627 1099.5 c 128,-1,38
 710 1117 710 1117 787 1117 c 257,39,40
NamedP: "at01"
 848 1117 848 1117 906.5 1105 c 128,-1,41
 965 1093 965 1093 1012 1079 c 257,42,43
 1067 1062 1067 1062 1115 1042 c 257,44,-1
 1017 894 l 257,45,46
 982 900 982 900 944 905 c 257,47,48
 912 910 912 910 871.5 913.5 c 128,-1,49
 831 917 831 917 790 917 c 257,50,51
 751 917 751 917 718 904 c 128,-1,52
 685 891 685 891 660.5 871 c 128,-1,53
 636 851 636 851 620.5 825.5 c 128,-1,54
 605 800 605 800 601 775 c 257,55,56
 597 752 597 752 602 732 c 128,-1,57
 607 712 607 712 618 697 c 128,-1,58
 629 682 629 682 645 673.5 c 128,-1,59
 661 665 661 665 681 665 c 257,60,-1
NamedP: "av01"
 979 665 l 257,0,-1
NamedP: "sv01"
EndSplineSet
PickledDataWithLists: "(dp0
Vcom.fontlab.ttprogram
p1
(c_codecs
encode
p2
(Vdata
p3
Vlatin1
p4
tp5
Rp6
g2
(V<data>\\u000a        <ttProgram>\\u000a          <ttc align=\"round\" code=\"alignv\" point=\"av01\"/>\\u000a          <ttc code=\"alignt\" point=\"at01\" zone=\"t: x\"/>\\u000a          <ttc code=\"alignb\" point=\"ab01\" zone=\"b: 0\"/>\\u000a          <ttc code=\"singlev\" point1=\"av01\" point2=\"sv01\"/>\\u000a          <ttc code=\"singlev\" point1=\"sv01\" point2=\"sv02\" stem=\"Y: 171\"/>\\u000a          <ttc code=\"singlev\" point1=\"sv02\" point2=\"sv03\"/>\\u000a        </ttProgram>\\u000a      </data>
p7
g4
tp8
Rp9
Ntp10
s."
EndChar
StartChar: iota
Encoding: 297 953 297
GlifName: iota
Width: 1300
VWidth: 0
Flags: W
LayerCount: 2
Fore
SplineSet
489 874 m 257,0,-1
NamedP: "hr00"
 489 1100 l 257,1,-1
 860 1120 l 257,2,-1
NamedP: "at01"
 733 400 l 257,3,4
 726 362 726 362 720.5 325.5 c 128,-1,5
 715 289 715 289 714.5 260 c 128,-1,6
 714 231 714 231 720.5 213 c 128,-1,7
 727 195 727 195 745 195 c 257,8,9
 768 195 768 195 786.5 198.5 c 128,-1,10
 805 202 805 202 822 209 c 257,11,-1
 887 35 l 257,12,13
 872 26 872 26 848 16.5 c 128,-1,14
 824 7 824 7 796.5 -0.5 c 128,-1,15
 769 -8 769 -8 740.5 -12.5 c 128,-1,16
 712 -17 712 -17 687 -17 c 257,17,18
NamedP: "ab01"
 567 -17 567 -17 502.5 16 c 128,-1,19
 438 49 438 49 411.5 107 c 128,-1,20
 385 165 385 165 388.5 243.5 c 128,-1,21
 392 322 392 322 408 413 c 257,22,-1
 489 874 l 257,0,-1
NamedP: "hr00"
EndSplineSet
PickledDataWithLists: "(dp0
Vcom.adobe.type.autohint
p1
(c_codecs
encode
p2
(Vdata
p3
Vlatin1
p4
tp5
Rp6
g2
(V<data>\\u000a        <hintSetList>\\u000a          <hintset pointTag=\"hr00\">\\u000a            <hstem pos=\"-15\" width=\"146\"/>\\u000a            <hstem pos=\"1120\" width=\"-20\"/>\\u000a            <vstem pos=\"200\" width=\"180\"/>\\u000a          </hintset>\\u000a        </hintSetList>\\u000a      </data>
p7
g4
tp8
Rp9
Ntp10
sVcom.fontlab.ttprogram
p11
(g2
(Vdata
p12
g4
tp13
Rp14
g2
(V<data>\\u000a        <ttProgram>\\u000a          <ttc code=\"alignt\" point=\"at01\" zone=\"t: x\"/>\\u000a          <ttc code=\"alignb\" point=\"ab01\" zone=\"b: 0\"/>\\u000a        </ttProgram>\\u000a      </data>
p15
g4
tp16
Rp17
Ntp18
s."
EndChar
StartChar: kappa
Encoding: 300 954 300
GlifName: kappa
Width: 1300
VWidth: 0
Flags: W
LayerCount: 2
Fore
SplineSet
133 0 m 257,0,-1
NamedP: "ab01"
 290 890 l 257,1,-1
 290 1100 l 257,2,-1
NamedP: "at01"
 627 1120 l 257,3,-1
NamedP: "at02"
 566 774 l 257,4,-1
 864 1100 l 257,5,-1
NamedP: "sv01"
 1179 1120 l 257,6,-1
NamedP: "at03"
 739 670 l 257,7,-1
 552 600 l 257,8,-1
NamedP: "iv01"
 714 530 l 257,9,-1
 1028 0 l 257,10,-1
NamedP: "sv02"
 719 0 l 257,11,-1
NamedP: "ab02"
 501 405 l 257,12,-1
 430 0 l 257,13,-1
NamedP: "sv03"
 133 0 l 257,0,-1
NamedP: "ab01"
EndSplineSet
PickledDataWithLists: "(dp0
Vcom.adobe.type.autohint
p1
(c_codecs
encode
p2
(Vdata
p3
Vlatin1
p4
tp5
Rp6
g2
(V<data>\\u000a        <hintSetList>\\u000a          <hintset pointTag=\"ab01\">\\u000a            <hstem pos=\"21\" width=\"-21\"/>\\u000a            <hstem pos=\"1121\" width=\"-20\"/>\\u000a            <vstem pos=\"200\" width=\"180\"/>\\u000a          </hintset>\\u000a        </hintSetList>\\u000a      </data>
p7
g4
tp8
Rp9
Ntp10
sVcom.fontlab.ttprogram
p11
(g2
(Vdata
p12
g4
tp13
Rp14
g2
(V<data>\\u000a        <ttProgram>\\u000a          <ttc code=\"alignt\" point=\"at01\" zone=\"t: x\"/>\\u000a          <ttc code=\"alignt\" point=\"at02\" zone=\"t: x\"/>\\u000a          <ttc code=\"alignt\" point=\"at03\" zone=\"t: x\"/>\\u000a          <ttc code=\"alignb\" point=\"ab01\" zone=\"b: 0\"/>\\u000a          <ttc code=\"alignb\" point=\"ab02\" zone=\"b: 0\"/>\\u000a          <ttc code=\"singlev\" point1=\"at01\" point2=\"sv01\"/>\\u000a          <ttc code=\"interpolatev\" point=\"iv01\" point1=\"sv01\" point2=\"ab02\"/>\\u000a          <ttc code=\"singlev\" point1=\"ab02\" point2=\"sv02\"/>\\u000a          <ttc code=\"singlev\" point1=\"ab01\" point2=\"sv03\"/>\\u000a        </ttProgram>\\u000a      </data>
p15
g4
tp16
Rp17
Ntp18
s."
EndChar
StartChar: lambda
Encoding: 302 955 302
GlifName: lambda
Width: 1300
VWidth: 0
Flags: W
LayerCount: 2
Fore
SplineSet
887 0 m 257,0,-1
NamedP: "ab02"
 799 452 l 257,1,-1
NamedP: "sv01"
 794 875 l 257,2,-1
NamedP: "ih01"
 640 454 l 257,3,-1
NamedP: "av02"
 403 0 l 257,4,-1
NamedP: "ih02"
 91 0 l 257,5,-1
NamedP: "ab01"
 719 1148 l 257,6,7
 717 1192 717 1192 702.5 1231.5 c 128,-1,8
 688 1271 688 1271 667 1300.5 c 128,-1,9
 646 1330 646 1330 623 1347.5 c 128,-1,10
 600 1365 600 1365 583 1365 c 257,11,12
 569 1365 569 1365 557 1362.5 c 128,-1,13
 545 1360 545 1360 532 1354 c 128,-1,14
 519 1348 519 1348 503.5 1339 c 128,-1,15
 488 1330 488 1330 467 1317 c 257,16,-1
 376 1475 l 257,17,18
 443 1525 443 1525 513.5 1553 c 128,-1,19
 584 1581 584 1581 651 1581 c 257,20,21
NamedP: "av01"
 707 1581 707 1581 751.5 1560 c 128,-1,22
 796 1539 796 1539 830.5 1503 c 128,-1,23
 865 1467 865 1467 891 1419 c 128,-1,24
 917 1371 917 1371 936.5 1317 c 128,-1,25
 956 1263 956 1263 969.5 1205 c 128,-1,26
 983 1147 983 1147 994 1092 c 257,27,-1
 1200 0 l 257,28,-1
NamedP: "ih03"
 887 0 l 257,0,-1
NamedP: "ab02"
EndSplineSet
PickledDataWithLists: "(dp0
Vcom.adobe.type.autohint
p1
(c_codecs
encode
p2
(Vdata
p3
Vlatin1
p4
tp5
Rp6
g2
(V<data>\\u000a        <hintSetList>\\u000a          <hintset pointTag=\"ab02\">\\u000a            <hstem pos=\"21\" width=\"-21\"/>\\u000a            <hstem pos=\"1375\" width=\"145\"/>\\u000a          </hintset>\\u000a        </hintSetList>\\u000a      </data>
p7
g4
tp8
Rp9
Ntp10
sVcom.fontlab.ttprogram
p11
(g2
(Vdata
p12
g4
tp13
Rp14
g2
(V<data>\\u000a        <ttProgram>\\u000a          <ttc code=\"interpolateh\" point=\"ih01\" point1=\"ih02\" point2=\"ih03\"/>\\u000a          <ttc align=\"round\" code=\"alignv\" point=\"av01\"/>\\u000a          <ttc align=\"round\" code=\"alignv\" point=\"av02\"/>\\u000a          <ttc code=\"alignb\" point=\"ab01\" zone=\"b: 0\"/>\\u000a          <ttc code=\"alignb\" point=\"ab02\" zone=\"b: 0\"/>\\u000a          <ttc code=\"singlev\" point1=\"av02\" point2=\"sv01\"/>\\u000a          <ttc code=\"singlev\" point1=\"ab01\" point2=\"ih02\"/>\\u000a          <ttc code=\"singlev\" point1=\"ab02\" point2=\"ih03\"/>\\u000a        </ttProgram>\\u000a      </data>
p15
g4
tp16
Rp17
Ntp18
s."
EndChar
StartChar: uni03BC
Encoding: 547 956 547
GlifName: uni03B_C_
Width: 1300
VWidth: 0
Flags: W
LayerCount: 2
Fore
SplineSet
740 27 m 257,0,1
NamedP: "hr00"
 705 8 705 8 664.5 -4.5 c 128,-1,2
 624 -17 624 -17 577 -17 c 257,3,4
NamedP: "ab01"
 557 -17 557 -17 529 -12 c 128,-1,5
 501 -7 501 -7 473 1.5 c 128,-1,6
 445 10 445 10 421.5 20 c 128,-1,7
 398 30 398 30 388 40 c 257,8,-1
 417 -166 l 257,9,-1
 358 -500 l 257,10,-1
NamedP: "sv01"
 48 -500 l 257,11,-1
NamedP: "ab03"
 329 1100 l 257,12,-1
NamedP: "ih02"
 643 1120 l 257,13,-1
NamedP: "at01"
 507 345 l 257,14,15
 500 307 500 307 507.5 277 c 128,-1,16
 515 247 515 247 531.5 226 c 128,-1,17
 548 205 548 205 571.5 194 c 128,-1,18
 595 183 595 183 622 183 c 257,19,20
NamedP: "ih01"
 665 183 665 183 705 203 c 128,-1,21
 745 223 745 223 779 251 c 257,22,-1
 929 1100 l 257,23,-1
NamedP: "sv02"
 1243 1120 l 257,24,-1
NamedP: "ih03"
 1046 0 l 257,25,-1
NamedP: "sv03"
 735 0 l 257,26,-1
NamedP: "ab02"
 740 27 l 257,0,1
NamedP: "hr00"
EndSplineSet
PickledDataWithLists: "(dp0
Vcom.adobe.type.autohint
p1
(c_codecs
encode
p2
(Vdata
p3
Vlatin1
p4
tp5
Rp6
g2
(V<data>\\u000a        <hintSetList>\\u000a          <hintset pointTag=\"hr00\">\\u000a            <hstem pos=\"-379\" width=\"-21\"/>\\u000a            <hstem pos=\"-15\" width=\"142\"/>\\u000a            <hstem pos=\"1125\" width=\"-20\"/>\\u000a            <vstem pos=\"200\" width=\"190\"/>\\u000a            <vstem pos=\"810\" width=\"190\"/>\\u000a          </hintset>\\u000a        </hintSetList>\\u000a      </data>
p7
g4
tp8
Rp9
Ntp10
sVcom.fontlab.ttprogram
p11
(g2
(Vdata
p12
g4
tp13
Rp14
g2
(V<data>\\u000a        <ttProgram>\\u000a          <ttc code=\"interpolateh\" point=\"ih01\" point1=\"ih02\" point2=\"ih03\"/>\\u000a          <ttc code=\"alignt\" point=\"at01\" zone=\"t: x\"/>\\u000a          <ttc code=\"alignt\" point=\"ih03\" zone=\"t: x\"/>\\u000a          <ttc code=\"alignt\" point=\"ih02\" zone=\"t: x\"/>\\u000a          <ttc code=\"alignb\" point=\"ab01\" zone=\"b: 0\"/>\\u000a          <ttc code=\"alignb\" point=\"ab02\" zone=\"b: 0\"/>\\u000a          <ttc code=\"alignb\" point=\"ab03\" zone=\"b: -500\"/>\\u000a          <ttc code=\"singlev\" point1=\"ab03\" point2=\"sv01\"/>\\u000a          <ttc code=\"singlev\" point1=\"ih02\" point2=\"sv02\"/>\\u000a          <ttc code=\"singlev\" point1=\"ab02\" point2=\"sv03\"/>\\u000a        </ttProgram>\\u000a      </data>
p15
g4
tp16
Rp17
Ntp18
s."
EndChar
StartChar: nu
Encoding: 336 957 336
GlifName: nu
Width: 1300
VWidth: 0
Flags: W
LayerCount: 2
Fore
SplineSet
498 650 m 257,0,-1
 512 250 l 257,1,-1
NamedP: "ih01"
 664 650 l 257,2,-1
 892 1100 l 257,3,-1
NamedP: "at01"
 1213 1100 l 257,4,-1
NamedP: "ih03"
 638 0 l 257,5,-1
NamedP: "sv01"
 284 0 l 257,6,-1
NamedP: "ab01"
 95 1100 l 257,7,-1
NamedP: "ih02"
 415 1100 l 257,8,-1
NamedP: "sv02"
 498 650 l 257,0,-1
EndSplineSet
PickledDataWithLists: "(dp0
Vcom.fontlab.ttprogram
p1
(c_codecs
encode
p2
(Vdata
p3
Vlatin1
p4
tp5
Rp6
g2
(V<data>\\u000a        <ttProgram>\\u000a          <ttc code=\"interpolateh\" point=\"ih01\" point1=\"ih02\" point2=\"ih03\"/>\\u000a          <ttc code=\"alignt\" point=\"ih02\" zone=\"t: x\"/>\\u000a          <ttc code=\"alignt\" point=\"at01\" zone=\"t: x\"/>\\u000a          <ttc code=\"alignb\" point=\"ab01\" zone=\"b: 0\"/>\\u000a          <ttc code=\"singlev\" point1=\"at01\" point2=\"ih03\"/>\\u000a          <ttc code=\"singlev\" point1=\"ab01\" point2=\"sv01\"/>\\u000a          <ttc code=\"singlev\" point1=\"ih02\" point2=\"sv02\"/>\\u000a        </ttProgram>\\u000a      </data>
p7
g4
tp8
Rp9
Ntp10
s."
EndChar
StartChar: pi
Encoding: 381 960 381
GlifName: pi
Width: 1300
VWidth: 0
Flags: W
LayerCount: 2
Fore
SplineSet
1075 900 m 257,0,-1
NamedP: "hr00"
 987 400 l 257,1,2
 975 334 975 334 971 291.5 c 128,-1,3
 967 249 967 249 970 225 c 128,-1,4
 973 201 973 201 982 192 c 128,-1,5
 991 183 991 183 1005 183 c 257,6,7
 1022 183 1022 183 1039.5 188 c 128,-1,8
 1057 193 1057 193 1071 200 c 257,9,10
 1088 208 1088 208 1104 218 c 257,11,-1
 1181 43 l 257,12,13
 1163 35 1163 35 1139 24.5 c 128,-1,14
 1115 14 1115 14 1085.5 5 c 128,-1,15
 1056 -4 1056 -4 1022 -10.5 c 128,-1,16
 988 -17 988 -17 950 -17 c 257,17,18
NamedP: "ab02"
 830 -17 830 -17 765.5 16 c 128,-1,19
 701 49 701 49 675 107 c 128,-1,20
 649 165 649 165 652.5 243.5 c 128,-1,21
 656 322 656 322 672 413 c 257,22,-1
 758 900 l 257,23,-1
 494 900 l 257,24,-1
 583 752 l 257,25,-1
 450 0 l 257,26,-1
NamedP: "sv01"
 133 0 l 257,27,-1
NamedP: "ab01"
 256 698 l 257,28,29
 275 806 275 806 278.5 854.5 c 128,-1,30
 282 903 282 903 254 903 c 257,31,32
 236 903 236 903 217 898 c 128,-1,33
 198 893 198 893 181 888 c 257,34,35
 162 882 162 882 144 874 c 257,36,-1
 59 1041 l 257,37,38
 77 1050 77 1050 101 1060 c 128,-1,39
 125 1070 125 1070 154 1079 c 128,-1,40
 183 1088 183 1088 217 1094 c 128,-1,41
 251 1100 251 1100 288 1100 c 257,42,-1
NamedP: "at01"
 1243 1100 l 257,43,-1
NamedP: "sv02"
 1181 900 l 257,44,-1
 1075 900 l 257,0,-1
NamedP: "hr00"
EndSplineSet
PickledDataWithLists: "(dp0
Vcom.adobe.type.autohint
p1
(c_codecs
encode
p2
(Vdata
p3
Vlatin1
p4
tp5
Rp6
g2
(V<data>\\u000a        <hintSetList>\\u000a          <hintset pointTag=\"hr00\">\\u000a            <hstem pos=\"-13\" width=\"146\"/>\\u000a            <hstem pos=\"950\" width=\"150\"/>\\u000a            <vstem pos=\"300\" width=\"180\"/>\\u000a            <vstem pos=\"800\" width=\"180\"/>\\u000a          </hintset>\\u000a        </hintSetList>\\u000a      </data>
p7
g4
tp8
Rp9
Ntp10
sVcom.fontlab.ttprogram
p11
(g2
(Vdata
p12
g4
tp13
Rp14
g2
(V<data>\\u000a        <ttProgram>\\u000a          <ttc code=\"alignt\" point=\"at01\" zone=\"t: x\"/>\\u000a          <ttc code=\"alignb\" point=\"ab01\" zone=\"b: 0\"/>\\u000a          <ttc code=\"alignb\" point=\"ab02\" zone=\"b: 0\"/>\\u000a          <ttc code=\"singlev\" point1=\"ab01\" point2=\"sv01\"/>\\u000a          <ttc code=\"singlev\" point1=\"at01\" point2=\"sv02\"/>\\u000a        </ttProgram>\\u000a      </data>
p15
g4
tp16
Rp17
Ntp18
s."
EndChar
StartChar: tau
Encoding: 516 964 516
GlifName: tau
Width: 1300
VWidth: 0
Flags: W
LayerCount: 2
Fore
SplineSet
804 900 m 257,0,-1
NamedP: "sv03"
 696 284 l 257,1,2
 690 250 690 250 690 220 c 128,-1,3
 690 190 690 190 698 157.5 c 128,-1,4
 706 125 706 125 723 87.5 c 128,-1,5
 740 50 740 50 768 0 c 257,6,-1
NamedP: "sv04"
 453 0 l 257,7,8
NamedP: "ab01"
 422 25 422 25 405 57.5 c 128,-1,9
 388 90 388 90 382 130 c 128,-1,10
 376 170 376 170 379.5 217 c 128,-1,11
 383 264 383 264 393 320 c 257,12,-1
 495 900 l 257,13,-1
 160 900 l 257,14,-1
NamedP: "sv05"
 222 1100 l 257,15,-1
NamedP: "at01"
 1150 1100 l 257,16,-1
NamedP: "sv01"
 1088 900 l 257,17,-1
NamedP: "sv02"
 804 900 l 257,0,-1
NamedP: "sv03"
EndSplineSet
PickledDataWithLists: "(dp0
Vcom.fontlab.ttprogram
p1
(c_codecs
encode
p2
(Vdata
p3
Vlatin1
p4
tp5
Rp6
g2
(V<data>\\u000a        <ttProgram>\\u000a          <ttc code=\"alignt\" point=\"at01\" zone=\"t: x\"/>\\u000a          <ttc code=\"alignb\" point=\"ab01\" zone=\"b: 0\"/>\\u000a          <ttc code=\"singlev\" point1=\"at01\" point2=\"sv01\"/>\\u000a          <ttc code=\"singlev\" point1=\"sv01\" point2=\"sv02\" stem=\"Y: 171\"/>\\u000a          <ttc code=\"singlev\" point1=\"sv02\" point2=\"sv03\"/>\\u000a          <ttc code=\"singlev\" point1=\"ab01\" point2=\"sv04\"/>\\u000a          <ttc code=\"singlev\" point1=\"sv03\" point2=\"sv05\"/>\\u000a        </ttProgram>\\u000a      </data>
p7
g4
tp8
Rp9
Ntp10
s."
EndChar
StartChar: upsilon
Encoding: 551 965 551
GlifName: upsilon
Width: 1300
VWidth: 0
Flags: W
LayerCount: 2
Fore
SplineSet
649 500 m 257,0,1
NamedP: "sh01"
 635 425 635 425 627.5 368 c 128,-1,2
 620 311 620 311 624 272 c 128,-1,3
 628 233 628 233 645 213.5 c 128,-1,4
 662 194 662 194 698 194 c 257,5,6
 733 194 733 194 756.5 211 c 128,-1,7
 780 228 780 228 796 257 c 128,-1,8
 812 286 812 286 821.5 325 c 128,-1,9
 831 364 831 364 839 409 c 257,10,-1
NamedP: "ah01"
 893 719 l 257,11,12
NamedP: "ah04"
 904 783 904 783 892.5 825 c 128,-1,13
 881 867 881 867 858.5 892 c 128,-1,14
 836 917 836 917 808 927.5 c 128,-1,15
 780 938 780 938 758 938 c 257,16,-1
 789 1117 l 257,17,18
NamedP: "at02"
 898 1117 898 1117 985.5 1091.5 c 128,-1,19
 1073 1066 1073 1066 1131 1017.5 c 128,-1,20
 1189 969 1189 969 1214 900 c 128,-1,21
 1239 831 1239 831 1224 744 c 257,22,-1
NamedP: "sh02"
 1163 401 l 257,23,24
NamedP: "sh03"
 1155 357 1155 357 1142.5 308.5 c 128,-1,25
 1130 260 1130 260 1107 214 c 128,-1,26
 1084 168 1084 168 1048.5 126 c 128,-1,27
 1013 84 1013 84 960 52 c 128,-1,28
 907 20 907 20 833.5 1.5 c 128,-1,29
 760 -17 760 -17 661 -17 c 257,30,31
NamedP: "ab01"
 561 -17 561 -17 494 3 c 128,-1,32
 427 23 427 23 385.5 57 c 128,-1,33
 344 91 344 91 324 135.5 c 128,-1,34
 304 180 304 180 298.5 229 c 128,-1,35
 293 278 293 278 298 328.5 c 128,-1,36
 303 379 303 379 311 424 c 257,37,-1
NamedP: "ah02"
 382 824 l 257,38,39
NamedP: "ah03"
 389 862 389 862 385 884.5 c 128,-1,40
 381 907 381 907 366 907 c 257,41,42
 348 907 348 907 329 875 c 128,-1,43
 310 843 310 843 300 787 c 257,44,-1
NamedP: "sv01"
 85 787 l 257,45,46
NamedP: "av01"
 96 848 96 848 125.5 907.5 c 128,-1,47
 155 967 155 967 200 1013.5 c 128,-1,48
 245 1060 245 1060 304 1088.5 c 128,-1,49
 363 1117 363 1117 433 1117 c 257,50,51
NamedP: "at01"
 505 1117 505 1117 561 1095.5 c 128,-1,52
 617 1074 617 1074 653 1035.5 c 128,-1,53
 689 997 689 997 703 943 c 128,-1,54
 717 889 717 889 706 824 c 257,55,-1
NamedP: "sh04"
 649 500 l 257,0,1
NamedP: "sh01"
EndSplineSet
PickledDataWithLists: "(dp0
Vcom.fontlab.ttprogram
p1
(c_codecs
encode
p2
(Vdata
p3
Vlatin1
p4
tp5
Rp6
g2
(V<data>\\u000a        <ttProgram>\\u000a          <ttc align=\"round\" code=\"alignh\" point=\"ah01\"/>\\u000a          <ttc align=\"round\" code=\"alignh\" point=\"ah02\"/>\\u000a          <ttc align=\"round\" code=\"alignh\" point=\"ah03\"/>\\u000a          <ttc align=\"round\" code=\"alignh\" point=\"ah04\"/>\\u000a          <ttc code=\"singleh\" point1=\"ah02\" point2=\"sh01\" stem=\"X: 208\"/>\\u000a          <ttc code=\"singleh\" point1=\"ah04\" point2=\"sh02\" stem=\"X: 208\"/>\\u000a          <ttc code=\"singleh\" point1=\"ah01\" point2=\"sh03\" stem=\"X: 208\"/>\\u000a          <ttc code=\"singleh\" point1=\"ah03\" point2=\"sh04\" stem=\"X: 208\"/>\\u000a          <ttc align=\"round\" code=\"alignv\" point=\"av01\"/>\\u000a          <ttc code=\"alignt\" point=\"at01\" zone=\"t: x\"/>\\u000a          <ttc code=\"alignt\" point=\"at02\" zone=\"t: x\"/>\\u000a          <ttc code=\"alignb\" point=\"ab01\" zone=\"b: 0\"/>\\u000a          <ttc code=\"singlev\" point1=\"av01\" point2=\"sv01\"/>\\u000a        </ttProgram>\\u000a      </data>
p7
g4
tp8
Rp9
Ntp10
s."
EndChar
